<svg width="598" height="310" viewBox="0 0 598 310" fill="none" xmlns="http://www.w3.org/2000/svg">
<rect x="357.5" y="4.5" width="267" height="171" rx="16.5" fill="#ECE4F7" stroke="#E0D4F0" stroke-width="9"/>
<path d="M409.632 52L403.08 35.2H405.864L412.584 52H409.632ZM396.216 52L402.912 35.2H405.72L399.168 52H396.216ZM399.36 47.872V45.4H409.416V47.872H399.36ZM414.773 52V35.2H417.557V52H414.773ZM438.976 52L432.424 35.2H435.208L441.928 52H438.976ZM425.56 52L432.256 35.2H435.064L428.512 52H425.56ZM428.704 47.872V45.4H438.76V47.872H428.704ZM443.613 52V40H446.133L446.301 42.208V52H443.613ZM451.749 52V45.856H454.437V52H451.749ZM451.749 45.856C451.749 44.896 451.637 44.16 451.413 43.648C451.205 43.12 450.901 42.752 450.501 42.544C450.117 42.336 449.661 42.232 449.133 42.232C448.237 42.216 447.541 42.512 447.045 43.12C446.549 43.728 446.301 44.6 446.301 45.736H445.293C445.293 44.472 445.477 43.392 445.845 42.496C446.213 41.584 446.741 40.896 447.429 40.432C448.117 39.952 448.933 39.712 449.877 39.712C450.837 39.712 451.653 39.904 452.325 40.288C453.013 40.672 453.533 41.272 453.885 42.088C454.253 42.888 454.437 43.936 454.437 45.232V45.856H451.749ZM461.528 52.288C460.728 52.288 459.992 52.168 459.32 51.928C458.648 51.688 458.072 51.352 457.592 50.92C457.112 50.472 456.744 49.952 456.488 49.36L458.816 48.328C459.056 48.776 459.408 49.152 459.872 49.456C460.352 49.76 460.88 49.912 461.456 49.912C462.08 49.912 462.576 49.808 462.944 49.6C463.328 49.376 463.52 49.072 463.52 48.688C463.52 48.32 463.376 48.04 463.088 47.848C462.8 47.64 462.392 47.472 461.864 47.344L460.736 47.032C459.6 46.744 458.712 46.288 458.072 45.664C457.432 45.024 457.112 44.296 457.112 43.48C457.112 42.28 457.496 41.352 458.264 40.696C459.048 40.04 460.168 39.712 461.624 39.712C462.36 39.712 463.032 39.824 463.64 40.048C464.264 40.256 464.8 40.56 465.248 40.96C465.696 41.344 466.008 41.8 466.184 42.328L463.952 43.336C463.792 42.936 463.488 42.632 463.04 42.424C462.592 42.2 462.096 42.088 461.552 42.088C461.008 42.088 460.584 42.208 460.28 42.448C459.976 42.672 459.824 42.992 459.824 43.408C459.824 43.648 459.96 43.872 460.232 44.08C460.504 44.272 460.896 44.432 461.408 44.56L462.824 44.896C463.608 45.088 464.248 45.392 464.744 45.808C465.24 46.208 465.608 46.664 465.848 47.176C466.088 47.672 466.208 48.176 466.208 48.688C466.208 49.408 466 50.04 465.584 50.584C465.184 51.128 464.632 51.552 463.928 51.856C463.224 52.144 462.424 52.288 461.528 52.288ZM479.452 52L483.46 40H486.172L482.092 52H479.452ZM471.412 52L475.324 40H477.7L473.836 52H471.412ZM471.172 52L467.092 40H469.804L473.716 52H471.172ZM479.428 52L475.588 40H477.964L481.876 52H479.428ZM492.934 52.288C491.766 52.288 490.726 52.024 489.814 51.496C488.918 50.952 488.206 50.208 487.678 49.264C487.166 48.32 486.91 47.232 486.91 46C486.91 44.768 487.174 43.68 487.702 42.736C488.23 41.792 488.95 41.056 489.862 40.528C490.79 39.984 491.846 39.712 493.03 39.712C494.102 39.712 495.07 39.992 495.934 40.552C496.798 41.096 497.478 41.888 497.974 42.928C498.486 43.968 498.742 45.208 498.742 46.648H489.31L489.67 46.312C489.67 47.048 489.83 47.688 490.15 48.232C490.47 48.76 490.894 49.168 491.422 49.456C491.95 49.744 492.534 49.888 493.174 49.888C493.91 49.888 494.518 49.728 494.998 49.408C495.478 49.072 495.854 48.64 496.126 48.112L498.502 49.12C498.166 49.76 497.734 50.32 497.206 50.8C496.694 51.28 496.078 51.648 495.358 51.904C494.654 52.16 493.846 52.288 492.934 52.288ZM489.838 44.92L489.454 44.584H496.222L495.862 44.92C495.862 44.264 495.718 43.728 495.43 43.312C495.142 42.88 494.774 42.56 494.326 42.352C493.894 42.128 493.438 42.016 492.958 42.016C492.478 42.016 491.998 42.128 491.518 42.352C491.038 42.56 490.638 42.88 490.318 43.312C489.998 43.728 489.838 44.264 489.838 44.92ZM502.577 45.616C502.577 44.32 502.825 43.256 503.321 42.424C503.817 41.592 504.457 40.976 505.241 40.576C506.041 40.16 506.873 39.952 507.737 39.952V42.52C507.001 42.52 506.305 42.624 505.648 42.832C505.009 43.024 504.489 43.344 504.089 43.792C503.689 44.24 503.489 44.832 503.489 45.568L502.577 45.616ZM500.801 52V40H503.489V52H500.801ZM511.415 43.36C510.951 43.36 510.551 43.192 510.215 42.856C509.879 42.52 509.711 42.12 509.711 41.656C509.711 41.192 509.879 40.8 510.215 40.48C510.551 40.144 510.951 39.976 511.415 39.976C511.863 39.976 512.255 40.144 512.591 40.48C512.927 40.8 513.095 41.192 513.095 41.656C513.095 42.12 512.927 42.52 512.591 42.856C512.255 43.192 511.863 43.36 511.415 43.36ZM511.439 52.048C510.975 52.048 510.575 51.88 510.239 51.544C509.903 51.208 509.735 50.808 509.735 50.344C509.735 49.88 509.903 49.488 510.239 49.168C510.575 48.832 510.975 48.664 511.439 48.664C511.903 48.664 512.295 48.832 512.615 49.168C512.951 49.488 513.119 49.88 513.119 50.344C513.119 50.808 512.951 51.208 512.615 51.544C512.295 51.88 511.903 52.048 511.439 52.048Z" fill="#3C227E"/>
<path d="M404.08 88.24C402.667 88.24 401.407 87.9333 400.3 87.32C399.207 86.6933 398.347 85.84 397.72 84.76C397.093 83.6667 396.78 82.42 396.78 81.02C396.78 79.5933 397.093 78.34 397.72 77.26C398.347 76.1667 399.207 75.3133 400.3 74.7C401.407 74.0733 402.667 73.76 404.08 73.76C404.893 73.76 405.653 73.8867 406.36 74.14C407.08 74.3933 407.727 74.74 408.3 75.18C408.873 75.6067 409.34 76.1067 409.7 76.68L407.82 77.88C407.567 77.4933 407.24 77.1467 406.84 76.84C406.44 76.5333 406 76.3 405.52 76.14C405.053 75.9667 404.573 75.88 404.08 75.88C403.12 75.88 402.267 76.1 401.52 76.54C400.787 76.98 400.207 77.5867 399.78 78.36C399.353 79.12 399.14 80.0067 399.14 81.02C399.14 82.0067 399.347 82.8867 399.76 83.66C400.187 84.4333 400.773 85.04 401.52 85.48C402.28 85.92 403.153 86.14 404.14 86.14C404.913 86.14 405.607 85.98 406.22 85.66C406.833 85.34 407.313 84.8933 407.66 84.32C408.02 83.7467 408.2 83.0867 408.2 82.34L410.42 82.06C410.42 83.3267 410.147 84.4267 409.6 85.36C409.067 86.28 408.32 86.9933 407.36 87.5C406.413 87.9933 405.32 88.24 404.08 88.24ZM404.84 82.52V80.64H410.42V82.2L409.18 82.52H404.84ZM413.72 82.68C413.72 81.6 413.927 80.7133 414.34 80.02C414.753 79.3267 415.287 78.8133 415.94 78.48C416.607 78.1333 417.3 77.96 418.02 77.96V80.1C417.407 80.1 416.827 80.1867 416.28 80.36C415.747 80.52 415.313 80.7867 414.98 81.16C414.647 81.5333 414.48 82.0267 414.48 82.64L413.72 82.68ZM412.24 88V78H414.48V88H412.24ZM425.606 88L425.506 86.12V82.86C425.506 82.18 425.432 81.6133 425.286 81.16C425.152 80.6933 424.926 80.34 424.606 80.1C424.299 79.8467 423.886 79.72 423.366 79.72C422.886 79.72 422.466 79.82 422.106 80.02C421.746 80.22 421.439 80.5333 421.186 80.96L419.226 80.24C419.439 79.8 419.719 79.3933 420.066 79.02C420.426 78.6333 420.872 78.3267 421.406 78.1C421.952 77.8733 422.606 77.76 423.366 77.76C424.339 77.76 425.152 77.9533 425.806 78.34C426.459 78.7133 426.939 79.2533 427.246 79.96C427.566 80.6667 427.726 81.52 427.726 82.52L427.666 88H425.606ZM422.726 88.24C421.526 88.24 420.592 87.9733 419.926 87.44C419.272 86.9067 418.946 86.1533 418.946 85.18C418.946 84.14 419.292 83.3467 419.986 82.8C420.692 82.2533 421.672 81.98 422.926 81.98H425.606V83.7H423.646C422.752 83.7 422.126 83.8267 421.766 84.08C421.406 84.32 421.226 84.6667 421.226 85.12C421.226 85.5067 421.379 85.8133 421.686 86.04C422.006 86.2533 422.446 86.36 423.006 86.36C423.512 86.36 423.952 86.2467 424.326 86.02C424.699 85.7933 424.986 85.4933 425.186 85.12C425.399 84.7467 425.506 84.3267 425.506 83.86H426.166C426.166 85.22 425.892 86.2933 425.346 87.08C424.799 87.8533 423.926 88.24 422.726 88.24ZM432.98 88L436.88 78H439.2L435.08 88H432.98ZM432.82 88L428.68 78H430.98L434.9 88H432.82ZM440.739 88V78H442.959V88H440.739ZM441.859 76.1C441.499 76.1 441.186 75.9733 440.919 75.72C440.666 75.4533 440.539 75.14 440.539 74.78C440.539 74.42 440.666 74.1133 440.919 73.86C441.186 73.6067 441.499 73.48 441.859 73.48C442.219 73.48 442.526 73.6067 442.779 73.86C443.046 74.1133 443.179 74.42 443.179 74.78C443.179 75.14 443.046 75.4533 442.779 75.72C442.526 75.9733 442.219 76.1 441.859 76.1ZM449.579 88.24C448.526 88.24 447.719 87.98 447.159 87.46C446.613 86.9267 446.339 86.1667 446.339 85.18V74.88H448.559V84.76C448.559 85.2267 448.666 85.58 448.879 85.82C449.106 86.06 449.433 86.18 449.859 86.18C449.993 86.18 450.139 86.1533 450.299 86.1C450.459 86.0467 450.639 85.9467 450.839 85.8L451.659 87.5C451.313 87.74 450.966 87.92 450.619 88.04C450.273 88.1733 449.926 88.24 449.579 88.24ZM444.679 79.92V78H451.259V79.92H444.679ZM455.031 92.24C454.711 92.24 454.351 92.18 453.951 92.06C453.564 91.94 453.191 91.7867 452.831 91.6L453.671 89.78C453.924 89.9 454.158 89.9933 454.371 90.06C454.584 90.14 454.758 90.18 454.891 90.18C455.211 90.18 455.478 90.0933 455.691 89.92C455.918 89.76 456.098 89.52 456.231 89.2L457.411 86.44L460.791 78H463.231L458.591 89.06C458.311 89.7 458.024 90.26 457.731 90.74C457.451 91.22 457.098 91.5867 456.671 91.84C456.244 92.1067 455.698 92.24 455.031 92.24ZM456.811 88L452.331 78H454.771L458.251 86.42L458.971 88H456.811ZM469.528 88V78H471.748V88H469.528ZM470.648 76.1C470.288 76.1 469.975 75.9733 469.708 75.72C469.455 75.4533 469.328 75.14 469.328 74.78C469.328 74.42 469.455 74.1133 469.708 73.86C469.975 73.6067 470.288 73.48 470.648 73.48C471.008 73.48 471.315 73.6067 471.568 73.86C471.835 74.1133 471.968 74.42 471.968 74.78C471.968 75.14 471.835 75.4533 471.568 75.72C471.315 75.9733 471.008 76.1 470.648 76.1ZM478.028 88.24C477.362 88.24 476.748 88.14 476.188 87.94C475.628 87.74 475.148 87.46 474.748 87.1C474.348 86.7267 474.042 86.2933 473.828 85.8L475.768 84.94C475.968 85.3133 476.262 85.6267 476.648 85.88C477.048 86.1333 477.488 86.26 477.968 86.26C478.488 86.26 478.902 86.1733 479.208 86C479.528 85.8133 479.688 85.56 479.688 85.24C479.688 84.9333 479.568 84.7 479.328 84.54C479.088 84.3667 478.748 84.2267 478.308 84.12L477.368 83.86C476.422 83.62 475.682 83.24 475.148 82.72C474.615 82.1867 474.348 81.58 474.348 80.9C474.348 79.9 474.668 79.1267 475.308 78.58C475.962 78.0333 476.895 77.76 478.108 77.76C478.722 77.76 479.282 77.8533 479.788 78.04C480.308 78.2133 480.755 78.4667 481.128 78.8C481.502 79.12 481.762 79.5 481.908 79.94L480.048 80.78C479.915 80.4467 479.662 80.1933 479.288 80.02C478.915 79.8333 478.502 79.74 478.048 79.74C477.595 79.74 477.242 79.84 476.988 80.04C476.735 80.2267 476.608 80.4933 476.608 80.84C476.608 81.04 476.722 81.2267 476.948 81.4C477.175 81.56 477.502 81.6933 477.928 81.8L479.108 82.08C479.762 82.24 480.295 82.4933 480.708 82.84C481.122 83.1733 481.428 83.5533 481.628 83.98C481.828 84.3933 481.928 84.8133 481.928 85.24C481.928 85.84 481.755 86.3667 481.408 86.82C481.075 87.2733 480.615 87.6267 480.028 87.88C479.442 88.12 478.775 88.24 478.028 88.24ZM492.509 88.24C491.456 88.24 490.649 87.98 490.089 87.46C489.542 86.9267 489.269 86.1667 489.269 85.18V74.88H491.489V84.76C491.489 85.2267 491.596 85.58 491.809 85.82C492.036 86.06 492.362 86.18 492.789 86.18C492.922 86.18 493.069 86.1533 493.229 86.1C493.389 86.0467 493.569 85.9467 493.769 85.8L494.589 87.5C494.242 87.74 493.896 87.92 493.549 88.04C493.202 88.1733 492.856 88.24 492.509 88.24ZM487.609 79.92V78H494.189V79.92H487.609ZM496.401 88V74H498.641V88H496.401ZM503.181 88V82.88H505.421V88H503.181ZM503.181 82.88C503.181 82.08 503.087 81.4667 502.901 81.04C502.714 80.6 502.454 80.2933 502.121 80.12C501.801 79.9467 501.427 79.86 501.001 79.86C500.241 79.8467 499.654 80.0933 499.241 80.6C498.841 81.1067 498.641 81.8333 498.641 82.78H497.781C497.781 81.7267 497.934 80.8267 498.241 80.08C498.561 79.32 499.007 78.7467 499.581 78.36C500.154 77.96 500.834 77.76 501.621 77.76C502.407 77.76 503.087 77.92 503.661 78.24C504.234 78.56 504.667 79.06 504.961 79.74C505.267 80.4067 505.421 81.28 505.421 82.36V82.88H503.181ZM512.149 88.24C511.176 88.24 510.309 88.02 509.549 87.58C508.803 87.1267 508.209 86.5067 507.769 85.72C507.343 84.9333 507.129 84.0267 507.129 83C507.129 81.9733 507.349 81.0667 507.789 80.28C508.229 79.4933 508.829 78.88 509.589 78.44C510.363 77.9867 511.243 77.76 512.229 77.76C513.123 77.76 513.929 77.9933 514.649 78.46C515.369 78.9133 515.936 79.5733 516.349 80.44C516.776 81.3067 516.989 82.34 516.989 83.54H509.129L509.429 83.26C509.429 83.8733 509.563 84.4067 509.829 84.86C510.096 85.3 510.449 85.64 510.889 85.88C511.329 86.12 511.816 86.24 512.349 86.24C512.963 86.24 513.469 86.1067 513.869 85.84C514.269 85.56 514.583 85.2 514.809 84.76L516.789 85.6C516.509 86.1333 516.149 86.6 515.709 87C515.283 87.4 514.769 87.7067 514.169 87.92C513.583 88.1333 512.909 88.24 512.149 88.24ZM509.569 82.1L509.249 81.82H514.889L514.589 82.1C514.589 81.5533 514.469 81.1067 514.229 80.76C513.989 80.4 513.683 80.1333 513.309 79.96C512.949 79.7733 512.569 79.68 512.169 79.68C511.769 79.68 511.369 79.7733 510.969 79.96C510.569 80.1333 510.236 80.4 509.969 80.76C509.703 81.1067 509.569 81.5533 509.569 82.1ZM524.529 88V76.94C524.529 75.8867 524.789 75.08 525.309 74.52C525.842 73.9467 526.642 73.66 527.709 73.66C528.056 73.66 528.422 73.72 528.809 73.84C529.209 73.9467 529.589 74.0933 529.949 74.28L529.129 75.94C528.876 75.82 528.649 75.7333 528.449 75.68C528.262 75.6267 528.096 75.6 527.949 75.6C527.549 75.6 527.249 75.7333 527.049 76C526.862 76.2533 526.769 76.6733 526.769 77.26V88H524.529ZM522.809 79.84V78H529.389V79.84H522.809ZM535.629 88.24C534.629 88.24 533.736 88.02 532.949 87.58C532.176 87.1267 531.569 86.5067 531.129 85.72C530.689 84.9333 530.469 84.0267 530.469 83C530.469 81.9733 530.682 81.0667 531.109 80.28C531.549 79.4933 532.156 78.88 532.929 78.44C533.702 77.9867 534.589 77.76 535.589 77.76C536.589 77.76 537.476 77.9867 538.249 78.44C539.022 78.88 539.622 79.4933 540.049 80.28C540.489 81.0667 540.709 81.9733 540.709 83C540.709 84.0267 540.496 84.9333 540.069 85.72C539.642 86.5067 539.042 87.1267 538.269 87.58C537.496 88.02 536.616 88.24 535.629 88.24ZM535.629 86.18C536.176 86.18 536.662 86.0467 537.089 85.78C537.516 85.5 537.849 85.1267 538.089 84.66C538.329 84.18 538.449 83.6267 538.449 83C538.449 82.3733 538.322 81.8267 538.069 81.36C537.829 80.88 537.496 80.5067 537.069 80.24C536.642 79.96 536.149 79.82 535.589 79.82C535.029 79.82 534.536 79.9533 534.109 80.22C533.682 80.4867 533.349 80.86 533.109 81.34C532.869 81.82 532.749 82.3733 532.749 83C532.749 83.6267 532.869 84.18 533.109 84.66C533.362 85.1267 533.702 85.5 534.129 85.78C534.569 86.0467 535.069 86.18 535.629 86.18ZM544.13 82.68C544.13 81.6 544.337 80.7133 544.75 80.02C545.163 79.3267 545.697 78.8133 546.35 78.48C547.017 78.1333 547.71 77.96 548.43 77.96V80.1C547.817 80.1 547.237 80.1867 546.69 80.36C546.157 80.52 545.723 80.7867 545.39 81.16C545.057 81.5333 544.89 82.0267 544.89 82.64L544.13 82.68ZM542.65 88V78H544.89V88H542.65ZM554.596 88.24C553.569 88.24 552.662 88.02 551.876 87.58C551.089 87.1267 550.469 86.5067 550.016 85.72C549.576 84.9333 549.356 84.0267 549.356 83C549.356 81.9733 549.576 81.0667 550.016 80.28C550.469 79.4933 551.082 78.88 551.856 78.44C552.642 77.9867 553.542 77.76 554.556 77.76C555.542 77.76 556.436 78 557.236 78.48C558.036 78.9467 558.629 79.62 559.016 80.5L556.936 81.3C556.722 80.86 556.396 80.5067 555.956 80.24C555.516 79.9733 555.016 79.84 554.456 79.84C553.909 79.84 553.422 79.98 552.996 80.26C552.569 80.5267 552.236 80.9 551.996 81.38C551.756 81.8467 551.636 82.3867 551.636 83C551.636 83.6133 551.756 84.16 551.996 84.64C552.249 85.1067 552.589 85.48 553.016 85.76C553.456 86.0267 553.949 86.16 554.496 86.16C555.056 86.16 555.556 86.02 555.996 85.74C556.436 85.4467 556.762 85.0533 556.976 84.56L559.056 85.36C558.669 86.2667 558.076 86.9733 557.276 87.48C556.489 87.9867 555.596 88.24 554.596 88.24ZM565.255 88.24C564.281 88.24 563.415 88.02 562.655 87.58C561.908 87.1267 561.315 86.5067 560.875 85.72C560.448 84.9333 560.235 84.0267 560.235 83C560.235 81.9733 560.455 81.0667 560.895 80.28C561.335 79.4933 561.935 78.88 562.695 78.44C563.468 77.9867 564.348 77.76 565.335 77.76C566.228 77.76 567.035 77.9933 567.755 78.46C568.475 78.9133 569.041 79.5733 569.455 80.44C569.881 81.3067 570.095 82.34 570.095 83.54H562.235L562.535 83.26C562.535 83.8733 562.668 84.4067 562.935 84.86C563.201 85.3 563.555 85.64 563.995 85.88C564.435 86.12 564.921 86.24 565.455 86.24C566.068 86.24 566.575 86.1067 566.975 85.84C567.375 85.56 567.688 85.2 567.915 84.76L569.895 85.6C569.615 86.1333 569.255 86.6 568.815 87C568.388 87.4 567.875 87.7067 567.275 87.92C566.688 88.1333 566.015 88.24 565.255 88.24ZM562.675 82.1L562.355 81.82H567.995L567.695 82.1C567.695 81.5533 567.575 81.1067 567.335 80.76C567.095 80.4 566.788 80.1333 566.415 79.96C566.055 79.7733 565.675 79.68 565.275 79.68C564.875 79.68 564.475 79.7733 564.075 79.96C563.675 80.1333 563.341 80.4 563.075 80.76C562.808 81.1067 562.675 81.5533 562.675 82.1ZM576.635 88V74H578.875V86.14L578.755 88H576.635ZM582.035 88.24C581.195 88.24 580.468 88.0267 579.855 87.6C579.255 87.16 578.795 86.5467 578.475 85.76C578.155 84.9733 577.995 84.0533 577.995 83C577.995 81.9333 578.155 81.0133 578.475 80.24C578.795 79.4533 579.255 78.8467 579.855 78.42C580.468 77.98 581.195 77.76 582.035 77.76C582.941 77.76 583.728 77.98 584.395 78.42C585.075 78.8467 585.601 79.4533 585.975 80.24C586.361 81.0133 586.555 81.9333 586.555 83C586.555 84.0533 586.361 84.9733 585.975 85.76C585.601 86.5467 585.075 87.16 584.395 87.6C583.728 88.0267 582.941 88.24 582.035 88.24ZM581.475 86.2C582.008 86.2 582.481 86.0667 582.895 85.8C583.308 85.52 583.635 85.14 583.875 84.66C584.128 84.18 584.255 83.6267 584.255 83C584.255 82.3733 584.135 81.82 583.895 81.34C583.668 80.86 583.348 80.4867 582.935 80.22C582.521 79.9533 582.041 79.82 581.495 79.82C580.988 79.82 580.535 79.9533 580.135 80.22C579.735 80.4867 579.421 80.86 579.195 81.34C578.981 81.82 578.875 82.3733 578.875 83C578.875 83.6267 578.981 84.18 579.195 84.66C579.421 85.14 579.728 85.52 580.115 85.8C580.515 86.0667 580.968 86.2 581.475 86.2ZM589.679 92.24C589.359 92.24 588.999 92.18 588.599 92.06C588.213 91.94 587.839 91.7867 587.479 91.6L588.319 89.78C588.573 89.9 588.806 89.9933 589.019 90.06C589.233 90.14 589.406 90.18 589.539 90.18C589.859 90.18 590.126 90.0933 590.339 89.92C590.566 89.76 590.746 89.52 590.879 89.2L592.059 86.44L595.439 78H597.879L593.239 89.06C592.959 89.7 592.673 90.26 592.379 90.74C592.099 91.22 591.746 91.5867 591.319 91.84C590.893 92.1067 590.346 92.24 589.679 92.24ZM591.459 88L586.979 78H589.419L592.899 86.42L593.619 88H591.459ZM406.5 112L409.84 102H412.1L408.7 112H406.5ZM399.8 112L403.06 102H405.04L401.82 112H399.8ZM399.6 112L396.2 102H398.46L401.72 112H399.6ZM406.48 112L403.28 102H405.26L408.52 112H406.48ZM413.569 112V98H415.809V112H413.569ZM420.349 112V106.88H422.589V112H420.349ZM420.349 106.88C420.349 106.08 420.255 105.467 420.069 105.04C419.882 104.6 419.622 104.293 419.289 104.12C418.969 103.947 418.595 103.86 418.169 103.86C417.409 103.847 416.822 104.093 416.409 104.6C416.009 105.107 415.809 105.833 415.809 106.78H414.949C414.949 105.727 415.102 104.827 415.409 104.08C415.729 103.32 416.175 102.747 416.749 102.36C417.322 101.96 418.002 101.76 418.789 101.76C419.575 101.76 420.255 101.92 420.829 102.24C421.402 102.56 421.835 103.06 422.129 103.74C422.435 104.407 422.589 105.28 422.589 106.36V106.88H420.349ZM424.997 112V102H427.217V112H424.997ZM426.117 100.1C425.757 100.1 425.444 99.9733 425.177 99.72C424.924 99.4533 424.797 99.14 424.797 98.78C424.797 98.42 424.924 98.1133 425.177 97.86C425.444 97.6067 425.757 97.48 426.117 97.48C426.477 97.48 426.784 97.6067 427.037 97.86C427.304 98.1133 427.437 98.42 427.437 98.78C427.437 99.14 427.304 99.4533 427.037 99.72C426.784 99.9733 426.477 100.1 426.117 100.1ZM434.537 112.24C433.511 112.24 432.604 112.02 431.817 111.58C431.031 111.127 430.411 110.507 429.957 109.72C429.517 108.933 429.297 108.027 429.297 107C429.297 105.973 429.517 105.067 429.957 104.28C430.411 103.493 431.024 102.88 431.797 102.44C432.584 101.987 433.484 101.76 434.497 101.76C435.484 101.76 436.377 102 437.177 102.48C437.977 102.947 438.571 103.62 438.957 104.5L436.877 105.3C436.664 104.86 436.337 104.507 435.897 104.24C435.457 103.973 434.957 103.84 434.397 103.84C433.851 103.84 433.364 103.98 432.937 104.26C432.511 104.527 432.177 104.9 431.937 105.38C431.697 105.847 431.577 106.387 431.577 107C431.577 107.613 431.697 108.16 431.937 108.64C432.191 109.107 432.531 109.48 432.957 109.76C433.397 110.027 433.891 110.16 434.437 110.16C434.997 110.16 435.497 110.02 435.937 109.74C436.377 109.447 436.704 109.053 436.917 108.56L438.997 109.36C438.611 110.267 438.017 110.973 437.217 111.48C436.431 111.987 435.537 112.24 434.537 112.24ZM440.756 112V98H442.996V112H440.756ZM447.536 112V106.88H449.776V112H447.536ZM447.536 106.88C447.536 106.08 447.443 105.467 447.256 105.04C447.069 104.6 446.809 104.293 446.476 104.12C446.156 103.947 445.783 103.86 445.356 103.86C444.596 103.847 444.009 104.093 443.596 104.6C443.196 105.107 442.996 105.833 442.996 106.78H442.136C442.136 105.727 442.289 104.827 442.596 104.08C442.916 103.32 443.363 102.747 443.936 102.36C444.509 101.96 445.189 101.76 445.976 101.76C446.763 101.76 447.443 101.92 448.016 102.24C448.589 102.56 449.023 103.06 449.316 103.74C449.623 104.407 449.776 105.28 449.776 106.36V106.88H447.536ZM462.969 112L462.869 110.12V106.86C462.869 106.18 462.796 105.613 462.649 105.16C462.516 104.693 462.289 104.34 461.969 104.1C461.662 103.847 461.249 103.72 460.729 103.72C460.249 103.72 459.829 103.82 459.469 104.02C459.109 104.22 458.802 104.533 458.549 104.96L456.589 104.24C456.802 103.8 457.082 103.393 457.429 103.02C457.789 102.633 458.236 102.327 458.769 102.1C459.316 101.873 459.969 101.76 460.729 101.76C461.702 101.76 462.516 101.953 463.169 102.34C463.822 102.713 464.302 103.253 464.609 103.96C464.929 104.667 465.089 105.52 465.089 106.52L465.029 112H462.969ZM460.089 112.24C458.889 112.24 457.956 111.973 457.289 111.44C456.636 110.907 456.309 110.153 456.309 109.18C456.309 108.14 456.656 107.347 457.349 106.8C458.056 106.253 459.036 105.98 460.289 105.98H462.969V107.7H461.009C460.116 107.7 459.489 107.827 459.129 108.08C458.769 108.32 458.589 108.667 458.589 109.12C458.589 109.507 458.742 109.813 459.049 110.04C459.369 110.253 459.809 110.36 460.369 110.36C460.876 110.36 461.316 110.247 461.689 110.02C462.062 109.793 462.349 109.493 462.549 109.12C462.762 108.747 462.869 108.327 462.869 107.86H463.529C463.529 109.22 463.256 110.293 462.709 111.08C462.162 111.853 461.289 112.24 460.089 112.24ZM472.281 116V102H474.381L474.521 103.84V116H472.281ZM477.681 112.24C476.841 112.24 476.115 112.027 475.501 111.6C474.901 111.16 474.441 110.547 474.121 109.76C473.801 108.973 473.641 108.053 473.641 107C473.641 105.933 473.801 105.013 474.121 104.24C474.441 103.453 474.901 102.847 475.501 102.42C476.115 101.98 476.841 101.76 477.681 101.76C478.588 101.76 479.375 101.98 480.041 102.42C480.721 102.847 481.248 103.453 481.621 104.24C482.008 105.013 482.201 105.933 482.201 107C482.201 108.053 482.008 108.973 481.621 109.76C481.248 110.547 480.721 111.16 480.041 111.6C479.375 112.027 478.588 112.24 477.681 112.24ZM477.121 110.2C477.655 110.2 478.128 110.067 478.541 109.8C478.955 109.52 479.281 109.14 479.521 108.66C479.775 108.18 479.901 107.627 479.901 107C479.901 106.373 479.781 105.82 479.541 105.34C479.315 104.86 478.995 104.487 478.581 104.22C478.168 103.953 477.688 103.82 477.141 103.82C476.635 103.82 476.181 103.953 475.781 104.22C475.381 104.487 475.068 104.86 474.841 105.34C474.628 105.82 474.521 106.373 474.521 107C474.521 107.627 474.628 108.18 474.841 108.66C475.068 109.14 475.375 109.52 475.761 109.8C476.161 110.067 476.615 110.2 477.121 110.2ZM484.115 112V98H486.355V112H484.115ZM494.942 112L494.842 110.12V106.86C494.842 106.18 494.768 105.613 494.622 105.16C494.488 104.693 494.262 104.34 493.942 104.1C493.635 103.847 493.222 103.72 492.702 103.72C492.222 103.72 491.802 103.82 491.442 104.02C491.082 104.22 490.775 104.533 490.522 104.96L488.562 104.24C488.775 103.8 489.055 103.393 489.402 103.02C489.762 102.633 490.208 102.327 490.742 102.1C491.288 101.873 491.942 101.76 492.702 101.76C493.675 101.76 494.488 101.953 495.142 102.34C495.795 102.713 496.275 103.253 496.582 103.96C496.902 104.667 497.062 105.52 497.062 106.52L497.002 112H494.942ZM492.062 112.24C490.862 112.24 489.928 111.973 489.262 111.44C488.608 110.907 488.282 110.153 488.282 109.18C488.282 108.14 488.628 107.347 489.322 106.8C490.028 106.253 491.008 105.98 492.262 105.98H494.942V107.7H492.982C492.088 107.7 491.462 107.827 491.102 108.08C490.742 108.32 490.562 108.667 490.562 109.12C490.562 109.507 490.715 109.813 491.022 110.04C491.342 110.253 491.782 110.36 492.342 110.36C492.848 110.36 493.288 110.247 493.662 110.02C494.035 109.793 494.322 109.493 494.522 109.12C494.735 108.747 494.842 108.327 494.842 107.86H495.502C495.502 109.22 495.228 110.293 494.682 111.08C494.135 111.853 493.262 112.24 492.062 112.24ZM499.33 112V102H501.43L501.57 103.84V112H499.33ZM506.11 112V106.88H508.35V112H506.11ZM506.11 106.88C506.11 106.08 506.017 105.467 505.83 105.04C505.657 104.6 505.403 104.293 505.07 104.12C504.75 103.947 504.37 103.86 503.93 103.86C503.183 103.847 502.603 104.093 502.19 104.6C501.777 105.107 501.57 105.833 501.57 106.78H500.73C500.73 105.727 500.883 104.827 501.19 104.08C501.497 103.32 501.937 102.747 502.51 102.36C503.083 101.96 503.763 101.76 504.55 101.76C505.35 101.76 506.03 101.92 506.59 102.24C507.163 102.56 507.597 103.06 507.89 103.74C508.197 104.407 508.35 105.28 508.35 106.36V106.88H506.11ZM515.079 112.24C514.106 112.24 513.239 112.02 512.479 111.58C511.732 111.127 511.139 110.507 510.699 109.72C510.272 108.933 510.059 108.027 510.059 107C510.059 105.973 510.279 105.067 510.719 104.28C511.159 103.493 511.759 102.88 512.519 102.44C513.292 101.987 514.172 101.76 515.159 101.76C516.052 101.76 516.859 101.993 517.579 102.46C518.299 102.913 518.866 103.573 519.279 104.44C519.706 105.307 519.919 106.34 519.919 107.54H512.059L512.359 107.26C512.359 107.873 512.492 108.407 512.759 108.86C513.026 109.3 513.379 109.64 513.819 109.88C514.259 110.12 514.746 110.24 515.279 110.24C515.892 110.24 516.399 110.107 516.799 109.84C517.199 109.56 517.512 109.2 517.739 108.76L519.719 109.6C519.439 110.133 519.079 110.6 518.639 111C518.212 111.4 517.699 111.707 517.099 111.92C516.512 112.133 515.839 112.24 515.079 112.24ZM512.499 106.1L512.179 105.82H517.819L517.519 106.1C517.519 105.553 517.399 105.107 517.159 104.76C516.919 104.4 516.612 104.133 516.239 103.96C515.879 103.773 515.499 103.68 515.099 103.68C514.699 103.68 514.299 103.773 513.899 103.96C513.499 104.133 513.166 104.4 512.899 104.76C512.632 105.107 512.499 105.553 512.499 106.1ZM525.615 112.24C524.561 112.24 523.755 111.98 523.195 111.46C522.648 110.927 522.375 110.167 522.375 109.18V98.88H524.595V108.76C524.595 109.227 524.701 109.58 524.915 109.82C525.141 110.06 525.468 110.18 525.895 110.18C526.028 110.18 526.175 110.153 526.335 110.1C526.495 110.047 526.675 109.947 526.875 109.8L527.695 111.5C527.348 111.74 527.001 111.92 526.655 112.04C526.308 112.173 525.961 112.24 525.615 112.24ZM520.715 103.92V102H527.295V103.92H520.715ZM538.91 112.24C537.91 112.24 537.017 112.02 536.23 111.58C535.457 111.127 534.85 110.507 534.41 109.72C533.97 108.933 533.75 108.027 533.75 107C533.75 105.973 533.964 105.067 534.39 104.28C534.83 103.493 535.437 102.88 536.21 102.44C536.984 101.987 537.87 101.76 538.87 101.76C539.87 101.76 540.757 101.987 541.53 102.44C542.304 102.88 542.904 103.493 543.33 104.28C543.77 105.067 543.99 105.973 543.99 107C543.99 108.027 543.777 108.933 543.35 109.72C542.924 110.507 542.324 111.127 541.55 111.58C540.777 112.02 539.897 112.24 538.91 112.24ZM538.91 110.18C539.457 110.18 539.944 110.047 540.37 109.78C540.797 109.5 541.13 109.127 541.37 108.66C541.61 108.18 541.73 107.627 541.73 107C541.73 106.373 541.604 105.827 541.35 105.36C541.11 104.88 540.777 104.507 540.35 104.24C539.924 103.96 539.43 103.82 538.87 103.82C538.31 103.82 537.817 103.953 537.39 104.22C536.964 104.487 536.63 104.86 536.39 105.34C536.15 105.82 536.03 106.373 536.03 107C536.03 107.627 536.15 108.18 536.39 108.66C536.644 109.127 536.984 109.5 537.41 109.78C537.85 110.047 538.35 110.18 538.91 110.18ZM547.411 106.68C547.411 105.6 547.618 104.713 548.031 104.02C548.445 103.327 548.978 102.813 549.631 102.48C550.298 102.133 550.991 101.96 551.711 101.96V104.1C551.098 104.1 550.518 104.187 549.971 104.36C549.438 104.52 549.005 104.787 548.671 105.16C548.338 105.533 548.171 106.027 548.171 106.64L547.411 106.68ZM545.931 112V102H548.171V112H545.931ZM562.621 112.24C561.621 112.24 560.728 112.02 559.941 111.58C559.168 111.127 558.561 110.507 558.121 109.72C557.681 108.933 557.461 108.027 557.461 107C557.461 105.973 557.675 105.067 558.101 104.28C558.541 103.493 559.148 102.88 559.921 102.44C560.695 101.987 561.581 101.76 562.581 101.76C563.581 101.76 564.468 101.987 565.241 102.44C566.015 102.88 566.615 103.493 567.041 104.28C567.481 105.067 567.701 105.973 567.701 107C567.701 108.027 567.488 108.933 567.061 109.72C566.635 110.507 566.035 111.127 565.261 111.58C564.488 112.02 563.608 112.24 562.621 112.24ZM562.621 110.18C563.168 110.18 563.655 110.047 564.081 109.78C564.508 109.5 564.841 109.127 565.081 108.66C565.321 108.18 565.441 107.627 565.441 107C565.441 106.373 565.315 105.827 565.061 105.36C564.821 104.88 564.488 104.507 564.061 104.24C563.635 103.96 563.141 103.82 562.581 103.82C562.021 103.82 561.528 103.953 561.101 104.22C560.675 104.487 560.341 104.86 560.101 105.34C559.861 105.82 559.741 106.373 559.741 107C559.741 107.627 559.861 108.18 560.101 108.66C560.355 109.127 560.695 109.5 561.121 109.78C561.561 110.047 562.061 110.18 562.621 110.18ZM573.622 112.24C572.569 112.24 571.762 111.98 571.202 111.46C570.656 110.927 570.382 110.167 570.382 109.18V98.88H572.602V108.76C572.602 109.227 572.709 109.58 572.922 109.82C573.149 110.06 573.476 110.18 573.902 110.18C574.036 110.18 574.182 110.153 574.342 110.1C574.502 110.047 574.682 109.947 574.882 109.8L575.702 111.5C575.356 111.74 575.009 111.92 574.662 112.04C574.316 112.173 573.969 112.24 573.622 112.24ZM568.722 103.92V102H575.302V103.92H568.722ZM577.514 112V98H579.754V112H577.514ZM584.294 112V106.88H586.534V112H584.294ZM584.294 106.88C584.294 106.08 584.201 105.467 584.014 105.04C583.827 104.6 583.567 104.293 583.234 104.12C582.914 103.947 582.541 103.86 582.114 103.86C581.354 103.847 580.767 104.093 580.354 104.6C579.954 105.107 579.754 105.833 579.754 106.78H578.894C578.894 105.727 579.047 104.827 579.354 104.08C579.674 103.32 580.121 102.747 580.694 102.36C581.267 101.96 581.947 101.76 582.734 101.76C583.521 101.76 584.201 101.92 584.774 102.24C585.347 102.56 585.781 103.06 586.074 103.74C586.381 104.407 586.534 105.28 586.534 106.36V106.88H584.294ZM593.263 112.24C592.289 112.24 591.423 112.02 590.663 111.58C589.916 111.127 589.323 110.507 588.882 109.72C588.456 108.933 588.243 108.027 588.243 107C588.243 105.973 588.463 105.067 588.903 104.28C589.343 103.493 589.943 102.88 590.703 102.44C591.476 101.987 592.356 101.76 593.343 101.76C594.236 101.76 595.043 101.993 595.763 102.46C596.483 102.913 597.049 103.573 597.463 104.44C597.889 105.307 598.103 106.34 598.103 107.54H590.243L590.543 107.26C590.543 107.873 590.676 108.407 590.943 108.86C591.209 109.3 591.563 109.64 592.003 109.88C592.443 110.12 592.929 110.24 593.463 110.24C594.076 110.24 594.583 110.107 594.983 109.84C595.383 109.56 595.696 109.2 595.923 108.76L597.903 109.6C597.623 110.133 597.263 110.6 596.823 111C596.396 111.4 595.883 111.707 595.283 111.92C594.696 112.133 594.023 112.24 593.263 112.24ZM590.683 106.1L590.363 105.82H596.003L595.703 106.1C595.703 105.553 595.583 105.107 595.343 104.76C595.103 104.4 594.796 104.133 594.423 103.96C594.063 103.773 593.683 103.68 593.283 103.68C592.883 103.68 592.483 103.773 592.083 103.96C591.683 104.133 591.349 104.4 591.083 104.76C590.816 105.107 590.683 105.553 590.683 106.1ZM601.298 106.68C601.298 105.6 601.505 104.713 601.918 104.02C602.331 103.327 602.865 102.813 603.518 102.48C604.185 102.133 604.878 101.96 605.598 101.96V104.1C604.985 104.1 604.405 104.187 603.858 104.36C603.325 104.52 602.891 104.787 602.558 105.16C602.225 105.533 602.058 106.027 602.058 106.64L601.298 106.68ZM599.818 112V102H602.058V112H599.818ZM608.164 112.28C607.777 112.28 607.444 112.147 607.164 111.88C606.897 111.6 606.764 111.267 606.764 110.88C606.764 110.493 606.897 110.16 607.164 109.88C607.444 109.6 607.777 109.46 608.164 109.46C608.55 109.46 608.884 109.6 609.164 109.88C609.444 110.16 609.584 110.493 609.584 110.88C609.584 111.267 609.444 111.6 609.164 111.88C608.884 112.147 608.55 112.28 608.164 112.28ZM612.812 112.28C612.426 112.28 612.092 112.147 611.812 111.88C611.546 111.6 611.412 111.267 611.412 110.88C611.412 110.493 611.546 110.16 611.812 109.88C612.092 109.6 612.426 109.46 612.812 109.46C613.199 109.46 613.532 109.6 613.812 109.88C614.092 110.16 614.232 110.493 614.232 110.88C614.232 111.267 614.092 111.6 613.812 111.88C613.532 112.147 613.199 112.28 612.812 112.28ZM617.461 112.28C617.074 112.28 616.741 112.147 616.461 111.88C616.194 111.6 616.061 111.267 616.061 110.88C616.061 110.493 616.194 110.16 616.461 109.88C616.741 109.6 617.074 109.46 617.461 109.46C617.847 109.46 618.181 109.6 618.461 109.88C618.741 110.16 618.881 110.493 618.881 110.88C618.881 111.267 618.741 111.6 618.461 111.88C618.181 112.147 617.847 112.28 617.461 112.28Z" fill="#A397BF"/>
<path d="M298.799 11L373.997 77.7373V349.555H113V11H298.799Z" fill="white" stroke="#B4A4CA" stroke-width="8"/>
<g filter="url(#filter0_d_1_784)">
<path d="M377.999 78.2521H297.232C296.68 78.2521 296.232 77.8044 296.232 77.2521V7L377.999 78.2521Z" fill="#B4A4CA"/>
<path d="M367.32 74.252H300.232V15.791L367.32 74.252Z" stroke="#B4A4CA" stroke-width="8"/>
</g>
<path d="M162 187H323.163" stroke="#B4A4CA" stroke-width="5" stroke-linecap="round"/>
<path d="M164.695 219.609H325.858" stroke="#B4A4CA" stroke-width="5" stroke-linecap="round"/>
<path d="M163.512 250.633H324.674" stroke="#B4A4CA" stroke-width="5" stroke-linecap="round"/>
<rect x="155.531" y="111.93" width="174.753" height="39.5214" rx="4.5" fill="#6A37EF" fill-opacity="0.13" stroke="#8160B0" stroke-width="3" stroke-dasharray="8 8"/>
<path d="M182.08 138L186.2 124H188.56L184.32 138H182.08ZM173.6 138L169.42 124H171.76L175.86 138H173.6ZM173.9 138L177.84 124H179.98L176.06 138H173.9ZM181.86 138L178 124H180.14L184.12 138H181.86ZM189.992 138V124H192.232V138H189.992ZM196.772 138V132.88H199.012V138H196.772ZM196.772 132.88C196.772 132.08 196.679 131.467 196.492 131.04C196.306 130.6 196.046 130.293 195.712 130.12C195.392 129.947 195.019 129.86 194.592 129.86C193.832 129.847 193.246 130.093 192.832 130.6C192.432 131.107 192.232 131.833 192.232 132.78H191.372C191.372 131.727 191.526 130.827 191.832 130.08C192.152 129.32 192.599 128.747 193.172 128.36C193.746 127.96 194.426 127.76 195.212 127.76C195.999 127.76 196.679 127.92 197.252 128.24C197.826 128.56 198.259 129.06 198.552 129.74C198.859 130.407 199.012 131.28 199.012 132.36V132.88H196.772ZM207.381 138L207.281 136.12V132.86C207.281 132.18 207.208 131.613 207.061 131.16C206.928 130.693 206.701 130.34 206.381 130.1C206.074 129.847 205.661 129.72 205.141 129.72C204.661 129.72 204.241 129.82 203.881 130.02C203.521 130.22 203.214 130.533 202.961 130.96L201.001 130.24C201.214 129.8 201.494 129.393 201.841 129.02C202.201 128.633 202.648 128.327 203.181 128.1C203.728 127.873 204.381 127.76 205.141 127.76C206.114 127.76 206.928 127.953 207.581 128.34C208.234 128.713 208.714 129.253 209.021 129.96C209.341 130.667 209.501 131.52 209.501 132.52L209.441 138H207.381ZM204.501 138.24C203.301 138.24 202.368 137.973 201.701 137.44C201.048 136.907 200.721 136.153 200.721 135.18C200.721 134.14 201.068 133.347 201.761 132.8C202.468 132.253 203.448 131.98 204.701 131.98H207.381V133.7H205.421C204.528 133.7 203.901 133.827 203.541 134.08C203.181 134.32 203.001 134.667 203.001 135.12C203.001 135.507 203.154 135.813 203.461 136.04C203.781 136.253 204.221 136.36 204.781 136.36C205.288 136.36 205.728 136.247 206.101 136.02C206.474 135.793 206.761 135.493 206.961 135.12C207.174 134.747 207.281 134.327 207.281 133.86H207.941C207.941 135.22 207.668 136.293 207.121 137.08C206.574 137.853 205.701 138.24 204.501 138.24ZM215.749 138.24C214.696 138.24 213.889 137.98 213.329 137.46C212.783 136.927 212.509 136.167 212.509 135.18V124.88H214.729V134.76C214.729 135.227 214.836 135.58 215.049 135.82C215.276 136.06 215.603 136.18 216.029 136.18C216.163 136.18 216.309 136.153 216.469 136.1C216.629 136.047 216.809 135.947 217.009 135.8L217.829 137.5C217.483 137.74 217.136 137.92 216.789 138.04C216.443 138.173 216.096 138.24 215.749 138.24ZM210.849 129.92V128H217.429V129.92H210.849ZM224.585 138V128H226.805V138H224.585ZM225.705 126.1C225.345 126.1 225.032 125.973 224.765 125.72C224.512 125.453 224.385 125.14 224.385 124.78C224.385 124.42 224.512 124.113 224.765 123.86C225.032 123.607 225.345 123.48 225.705 123.48C226.065 123.48 226.372 123.607 226.625 123.86C226.892 124.113 227.025 124.42 227.025 124.78C227.025 125.14 226.892 125.453 226.625 125.72C226.372 125.973 226.065 126.1 225.705 126.1ZM233.085 138.24C232.418 138.24 231.805 138.14 231.245 137.94C230.685 137.74 230.205 137.46 229.805 137.1C229.405 136.727 229.098 136.293 228.885 135.8L230.825 134.94C231.025 135.313 231.318 135.627 231.705 135.88C232.105 136.133 232.545 136.26 233.025 136.26C233.545 136.26 233.958 136.173 234.265 136C234.585 135.813 234.745 135.56 234.745 135.24C234.745 134.933 234.625 134.7 234.385 134.54C234.145 134.367 233.805 134.227 233.365 134.12L232.425 133.86C231.478 133.62 230.738 133.24 230.205 132.72C229.672 132.187 229.405 131.58 229.405 130.9C229.405 129.9 229.725 129.127 230.365 128.58C231.018 128.033 231.952 127.76 233.165 127.76C233.778 127.76 234.338 127.853 234.845 128.04C235.365 128.213 235.812 128.467 236.185 128.8C236.558 129.12 236.818 129.5 236.965 129.94L235.105 130.78C234.972 130.447 234.718 130.193 234.345 130.02C233.972 129.833 233.558 129.74 233.105 129.74C232.652 129.74 232.298 129.84 232.045 130.04C231.792 130.227 231.665 130.493 231.665 130.84C231.665 131.04 231.778 131.227 232.005 131.4C232.232 131.56 232.558 131.693 232.985 131.8L234.165 132.08C234.818 132.24 235.352 132.493 235.765 132.84C236.178 133.173 236.485 133.553 236.685 133.98C236.885 134.393 236.985 134.813 236.985 135.24C236.985 135.84 236.812 136.367 236.465 136.82C236.132 137.273 235.672 137.627 235.085 137.88C234.498 138.12 233.832 138.24 233.085 138.24ZM247.886 142.26C247.179 142.26 246.539 142.2 245.966 142.08C245.406 141.96 244.932 141.82 244.546 141.66C244.159 141.5 243.859 141.347 243.646 141.2L244.506 139.4C244.692 139.493 244.939 139.607 245.246 139.74C245.566 139.887 245.939 140.013 246.366 140.12C246.792 140.227 247.272 140.28 247.806 140.28C248.379 140.28 248.892 140.16 249.346 139.92C249.799 139.693 250.152 139.34 250.406 138.86C250.659 138.38 250.786 137.767 250.786 137.02V128H253.026V136.96C253.026 138.093 252.812 139.053 252.386 139.84C251.959 140.64 251.359 141.24 250.586 141.64C249.812 142.053 248.912 142.26 247.886 142.26ZM247.546 137.8C246.639 137.8 245.846 137.593 245.166 137.18C244.499 136.767 243.972 136.193 243.586 135.46C243.212 134.713 243.026 133.853 243.026 132.88C243.026 131.84 243.212 130.94 243.586 130.18C243.972 129.42 244.499 128.827 245.166 128.4C245.846 127.973 246.639 127.76 247.546 127.76C248.359 127.76 249.066 127.973 249.666 128.4C250.279 128.827 250.752 129.427 251.086 130.2C251.419 130.96 251.586 131.86 251.586 132.9C251.586 133.887 251.419 134.747 251.086 135.48C250.752 136.213 250.279 136.787 249.666 137.2C249.066 137.6 248.359 137.8 247.546 137.8ZM248.166 135.9C248.672 135.9 249.112 135.767 249.486 135.5C249.872 135.233 250.172 134.873 250.386 134.42C250.599 133.953 250.706 133.42 250.706 132.82C250.706 132.207 250.599 131.673 250.386 131.22C250.172 130.753 249.872 130.393 249.486 130.14C249.099 129.873 248.652 129.74 248.146 129.74C247.612 129.74 247.139 129.873 246.726 130.14C246.326 130.393 246.006 130.753 245.766 131.22C245.539 131.673 245.426 132.207 245.426 132.82C245.426 133.42 245.539 133.953 245.766 134.42C246.006 134.873 246.332 135.233 246.746 135.5C247.159 135.767 247.632 135.9 248.166 135.9ZM256.98 132.68C256.98 131.6 257.186 130.713 257.6 130.02C258.013 129.327 258.546 128.813 259.2 128.48C259.866 128.133 260.56 127.96 261.28 127.96V130.1C260.666 130.1 260.086 130.187 259.54 130.36C259.006 130.52 258.573 130.787 258.24 131.16C257.906 131.533 257.74 132.027 257.74 132.64L256.98 132.68ZM255.5 138V128H257.74V138H255.5ZM268.865 138L268.765 136.12V132.86C268.765 132.18 268.692 131.613 268.545 131.16C268.412 130.693 268.185 130.34 267.865 130.1C267.559 129.847 267.145 129.72 266.625 129.72C266.145 129.72 265.725 129.82 265.365 130.02C265.005 130.22 264.699 130.533 264.445 130.96L262.485 130.24C262.699 129.8 262.979 129.393 263.325 129.02C263.685 128.633 264.132 128.327 264.665 128.1C265.212 127.873 265.865 127.76 266.625 127.76C267.599 127.76 268.412 127.953 269.065 128.34C269.719 128.713 270.199 129.253 270.505 129.96C270.825 130.667 270.985 131.52 270.985 132.52L270.925 138H268.865ZM265.985 138.24C264.785 138.24 263.852 137.973 263.185 137.44C262.532 136.907 262.205 136.153 262.205 135.18C262.205 134.14 262.552 133.347 263.245 132.8C263.952 132.253 264.932 131.98 266.185 131.98H268.865V133.7H266.905C266.012 133.7 265.385 133.827 265.025 134.08C264.665 134.32 264.485 134.667 264.485 135.12C264.485 135.507 264.639 135.813 264.945 136.04C265.265 136.253 265.705 136.36 266.265 136.36C266.772 136.36 267.212 136.247 267.585 136.02C267.959 135.793 268.245 135.493 268.445 135.12C268.659 134.747 268.765 134.327 268.765 133.86H269.425C269.425 135.22 269.152 136.293 268.605 137.08C268.059 137.853 267.185 138.24 265.985 138.24ZM276.239 138L280.139 128H282.459L278.339 138H276.239ZM276.079 138L271.939 128H274.239L278.159 138H276.079ZM283.999 138V128H286.219V138H283.999ZM285.119 126.1C284.759 126.1 284.446 125.973 284.179 125.72C283.926 125.453 283.799 125.14 283.799 124.78C283.799 124.42 283.926 124.113 284.179 123.86C284.446 123.607 284.759 123.48 285.119 123.48C285.479 123.48 285.786 123.607 286.039 123.86C286.306 124.113 286.439 124.42 286.439 124.78C286.439 125.14 286.306 125.453 286.039 125.72C285.786 125.973 285.479 126.1 285.119 126.1ZM292.839 138.24C291.786 138.24 290.979 137.98 290.419 137.46C289.872 136.927 289.599 136.167 289.599 135.18V124.88H291.819V134.76C291.819 135.227 291.926 135.58 292.139 135.82C292.366 136.06 292.692 136.18 293.119 136.18C293.252 136.18 293.399 136.153 293.559 136.1C293.719 136.047 293.899 135.947 294.099 135.8L294.919 137.5C294.572 137.74 294.226 137.92 293.879 138.04C293.532 138.173 293.186 138.24 292.839 138.24ZM287.939 129.92V128H294.519V129.92H287.939ZM298.291 142.24C297.971 142.24 297.611 142.18 297.211 142.06C296.824 141.94 296.451 141.787 296.091 141.6L296.931 139.78C297.184 139.9 297.417 139.993 297.631 140.06C297.844 140.14 298.017 140.18 298.151 140.18C298.471 140.18 298.737 140.093 298.951 139.92C299.177 139.76 299.357 139.52 299.491 139.2L300.671 136.44L304.051 128H306.491L301.851 139.06C301.571 139.7 301.284 140.26 300.991 140.74C300.711 141.22 300.357 141.587 299.931 141.84C299.504 142.107 298.957 142.24 298.291 142.24ZM300.071 138L295.591 128H298.031L301.511 136.42L302.231 138H300.071ZM309.944 134.08L309.884 130.54L311.184 130.46C311.944 130.433 312.571 130.22 313.064 129.82C313.557 129.407 313.804 128.827 313.804 128.08C313.804 127.413 313.571 126.867 313.104 126.44C312.651 126.013 312.057 125.8 311.324 125.8C310.804 125.8 310.351 125.927 309.964 126.18C309.577 126.433 309.311 126.747 309.164 127.12L307.104 126.52C307.371 125.693 307.871 125.027 308.604 124.52C309.351 124.013 310.257 123.76 311.324 123.76C312.231 123.76 313.031 123.947 313.724 124.32C314.431 124.68 314.984 125.187 315.384 125.84C315.784 126.48 315.984 127.227 315.984 128.08C315.984 128.8 315.824 129.447 315.504 130.02C315.184 130.593 314.731 131.053 314.144 131.4C313.571 131.747 312.904 131.96 312.144 132.04L312.104 134.08H309.944ZM311.024 138.28C310.624 138.28 310.284 138.147 310.004 137.88C309.737 137.6 309.604 137.267 309.604 136.88C309.604 136.48 309.737 136.147 310.004 135.88C310.284 135.6 310.624 135.46 311.024 135.46C311.411 135.46 311.737 135.6 312.004 135.88C312.284 136.147 312.424 136.48 312.424 136.88C312.424 137.267 312.284 137.6 312.004 137.88C311.737 138.147 311.411 138.28 311.024 138.28Z" fill="#3C227E"/>
<path d="M373.33 194.843L376.705 191.121C377.002 190.794 377.231 190.414 377.376 190.001C377.522 189.588 377.582 189.152 377.553 188.716C377.524 188.281 377.407 187.856 377.208 187.464C377.009 187.073 376.733 186.724 376.395 186.436L359.286 171.846L373.19 165.659L373.281 165.617C374.071 165.229 374.724 164.624 375.162 163.878C375.599 163.132 375.8 162.277 375.74 161.421L375.726 161.206C375.628 160.316 375.251 159.476 374.645 158.8C374.039 158.125 373.233 157.646 372.337 157.429L325.891 145.856C325.078 145.653 324.223 145.672 323.421 145.912C322.619 146.151 321.901 146.601 321.346 147.213C320.792 147.824 320.423 148.572 320.281 149.374C320.139 150.177 320.228 151.001 320.54 151.757L338.315 194.951C338.662 195.776 339.258 196.48 340.024 196.971C340.791 197.462 341.693 197.716 342.611 197.701C343.53 197.686 344.422 197.403 345.172 196.887C345.921 196.371 346.492 195.648 346.81 194.812L346.841 194.719L351.402 180.554L368.507 195.144C369.188 195.724 370.078 196.018 370.983 195.962C371.887 195.906 372.732 195.503 373.33 194.843Z" fill="#8160B0"/>
<rect x="86" y="230" width="173" height="77" rx="8" transform="rotate(180 86 230)" fill="#ECE5FD"/>
<rect x="82" y="226" width="165" height="69" rx="4" transform="rotate(180 82 226)" stroke="#D1C5E1" stroke-opacity="0.53" stroke-width="8" stroke-dasharray="16 16"/>
<defs>
<filter id="filter0_d_1_784" x="293.232" y="6" width="85.7664" height="75.252" filterUnits="userSpaceOnUse" color-interpolation-filters="sRGB">
<feFlood flood-opacity="0" result="BackgroundImageFix"/>
<feColorMatrix in="SourceAlpha" type="matrix" values="0 0 0 0 0 0 0 0 0 0 0 0 0 0 0 0 0 0 127 0" result="hardAlpha"/>
<feOffset dx="-1" dy="1"/>
<feGaussianBlur stdDeviation="1"/>
<feComposite in2="hardAlpha" operator="out"/>
<feColorMatrix type="matrix" values="0 0 0 0 0 0 0 0 0 0 0 0 0 0 0 0 0 0 0.2 0"/>
<feBlend mode="normal" in2="BackgroundImageFix" result="effect1_dropShadow_1_784"/>
<feBlend mode="normal" in="SourceGraphic" in2="effect1_dropShadow_1_784" result="shape"/>
</filter>
</defs>
</svg>
