<svg width="24" height="24" viewBox="0 0 24 24" fill="none" xmlns="http://www.w3.org/2000/svg">
<path d="M22.2949 12.7257C22.646 12.3742 22.8433 11.8976 22.8433 11.4007C22.8433 10.9039 22.646 10.4273 22.2949 10.0757L15.2249 3.00199C14.8732 2.65024 14.3961 2.45264 13.8987 2.45264C13.4012 2.45264 12.9242 2.65024 12.5724 3.00199C12.2207 3.35373 12.0231 3.8308 12.0231 4.32824C12.0231 4.82568 12.2207 5.30274 12.5724 5.65449L16.4424 9.52574H2.02366C1.52638 9.52574 1.04947 9.72328 0.697834 10.0749C0.346203 10.4265 0.148657 10.9035 0.148657 11.4007C0.148657 11.898 0.346203 12.3749 0.697834 12.7266C1.04947 13.0782 1.52638 13.2757 2.02366 13.2757L16.4424 13.2757L12.5724 17.1457C12.3982 17.3199 12.2601 17.5267 12.1658 17.7542C12.0716 17.9818 12.0231 18.2257 12.0231 18.472C12.0231 18.7183 12.0716 18.9622 12.1658 19.1897C12.2601 19.4173 12.3982 19.6241 12.5724 19.7982C12.7466 19.9724 12.9533 20.1106 13.1809 20.2048C13.4085 20.2991 13.6524 20.3476 13.8987 20.3476C14.145 20.3476 14.3889 20.2991 14.6164 20.2048C14.844 20.1106 15.0507 19.9724 15.2249 19.7982L22.2949 12.7257Z" fill="#FFFFFF"/>
</svg>
