<svg width="12" height="12" viewBox="0 0 12 12" fill="none" xmlns="http://www.w3.org/2000/svg">
<path opacity="0.2" d="M10.875 3.75V9.375H7.5C7.10218 9.375 6.72064 9.53304 6.43934 9.81434C6.15804 10.0956 6 10.4772 6 10.875C6 10.4772 5.84196 10.0956 5.56066 9.81434C5.27936 9.53304 4.89782 9.375 4.5 9.375H1.125V3.75H4.5C4.89782 3.75 5.27936 3.90804 5.56066 4.18934C5.84196 4.47064 6 4.85218 6 5.25C6 4.85218 6.15804 4.47064 6.43934 4.18934C6.72064 3.90804 7.10218 3.75 7.5 3.75H10.875Z" fill="#4B99CC"/>
<path d="M10.875 3.37498H7.5C7.20892 3.37498 6.92183 3.44275 6.66147 3.57293C6.40112 3.70311 6.17465 3.89211 6 4.12498C5.82535 3.89211 5.59888 3.70311 5.33853 3.57293C5.07817 3.44275 4.79108 3.37498 4.5 3.37498H1.125C1.02554 3.37498 0.930161 3.41449 0.859835 3.48482C0.789509 3.55514 0.75 3.65052 0.75 3.74998V9.37498C0.75 9.47444 0.789509 9.56982 0.859835 9.64015C0.930161 9.71047 1.02554 9.74998 1.125 9.74998H4.5C4.79837 9.74998 5.08452 9.86851 5.2955 10.0795C5.50647 10.2905 5.625 10.5766 5.625 10.875C5.625 10.9744 5.66451 11.0698 5.73484 11.1401C5.80516 11.2105 5.90054 11.25 6 11.25C6.09946 11.25 6.19484 11.2105 6.26517 11.1401C6.33549 11.0698 6.375 10.9744 6.375 10.875C6.375 10.5766 6.49353 10.2905 6.7045 10.0795C6.91548 9.86851 7.20163 9.74998 7.5 9.74998H10.875C10.9745 9.74998 11.0698 9.71047 11.1402 9.64015C11.2105 9.56982 11.25 9.47444 11.25 9.37498V3.74998C11.25 3.65052 11.2105 3.55514 11.1402 3.48482C11.0698 3.41449 10.9745 3.37498 10.875 3.37498ZM4.5 8.99998H1.5V4.12498H4.5C4.79837 4.12498 5.08452 4.24351 5.2955 4.45449C5.50647 4.66546 5.625 4.95161 5.625 5.24998V9.37498C5.30076 9.13095 4.9058 8.9993 4.5 8.99998ZM10.5 8.99998H7.5C7.0942 8.9993 6.69924 9.13095 6.375 9.37498V5.24998C6.375 4.95161 6.49353 4.66546 6.7045 4.45449C6.91548 4.24351 7.20163 4.12498 7.5 4.12498H10.5V8.99998ZM4.2 2.02451C4.40958 1.74507 4.68134 1.51826 4.99377 1.36205C5.30619 1.20584 5.6507 1.12451 6 1.12451C6.3493 1.12451 6.69381 1.20584 7.00623 1.36205C7.31866 1.51826 7.59042 1.74507 7.8 2.02451C7.8598 2.10401 7.88556 2.20402 7.87163 2.30252C7.8577 2.40102 7.80521 2.48995 7.7257 2.54975C7.6462 2.60954 7.5462 2.63531 7.4477 2.62138C7.3492 2.60744 7.26027 2.55495 7.20047 2.47545C7.06077 2.28898 6.87954 2.13761 6.67117 2.03336C6.4628 1.9291 6.233 1.87482 6 1.87482C5.767 1.87482 5.5372 1.9291 5.32883 2.03336C5.12046 2.13761 4.93923 2.28898 4.79953 2.47545C4.76992 2.51482 4.73285 2.54796 4.69043 2.573C4.64801 2.59804 4.60107 2.61448 4.5523 2.62138C4.50353 2.62828 4.45388 2.6255 4.40617 2.61321C4.35847 2.60092 4.31366 2.57936 4.2743 2.54975C4.23493 2.52014 4.20178 2.48306 4.17674 2.44064C4.15171 2.39822 4.13527 2.35129 4.12837 2.30252C4.12147 2.25374 4.12424 2.20409 4.13654 2.15639C4.14883 2.10869 4.17039 2.06388 4.2 2.02451Z" fill="#4B99CC"/>
</svg>
