<svg width="13" height="12" viewBox="0 0 13 12" fill="none" xmlns="http://www.w3.org/2000/svg">
<path opacity="0.2" d="M11.0352 4.875V9.375C11.0352 9.47446 10.9956 9.56984 10.9253 9.64017C10.855 9.71049 10.7596 9.75 10.6602 9.75H3.16016C3.0607 9.75 2.96532 9.71049 2.89499 9.64017C2.82467 9.56984 2.78516 9.47446 2.78516 9.375V4.875C2.78516 4.77554 2.82467 4.68016 2.89499 4.60984C2.96532 4.53951 3.0607 4.5 3.16016 4.5H10.6602C10.7596 4.5 10.855 4.53951 10.9253 4.60984C10.9956 4.68016 11.0352 4.77554 11.0352 4.875Z" fill="#9194C4"/>
<path d="M10.6602 4.125H3.16016C2.96124 4.125 2.77048 4.20402 2.62983 4.34467C2.48917 4.48532 2.41016 4.67609 2.41016 4.875V9.375C2.41016 9.57391 2.48917 9.76468 2.62983 9.90533C2.77048 10.046 2.96124 10.125 3.16016 10.125H10.6602C10.8591 10.125 11.0498 10.046 11.1905 9.90533C11.3311 9.76468 11.4102 9.57391 11.4102 9.375V4.875C11.4102 4.67609 11.3311 4.48532 11.1905 4.34467C11.0498 4.20402 10.8591 4.125 10.6602 4.125ZM10.6602 9.375H3.16016V4.875H10.6602V9.375ZM3.16016 3C3.16016 2.90054 3.19967 2.80516 3.26999 2.73484C3.34032 2.66451 3.4357 2.625 3.53516 2.625H10.2852C10.3846 2.625 10.48 2.66451 10.5503 2.73484C10.6206 2.80516 10.6602 2.90054 10.6602 3C10.6602 3.09946 10.6206 3.19484 10.5503 3.26516C10.48 3.33549 10.3846 3.375 10.2852 3.375H3.53516C3.4357 3.375 3.34032 3.33549 3.26999 3.26516C3.19967 3.19484 3.16016 3.09946 3.16016 3ZM3.91016 1.5C3.91016 1.40054 3.94967 1.30516 4.01999 1.23483C4.09032 1.16451 4.1857 1.125 4.28516 1.125H9.53516C9.63461 1.125 9.73 1.16451 9.80032 1.23483C9.87065 1.30516 9.91016 1.40054 9.91016 1.5C9.91016 1.59946 9.87065 1.69484 9.80032 1.76516C9.73 1.83549 9.63461 1.875 9.53516 1.875H4.28516C4.1857 1.875 4.09032 1.83549 4.01999 1.76516C3.94967 1.69484 3.91016 1.59946 3.91016 1.5Z" fill="#9194C4"/>
</svg>
