<svg width="100" height="58" viewBox="0 0 100 58" fill="none" xmlns="http://www.w3.org/2000/svg">
<rect x="2.5" y="2.5" width="100" height="53" rx="12.5" stroke="#E3CEEB" stroke-width="5"/>
<path d="M34.632 37.5L28.08 20.7H30.864L37.584 37.5H34.632ZM21.216 37.5L27.912 20.7H30.72L24.168 37.5H21.216ZM24.36 33.372V30.9H34.416V33.372H24.36ZM44.2183 42.612C43.3703 42.612 42.6023 42.54 41.9143 42.396C41.2423 42.252 40.6743 42.084 40.2103 41.892C39.7463 41.7 39.3863 41.516 39.1303 41.34L40.1623 39.18C40.3863 39.292 40.6823 39.428 41.0503 39.588C41.4343 39.764 41.8823 39.916 42.3943 40.044C42.9063 40.172 43.4823 40.236 44.1223 40.236C44.8103 40.236 45.4263 40.092 45.9703 39.804C46.5143 39.532 46.9383 39.108 47.2423 38.532C47.5463 37.956 47.6983 37.22 47.6983 36.324V25.5H50.3863V36.252C50.3863 37.612 50.1303 38.764 49.6183 39.708C49.1063 40.668 48.3863 41.388 47.4583 41.868C46.5303 42.364 45.4503 42.612 44.2183 42.612ZM43.8103 37.26C42.7223 37.26 41.7703 37.012 40.9543 36.516C40.1543 36.02 39.5223 35.332 39.0583 34.452C38.6103 33.556 38.3863 32.524 38.3863 31.356C38.3863 30.108 38.6103 29.028 39.0583 28.116C39.5223 27.204 40.1543 26.492 40.9543 25.98C41.7703 25.468 42.7223 25.212 43.8103 25.212C44.7863 25.212 45.6343 25.468 46.3543 25.98C47.0903 26.492 47.6583 27.212 48.0583 28.14C48.4583 29.052 48.6583 30.132 48.6583 31.38C48.6583 32.564 48.4583 33.596 48.0583 34.476C47.6583 35.356 47.0903 36.044 46.3543 36.54C45.6343 37.02 44.7863 37.26 43.8103 37.26ZM44.5543 34.98C45.1623 34.98 45.6903 34.82 46.1383 34.5C46.6023 34.18 46.9623 33.748 47.2183 33.204C47.4743 32.644 47.6023 32.004 47.6023 31.284C47.6023 30.548 47.4743 29.908 47.2183 29.364C46.9623 28.804 46.6023 28.372 46.1383 28.068C45.6743 27.748 45.1383 27.588 44.5303 27.588C43.8903 27.588 43.3223 27.748 42.8263 28.068C42.3463 28.372 41.9623 28.804 41.6743 29.364C41.4023 29.908 41.2663 30.548 41.2663 31.284C41.2663 32.004 41.4023 32.644 41.6743 33.204C41.9623 33.748 42.3543 34.18 42.8503 34.5C43.3463 34.82 43.9143 34.98 44.5543 34.98ZM60.6752 37.5L60.5552 35.244V31.332C60.5552 30.516 60.4672 29.836 60.2912 29.292C60.1312 28.732 59.8592 28.308 59.4752 28.02C59.1072 27.716 58.6112 27.564 57.9872 27.564C57.4112 27.564 56.9072 27.684 56.4752 27.924C56.0432 28.164 55.6752 28.54 55.3712 29.052L53.0192 28.188C53.2752 27.66 53.6112 27.172 54.0272 26.724C54.4592 26.26 54.9952 25.892 55.6352 25.62C56.2912 25.348 57.0752 25.212 57.9872 25.212C59.1552 25.212 60.1312 25.444 60.9152 25.908C61.6992 26.356 62.2752 27.004 62.6432 27.852C63.0272 28.7 63.2192 29.724 63.2192 30.924L63.1472 37.5H60.6752ZM57.2192 37.788C55.7792 37.788 54.6592 37.468 53.8592 36.828C53.0752 36.188 52.6832 35.284 52.6832 34.116C52.6832 32.868 53.0992 31.916 53.9312 31.26C54.7792 30.604 55.9552 30.276 57.4592 30.276H60.6752V32.34H58.3232C57.2512 32.34 56.4992 32.492 56.0672 32.796C55.6352 33.084 55.4192 33.5 55.4192 34.044C55.4192 34.508 55.6032 34.876 55.9712 35.148C56.3552 35.404 56.8832 35.532 57.5552 35.532C58.1632 35.532 58.6912 35.396 59.1392 35.124C59.5872 34.852 59.9312 34.492 60.1712 34.044C60.4272 33.596 60.5552 33.092 60.5552 32.532H61.3472C61.3472 34.164 61.0192 35.452 60.3632 36.396C59.7072 37.324 58.6592 37.788 57.2192 37.788ZM66.1091 37.5V25.5H68.7731V37.5H66.1091ZM67.4531 23.22C67.0211 23.22 66.6451 23.068 66.3251 22.764C66.0211 22.444 65.8691 22.068 65.8691 21.636C65.8691 21.204 66.0211 20.836 66.3251 20.532C66.6451 20.228 67.0211 20.076 67.4531 20.076C67.8851 20.076 68.2531 20.228 68.5571 20.532C68.8771 20.836 69.0371 21.204 69.0371 21.636C69.0371 22.068 68.8771 22.444 68.5571 22.764C68.2531 23.068 67.8851 23.22 67.4531 23.22ZM71.9411 37.5V25.5H74.4611L74.6291 27.708V37.5H71.9411ZM80.0771 37.5V31.356H82.7651V37.5H80.0771ZM80.0771 31.356C80.0771 30.396 79.9651 29.66 79.7411 29.148C79.5331 28.62 79.2291 28.252 78.8291 28.044C78.4451 27.836 77.9891 27.732 77.4611 27.732C76.5651 27.716 75.8691 28.012 75.3731 28.62C74.8771 29.228 74.6291 30.1 74.6291 31.236H73.6211C73.6211 29.972 73.8051 28.892 74.1731 27.996C74.5411 27.084 75.0691 26.396 75.7571 25.932C76.4451 25.452 77.2611 25.212 78.2051 25.212C79.1651 25.212 79.9811 25.404 80.6531 25.788C81.3411 26.172 81.8611 26.772 82.2131 27.588C82.5811 28.388 82.7651 29.436 82.7651 30.732V31.356H80.0771Z" fill="#D0AFDE"/>
</svg>
