<svg width="19" height="16" viewBox="0 0 19 16" fill="none" xmlns="http://www.w3.org/2000/svg">
<path d="M17.717 9.05979C17.9979 8.77854 18.1556 8.39729 18.1556 7.99979C18.1556 7.60229 17.9979 7.22104 17.717 6.93979L12.061 1.28079C11.7796 0.999395 11.3979 0.841309 11 0.841309C10.602 0.841309 10.2204 0.999395 9.93896 1.28079C9.65756 1.56218 9.49948 1.94384 9.49948 2.34179C9.49948 2.73974 9.65756 3.12139 9.93896 3.40279L13.035 6.49979L1.49996 6.49979C1.10213 6.49979 0.720604 6.65782 0.439299 6.93913C0.157993 7.22043 -4.19617e-05 7.60196 -4.19617e-05 7.99979C-4.19617e-05 8.39761 0.157993 8.77915 0.439299 9.06045C0.720604 9.34175 1.10213 9.49979 1.49996 9.49979L13.035 9.49979L9.93896 12.5958C9.79963 12.7351 9.6891 12.9005 9.6137 13.0826C9.53829 13.2646 9.49948 13.4597 9.49948 13.6568C9.49948 13.8538 9.53829 14.049 9.6137 14.231C9.6891 14.413 9.79963 14.5785 9.93896 14.7178C10.0783 14.8571 10.2437 14.9676 10.4257 15.0431C10.6078 15.1185 10.8029 15.1573 11 15.1573C11.197 15.1573 11.3921 15.1185 11.5742 15.0431C11.7562 14.9676 11.9216 14.8571 12.061 14.7178L17.717 9.05979Z" fill="white"/>
</svg>
