<svg width="148" height="147" viewBox="0 0 148 147" fill="none" xmlns="http://www.w3.org/2000/svg">
<path d="M67.1389 4.45508C69.3955 4.23977 71.6845 4.12988 74.0002 4.12988C76.3158 4.12989 78.6043 4.2398 80.8606 4.45508L81.1926 0.972656C86.0522 1.43629 90.774 2.36411 95.3118 3.71191L94.3167 7.06641C98.7471 8.38241 102.993 10.1183 107.008 12.2266L108.634 9.12793C112.909 11.3729 116.934 14.0204 120.657 17.0195L118.463 19.7451C122.032 22.6204 125.309 25.8347 128.244 29.3369L130.927 27.0889V27.0879C134.006 30.7617 136.726 34.739 139.035 38.9668L135.964 40.6445C138.14 44.6279 139.933 48.8443 141.293 53.2451L144.635 52.2109C146.034 56.7386 146.999 61.4531 147.481 66.3076L143.999 66.6533C144.223 68.9046 144.338 71.1887 144.338 73.5C144.338 75.8113 144.223 78.0954 143.999 80.3467L147.481 80.6914C146.999 85.546 146.034 90.2604 144.635 94.7881L141.293 93.7549C139.933 98.1557 138.14 102.372 135.964 106.355L139.035 108.032C136.726 112.26 134.006 116.237 130.927 119.911L128.244 117.663C125.309 121.165 122.032 124.38 118.463 127.255L120.657 129.979C116.934 132.979 112.909 135.626 108.634 137.871L107.008 134.773C102.993 136.882 98.7471 138.618 94.3167 139.934L95.3118 143.287C90.7739 144.635 86.0523 145.563 81.1926 146.026L80.8606 142.545C78.6043 142.76 76.3158 142.87 74.0002 142.87C71.6845 142.87 69.3955 142.76 67.1389 142.545L66.8069 146.027C61.9469 145.564 57.2249 144.635 52.6868 143.287L53.6838 139.934C49.2532 138.618 45.0064 136.882 40.9915 134.773L39.3645 137.871C35.0891 135.626 31.0642 132.978 27.3411 129.979L29.5374 127.255C25.9679 124.379 22.6902 121.165 19.7551 117.663L17.0725 119.91C13.994 116.236 11.2737 112.26 8.96411 108.032L12.0354 106.355C9.85917 102.372 8.06733 98.1557 6.70728 93.7549L3.36353 94.7881C1.9643 90.2605 0.999683 85.5459 0.517822 80.6914L4.00024 80.3467C3.77675 78.0954 3.66235 75.8113 3.66235 73.5C3.66235 71.1887 3.77675 68.9046 4.00024 66.6533L0.517822 66.3076C0.999746 61.4532 1.96424 56.7385 3.36353 52.2109L6.70728 53.2451C8.06733 48.8443 9.85917 44.6279 12.0354 40.6445L8.96411 38.9668C11.2737 34.7393 13.994 30.7625 17.0725 27.0889L19.7551 29.3369C22.6902 25.8345 25.9679 22.6205 29.5374 19.7451L27.3411 17.0205C31.0642 14.0212 35.0891 11.3731 39.3645 9.12793L40.9915 12.2266C45.0064 10.1182 49.2532 8.38243 53.6838 7.06641L52.6868 3.71191C57.2249 2.36393 61.9469 1.43537 66.8069 0.97168L67.1389 4.45508Z" fill="#FFF8E1" stroke="#D5CCB2" stroke-width="7" stroke-dasharray="16 16"/>
</svg>
