<svg width="87" height="48" viewBox="0 0 87 48" fill="none" xmlns="http://www.w3.org/2000/svg">
<rect x="2.5" y="2.5" width="82" height="43" rx="12.5" stroke="#E3CEEB" stroke-width="5"/>
<path d="M19.8631 32.5V15.7H30.2071V18.244H22.6471V22.708H29.3191V25.204H22.6471V29.956H30.2791V32.5H19.8631ZM40.8353 32.5L40.7153 30.244V26.332C40.7153 25.516 40.6273 24.836 40.4513 24.292C40.2913 23.732 40.0193 23.308 39.6353 23.02C39.2673 22.716 38.7713 22.564 38.1473 22.564C37.5713 22.564 37.0673 22.684 36.6353 22.924C36.2033 23.164 35.8353 23.54 35.5313 24.052L33.1793 23.188C33.4353 22.66 33.7713 22.172 34.1873 21.724C34.6193 21.26 35.1553 20.892 35.7953 20.62C36.4513 20.348 37.2353 20.212 38.1473 20.212C39.3153 20.212 40.2913 20.444 41.0753 20.908C41.8593 21.356 42.4353 22.004 42.8033 22.852C43.1873 23.7 43.3793 24.724 43.3793 25.924L43.3073 32.5H40.8353ZM37.3793 32.788C35.9393 32.788 34.8193 32.468 34.0193 31.828C33.2353 31.188 32.8433 30.284 32.8433 29.116C32.8433 27.868 33.2593 26.916 34.0913 26.26C34.9393 25.604 36.1153 25.276 37.6193 25.276H40.8353V27.34H38.4833C37.4113 27.34 36.6593 27.492 36.2273 27.796C35.7953 28.084 35.5793 28.5 35.5793 29.044C35.5793 29.508 35.7633 29.876 36.1313 30.148C36.5153 30.404 37.0433 30.532 37.7153 30.532C38.3233 30.532 38.8513 30.396 39.2993 30.124C39.7473 29.852 40.0913 29.492 40.3313 29.044C40.5873 28.596 40.7153 28.092 40.7153 27.532H41.5073C41.5073 29.164 41.1793 30.452 40.5233 31.396C39.8673 32.324 38.8193 32.788 37.3793 32.788ZM50.4693 32.788C49.6693 32.788 48.9333 32.668 48.2613 32.428C47.5893 32.188 47.0133 31.852 46.5333 31.42C46.0533 30.972 45.6853 30.452 45.4293 29.86L47.7573 28.828C47.9973 29.276 48.3493 29.652 48.8133 29.956C49.2933 30.26 49.8213 30.412 50.3973 30.412C51.0213 30.412 51.5173 30.308 51.8853 30.1C52.2693 29.876 52.4613 29.572 52.4613 29.188C52.4613 28.82 52.3173 28.54 52.0293 28.348C51.7413 28.14 51.3333 27.972 50.8053 27.844L49.6773 27.532C48.5413 27.244 47.6533 26.788 47.0133 26.164C46.3733 25.524 46.0533 24.796 46.0533 23.98C46.0533 22.78 46.4373 21.852 47.2053 21.196C47.9893 20.54 49.1093 20.212 50.5653 20.212C51.3013 20.212 51.9733 20.324 52.5813 20.548C53.2053 20.756 53.7413 21.06 54.1893 21.46C54.6373 21.844 54.9493 22.3 55.1253 22.828L52.8933 23.836C52.7333 23.436 52.4293 23.132 51.9813 22.924C51.5333 22.7 51.0373 22.588 50.4933 22.588C49.9493 22.588 49.5253 22.708 49.2213 22.948C48.9173 23.172 48.7653 23.492 48.7653 23.908C48.7653 24.148 48.9013 24.372 49.1733 24.58C49.4453 24.772 49.8373 24.932 50.3493 25.06L51.7653 25.396C52.5493 25.588 53.1893 25.892 53.6853 26.308C54.1813 26.708 54.5493 27.164 54.7893 27.676C55.0293 28.172 55.1493 28.676 55.1493 29.188C55.1493 29.908 54.9413 30.54 54.5253 31.084C54.1253 31.628 53.5733 32.052 52.8693 32.356C52.1653 32.644 51.3653 32.788 50.4693 32.788ZM59.177 37.588C58.793 37.588 58.361 37.516 57.881 37.372C57.417 37.228 56.969 37.044 56.537 36.82L57.545 34.636C57.849 34.78 58.129 34.892 58.385 34.972C58.641 35.068 58.849 35.116 59.009 35.116C59.393 35.116 59.713 35.012 59.969 34.804C60.241 34.612 60.457 34.324 60.617 33.94L62.033 30.628L66.089 20.5H69.017L63.449 33.772C63.113 34.54 62.769 35.212 62.417 35.788C62.081 36.364 61.657 36.804 61.145 37.108C60.633 37.428 59.977 37.588 59.177 37.588ZM61.313 32.5L55.937 20.5H58.865L63.041 30.604L63.905 32.5H61.313Z" fill="#C8ADD3"/>
</svg>
