<svg width="22" height="22" viewBox="0 0 22 22" fill="none" xmlns="http://www.w3.org/2000/svg">
<path d="M21.0612 18.9399C21.343 19.2217 21.5013 19.6039 21.5013 20.0024C21.5013 20.401 21.343 20.7832 21.0612 21.0649C20.7794 21.3467 20.3972 21.505 19.9987 21.505C19.6002 21.505 19.218 21.3467 18.9362 21.0649L10.9999 13.1262L3.0612 21.0624C2.7794 21.3442 2.39721 21.5025 1.9987 21.5025C1.60018 21.5025 1.21799 21.3442 0.936196 21.0624C0.654403 20.7807 0.496094 20.3985 0.496094 19.9999C0.496094 19.6014 0.654403 19.2192 0.936196 18.9374L8.87495 11.0012L0.938695 3.06245C0.656903 2.78065 0.498594 2.39846 0.498594 1.99995C0.498594 1.60143 0.656903 1.21924 0.938695 0.937446C1.22049 0.655653 1.60268 0.497344 2.0012 0.497344C2.39971 0.497344 2.7819 0.655653 3.0637 0.937446L10.9999 8.8762L18.9387 0.936195C19.2205 0.654403 19.6027 0.496094 20.0012 0.496094C20.3997 0.496094 20.7819 0.654403 21.0637 0.936195C21.3455 1.21799 21.5038 1.60018 21.5038 1.9987C21.5038 2.39721 21.3455 2.7794 21.0637 3.0612L13.1249 11.0012L21.0612 18.9399Z" fill="#9E8FDB"/>
</svg>
