<svg width="23" height="19" viewBox="0 0 23 19" fill="none" xmlns="http://www.w3.org/2000/svg">
<path d="M22.2949 10.7257C22.646 10.3742 22.8433 9.89761 22.8433 9.40074C22.8433 8.90386 22.646 8.4273 22.2949 8.07574L15.2249 1.00199C14.8732 0.650244 14.3961 0.452637 13.8987 0.452637C13.4012 0.452637 12.9242 0.650244 12.5724 1.00199C12.2207 1.35373 12.0231 1.8308 12.0231 2.32824C12.0231 2.82568 12.2207 3.30274 12.5724 3.65449L16.4424 7.52574L2.02366 7.52574C1.52638 7.52574 1.04947 7.72328 0.697834 8.07491C0.346203 8.42654 0.148657 8.90346 0.148657 9.40074C0.148657 9.89802 0.346203 10.3749 0.697834 10.7266C1.04947 11.0782 1.52638 11.2757 2.02366 11.2757L16.4424 11.2757L12.5724 15.1457C12.3982 15.3199 12.2601 15.5267 12.1658 15.7542C12.0716 15.9818 12.0231 16.2257 12.0231 16.472C12.0231 16.7183 12.0716 16.9622 12.1658 17.1897C12.2601 17.4173 12.3982 17.6241 12.5724 17.7982C12.7466 17.9724 12.9533 18.1106 13.1809 18.2048C13.4085 18.2991 13.6524 18.3476 13.8987 18.3476C14.145 18.3476 14.3889 18.2991 14.6164 18.2048C14.844 18.1106 15.0507 17.9724 15.2249 17.7982L22.2949 10.7257Z" fill="#896A96"/>
</svg>
