<svg width="58" height="58" viewBox="0 0 58 58" fill="none" xmlns="http://www.w3.org/2000/svg">
<rect y="0.5" width="48.8571" height="48.8571" rx="4" fill="#44C1FF"/>
<rect x="8.4043" y="8.64307" width="48.8571" height="48.8571" rx="4" fill="#B4ADF7"/>
<path d="M24.0805 25.4314C26.4745 22.81 29.6786 21.3675 32.9623 21.138L32.8349 18.4351C32.8349 15.6231 32.5713 16.2047 34.8978 17.9496L40.2964 22.2572C41.8774 23.7659 41.8774 22.6026 40.382 24.0735L34.8978 29.0006C33.0839 30.9425 33.3132 31.2199 33.3132 28.5805L33.1642 25.4209C30.9064 25.6019 28.8321 26.6071 27.2878 28.2751C23.9248 31.9074 24.0794 37.6894 27.8908 41.0998C31.5064 44.3349 37.1645 44.1657 40.5471 40.4485C42.03 38.8189 42.8498 36.7496 42.8893 34.5667C42.8955 34.2288 43.1638 33.9541 43.5014 33.9381L46.5029 33.7967C46.8716 33.7793 47.1777 34.0752 47.1763 34.4443C47.1646 37.6189 46.0218 40.8 43.7169 43.3329C38.7786 48.7599 30.3758 49.156 24.9488 44.2177C19.5281 39.285 19.1381 30.8433 24.0805 25.4314Z" fill="white"/>
</svg>
