<svg width="313" height="203" viewBox="0 0 313 203" fill="none" xmlns="http://www.w3.org/2000/svg">
<rect x="2" width="309" height="148" rx="16" fill="#DDC4E7"/>
<path d="M18 26C18 20.4772 22.4772 16 28 16H285C290.523 16 295 20.4772 295 26V122C295 127.523 290.523 132 285 132H28C22.4772 132 18 127.523 18 122V26Z" fill="white"/>
<line x1="61" y1="56.5" x2="252" y2="56.5" stroke="#A88EB3" stroke-width="11"/>
<line x1="61" y1="80.5" x2="172" y2="80.5" stroke="#A88EB3" stroke-width="11"/>
<rect x="0.5" y="167.148" width="72" height="35" rx="10.8" fill="#FFF9EA"/>
<rect x="2" y="168.648" width="69" height="32" rx="9.3" stroke="#FBC02D" stroke-opacity="0.53" stroke-width="3"/>
<path d="M24.588 190.148L20.22 178.948H22.076L26.556 190.148H24.588ZM15.644 190.148L20.108 178.948H21.98L17.612 190.148H15.644ZM17.74 187.396V185.748H24.444V187.396H17.74ZM30.9789 193.556C30.4135 193.556 29.9015 193.508 29.4429 193.412C28.9949 193.316 28.6162 193.204 28.3069 193.076C27.9975 192.948 27.7575 192.825 27.5869 192.708L28.2749 191.268C28.4242 191.343 28.6215 191.433 28.8669 191.54C29.1229 191.657 29.4215 191.759 29.7629 191.844C30.1042 191.929 30.4882 191.972 30.9149 191.972C31.3735 191.972 31.7842 191.876 32.1469 191.684C32.5095 191.503 32.7922 191.22 32.9949 190.836C33.1975 190.452 33.2989 189.961 33.2989 189.364V182.148H35.0909V189.316C35.0909 190.223 34.9202 190.991 34.5789 191.62C34.2375 192.26 33.7575 192.74 33.1389 193.06C32.5202 193.391 31.8002 193.556 30.9789 193.556ZM30.7069 189.988C29.9815 189.988 29.3469 189.823 28.8029 189.492C28.2695 189.161 27.8482 188.703 27.5389 188.116C27.2402 187.519 27.0909 186.831 27.0909 186.052C27.0909 185.22 27.2402 184.5 27.5389 183.892C27.8482 183.284 28.2695 182.809 28.8029 182.468C29.3469 182.127 29.9815 181.956 30.7069 181.956C31.3575 181.956 31.9229 182.127 32.4029 182.468C32.8935 182.809 33.2722 183.289 33.5389 183.908C33.8055 184.516 33.9389 185.236 33.9389 186.068C33.9389 186.857 33.8055 187.545 33.5389 188.132C33.2722 188.719 32.8935 189.177 32.4029 189.508C31.9229 189.828 31.3575 189.988 30.7069 189.988ZM31.2029 188.468C31.6082 188.468 31.9602 188.361 32.2589 188.148C32.5682 187.935 32.8082 187.647 32.9789 187.284C33.1495 186.911 33.2349 186.484 33.2349 186.004C33.2349 185.513 33.1495 185.087 32.9789 184.724C32.8082 184.351 32.5682 184.063 32.2589 183.86C31.9495 183.647 31.5922 183.54 31.1869 183.54C30.7602 183.54 30.3815 183.647 30.0509 183.86C29.7309 184.063 29.4749 184.351 29.2829 184.724C29.1015 185.087 29.0109 185.513 29.0109 186.004C29.0109 186.484 29.1015 186.911 29.2829 187.284C29.4749 187.647 29.7362 187.935 30.0669 188.148C30.3975 188.361 30.7762 188.468 31.2029 188.468ZM41.9501 190.148L41.8701 188.644V186.036C41.8701 185.492 41.8115 185.039 41.6941 184.676C41.5875 184.303 41.4061 184.02 41.1501 183.828C40.9048 183.625 40.5741 183.524 40.1581 183.524C39.7741 183.524 39.4381 183.604 39.1501 183.764C38.8621 183.924 38.6168 184.175 38.4141 184.516L36.8461 183.94C37.0168 183.588 37.2408 183.263 37.5181 182.964C37.8061 182.655 38.1635 182.409 38.5901 182.228C39.0275 182.047 39.5501 181.956 40.1581 181.956C40.9368 181.956 41.5875 182.111 42.1101 182.42C42.6328 182.719 43.0168 183.151 43.2621 183.716C43.5181 184.281 43.6461 184.964 43.6461 185.764L43.5981 190.148H41.9501ZM39.6461 190.34C38.6861 190.34 37.9395 190.127 37.4061 189.7C36.8835 189.273 36.6221 188.671 36.6221 187.892C36.6221 187.06 36.8995 186.425 37.4541 185.988C38.0195 185.551 38.8035 185.332 39.8061 185.332H41.9501V186.708H40.3821C39.6675 186.708 39.1661 186.809 38.8781 187.012C38.5901 187.204 38.4461 187.481 38.4461 187.844C38.4461 188.153 38.5688 188.399 38.8141 188.58C39.0701 188.751 39.4221 188.836 39.8701 188.836C40.2755 188.836 40.6275 188.745 40.9261 188.564C41.2248 188.383 41.4541 188.143 41.6141 187.844C41.7848 187.545 41.8701 187.209 41.8701 186.836H42.3981C42.3981 187.924 42.1795 188.783 41.7421 189.412C41.3048 190.031 40.6061 190.34 39.6461 190.34ZM45.5728 190.148V182.148H47.3488V190.148H45.5728ZM46.4688 180.628C46.1808 180.628 45.9301 180.527 45.7168 180.324C45.5141 180.111 45.4128 179.86 45.4128 179.572C45.4128 179.284 45.5141 179.039 45.7168 178.836C45.9301 178.633 46.1808 178.532 46.4688 178.532C46.7568 178.532 47.0021 178.633 47.2048 178.836C47.4181 179.039 47.5248 179.284 47.5248 179.572C47.5248 179.86 47.4181 180.111 47.2048 180.324C47.0021 180.527 46.7568 180.628 46.4688 180.628ZM49.4608 190.148V182.148H51.1408L51.2528 183.62V190.148H49.4608ZM54.8848 190.148V186.052H56.6768V190.148H54.8848ZM54.8848 186.052C54.8848 185.412 54.8101 184.921 54.6608 184.58C54.5221 184.228 54.3194 183.983 54.0528 183.844C53.7968 183.705 53.4928 183.636 53.1408 183.636C52.5434 183.625 52.0794 183.823 51.7488 184.228C51.4181 184.633 51.2528 185.215 51.2528 185.972H50.5807C50.5807 185.129 50.7034 184.409 50.9488 183.812C51.1941 183.204 51.5461 182.745 52.0048 182.436C52.4634 182.116 53.0074 181.956 53.6368 181.956C54.2768 181.956 54.8208 182.084 55.2688 182.34C55.7274 182.596 56.0741 182.996 56.3088 183.54C56.5541 184.073 56.6768 184.772 56.6768 185.636V186.052H54.8848Z" fill="#866000"/>
<rect x="80.5" y="167.148" width="72" height="35" rx="10.8" fill="#FDECEB"/>
<rect x="82" y="168.648" width="69" height="32" rx="9.3" stroke="#E53935" stroke-opacity="0.53" stroke-width="3"/>
<path d="M107.488 190.148V178.948H109.344V190.148H107.488ZM99.9999 190.148V178.948H101.856V190.148H99.9999ZM101.456 185.252V183.556H108.24V185.252H101.456ZM116.544 190.148L116.464 188.644V186.036C116.464 185.492 116.405 185.039 116.288 184.676C116.181 184.303 116 184.02 115.744 183.828C115.499 183.625 115.168 183.524 114.752 183.524C114.368 183.524 114.032 183.604 113.744 183.764C113.456 183.924 113.211 184.175 113.008 184.516L111.44 183.94C111.611 183.588 111.835 183.263 112.112 182.964C112.4 182.655 112.757 182.409 113.184 182.228C113.621 182.047 114.144 181.956 114.752 181.956C115.531 181.956 116.181 182.111 116.704 182.42C117.227 182.719 117.611 183.151 117.856 183.716C118.112 184.281 118.24 184.964 118.24 185.764L118.192 190.148H116.544ZM114.24 190.34C113.28 190.34 112.533 190.127 112 189.7C111.477 189.273 111.216 188.671 111.216 187.892C111.216 187.06 111.493 186.425 112.048 185.988C112.613 185.551 113.397 185.332 114.4 185.332H116.544V186.708H114.976C114.261 186.708 113.76 186.809 113.472 187.012C113.184 187.204 113.04 187.481 113.04 187.844C113.04 188.153 113.163 188.399 113.408 188.58C113.664 188.751 114.016 188.836 114.464 188.836C114.869 188.836 115.221 188.745 115.52 188.564C115.819 188.383 116.048 188.143 116.208 187.844C116.379 187.545 116.464 187.209 116.464 186.836H116.992C116.992 187.924 116.773 188.783 116.336 189.412C115.899 190.031 115.2 190.34 114.24 190.34ZM121.239 185.892C121.239 185.028 121.404 184.319 121.735 183.764C122.065 183.209 122.492 182.799 123.015 182.532C123.548 182.255 124.103 182.116 124.679 182.116V183.828C124.188 183.828 123.724 183.897 123.286 184.036C122.86 184.164 122.513 184.377 122.247 184.676C121.98 184.975 121.847 185.369 121.847 185.86L121.239 185.892ZM120.055 190.148V182.148H121.847V190.148H120.055ZM131.643 190.148L131.563 188.66V178.948H133.339V190.148H131.643ZM129.035 190.34C128.31 190.34 127.675 190.169 127.131 189.828C126.598 189.476 126.176 188.985 125.867 188.356C125.568 187.727 125.419 186.991 125.419 186.148C125.419 185.295 125.568 184.559 125.867 183.94C126.176 183.311 126.598 182.825 127.131 182.484C127.675 182.132 128.31 181.956 129.035 181.956C129.707 181.956 130.283 182.132 130.763 182.484C131.254 182.825 131.627 183.311 131.883 183.94C132.139 184.559 132.267 185.295 132.267 186.148C132.267 186.991 132.139 187.727 131.883 188.356C131.627 188.985 131.254 189.476 130.763 189.828C130.283 190.169 129.707 190.34 129.035 190.34ZM129.483 188.708C129.888 188.708 130.246 188.601 130.555 188.388C130.875 188.164 131.12 187.86 131.291 187.476C131.472 187.092 131.563 186.649 131.563 186.148C131.563 185.647 131.472 185.204 131.291 184.82C131.12 184.436 130.875 184.137 130.555 183.924C130.246 183.711 129.883 183.604 129.467 183.604C129.04 183.604 128.662 183.711 128.331 183.924C128 184.137 127.739 184.436 127.547 184.82C127.366 185.204 127.27 185.647 127.259 186.148C127.27 186.649 127.366 187.092 127.547 187.476C127.739 187.86 128 188.164 128.331 188.388C128.672 188.601 129.056 188.708 129.483 188.708Z" fill="#AB091E"/>
<rect x="160.5" y="167.148" width="72" height="35" rx="10.8" fill="#E6F3F1"/>
<rect x="162" y="168.648" width="69" height="32" rx="9.3" stroke="#007F70" stroke-opacity="0.53" stroke-width="3"/>
<path d="M182.941 190.34C181.81 190.34 180.802 190.095 179.917 189.604C179.042 189.103 178.354 188.42 177.853 187.556C177.351 186.681 177.101 185.684 177.101 184.564C177.101 183.423 177.351 182.42 177.853 181.556C178.354 180.681 179.042 179.999 179.917 179.508C180.802 179.007 181.81 178.756 182.941 178.756C183.591 178.756 184.199 178.857 184.765 179.06C185.341 179.263 185.858 179.54 186.317 179.892C186.775 180.233 187.149 180.633 187.437 181.092L185.933 182.052C185.73 181.743 185.469 181.465 185.149 181.22C184.829 180.975 184.477 180.788 184.093 180.66C183.719 180.521 183.335 180.452 182.941 180.452C182.173 180.452 181.49 180.628 180.893 180.98C180.306 181.332 179.842 181.817 179.501 182.436C179.159 183.044 178.989 183.753 178.989 184.564C178.989 185.353 179.154 186.057 179.485 186.676C179.826 187.295 180.295 187.78 180.893 188.132C181.501 188.484 182.199 188.66 182.989 188.66C183.607 188.66 184.162 188.532 184.653 188.276C185.143 188.02 185.527 187.663 185.805 187.204C186.093 186.745 186.237 186.217 186.237 185.62L188.013 185.396C188.013 186.409 187.794 187.289 187.357 188.036C186.93 188.772 186.333 189.343 185.565 189.748C184.807 190.143 183.933 190.34 182.941 190.34ZM183.549 185.764V184.26H188.013V185.508L187.021 185.764H183.549ZM193.149 190.34C192.349 190.34 191.634 190.164 191.005 189.812C190.386 189.449 189.901 188.953 189.549 188.324C189.197 187.695 189.021 186.969 189.021 186.148C189.021 185.327 189.191 184.601 189.533 183.972C189.885 183.343 190.37 182.852 190.989 182.5C191.607 182.137 192.317 181.956 193.117 181.956C193.917 181.956 194.626 182.137 195.245 182.5C195.863 182.852 196.343 183.343 196.685 183.972C197.037 184.601 197.213 185.327 197.213 186.148C197.213 186.969 197.042 187.695 196.701 188.324C196.359 188.953 195.879 189.449 195.261 189.812C194.642 190.164 193.938 190.34 193.149 190.34ZM193.149 188.692C193.586 188.692 193.975 188.585 194.317 188.372C194.658 188.148 194.925 187.849 195.117 187.476C195.309 187.092 195.405 186.649 195.405 186.148C195.405 185.647 195.303 185.209 195.101 184.836C194.909 184.452 194.642 184.153 194.301 183.94C193.959 183.716 193.565 183.604 193.117 183.604C192.669 183.604 192.274 183.711 191.933 183.924C191.591 184.137 191.325 184.436 191.133 184.82C190.941 185.204 190.845 185.647 190.845 186.148C190.845 186.649 190.941 187.092 191.133 187.476C191.335 187.849 191.607 188.148 191.949 188.372C192.301 188.585 192.701 188.692 193.149 188.692ZM202.445 190.34C201.645 190.34 200.931 190.164 200.301 189.812C199.683 189.449 199.197 188.953 198.845 188.324C198.493 187.695 198.317 186.969 198.317 186.148C198.317 185.327 198.488 184.601 198.829 183.972C199.181 183.343 199.667 182.852 200.285 182.5C200.904 182.137 201.613 181.956 202.413 181.956C203.213 181.956 203.923 182.137 204.541 182.5C205.16 182.852 205.64 183.343 205.981 183.972C206.333 184.601 206.509 185.327 206.509 186.148C206.509 186.969 206.339 187.695 205.997 188.324C205.656 188.953 205.176 189.449 204.557 189.812C203.939 190.164 203.235 190.34 202.445 190.34ZM202.445 188.692C202.883 188.692 203.272 188.585 203.613 188.372C203.955 188.148 204.221 187.849 204.413 187.476C204.605 187.092 204.701 186.649 204.701 186.148C204.701 185.647 204.6 185.209 204.397 184.836C204.205 184.452 203.939 184.153 203.597 183.94C203.256 183.716 202.861 183.604 202.413 183.604C201.965 183.604 201.571 183.711 201.229 183.924C200.888 184.137 200.621 184.436 200.429 184.82C200.237 185.204 200.141 185.647 200.141 186.148C200.141 186.649 200.237 187.092 200.429 187.476C200.632 187.849 200.904 188.148 201.245 188.372C201.597 188.585 201.997 188.692 202.445 188.692ZM213.838 190.148L213.758 188.66V178.948H215.534V190.148H213.838ZM211.23 190.34C210.505 190.34 209.87 190.169 209.326 189.828C208.793 189.476 208.372 188.985 208.062 188.356C207.764 187.727 207.614 186.991 207.614 186.148C207.614 185.295 207.764 184.559 208.062 183.94C208.372 183.311 208.793 182.825 209.326 182.484C209.87 182.132 210.505 181.956 211.23 181.956C211.902 181.956 212.478 182.132 212.958 182.484C213.449 182.825 213.822 183.311 214.078 183.94C214.334 184.559 214.462 185.295 214.462 186.148C214.462 186.991 214.334 187.727 214.078 188.356C213.822 188.985 213.449 189.476 212.958 189.828C212.478 190.169 211.902 190.34 211.23 190.34ZM211.678 188.708C212.084 188.708 212.441 188.601 212.75 188.388C213.07 188.164 213.316 187.86 213.486 187.476C213.668 187.092 213.758 186.649 213.758 186.148C213.758 185.647 213.668 185.204 213.486 184.82C213.316 184.436 213.07 184.137 212.75 183.924C212.441 183.711 212.078 183.604 211.662 183.604C211.236 183.604 210.857 183.711 210.526 183.924C210.196 184.137 209.934 184.436 209.742 184.82C209.561 185.204 209.465 185.647 209.454 186.148C209.465 186.649 209.561 187.092 209.742 187.476C209.934 187.86 210.196 188.164 210.526 188.388C210.868 188.601 211.252 188.708 211.678 188.708Z" fill="#0C6B58"/>
<rect x="240.5" y="167.148" width="72" height="35" rx="10.8" fill="#EAE9F9"/>
<rect x="242" y="168.648" width="69" height="32" rx="9.3" stroke="#2A20BC" stroke-opacity="0.53" stroke-width="3"/>
<path d="M260.742 190.148V178.948H267.638V180.644H262.598V183.62H267.046V185.284H262.598V188.452H267.686V190.148H260.742ZM274.724 190.148L274.644 188.644V186.036C274.644 185.492 274.585 185.039 274.468 184.676C274.361 184.303 274.18 184.02 273.924 183.828C273.678 183.625 273.348 183.524 272.932 183.524C272.548 183.524 272.212 183.604 271.924 183.764C271.636 183.924 271.39 184.175 271.188 184.516L269.62 183.94C269.79 183.588 270.014 183.263 270.292 182.964C270.58 182.655 270.937 182.409 271.364 182.228C271.801 182.047 272.324 181.956 272.932 181.956C273.71 181.956 274.361 182.111 274.884 182.42C275.406 182.719 275.79 183.151 276.036 183.716C276.292 184.281 276.42 184.964 276.42 185.764L276.372 190.148H274.724ZM272.42 190.34C271.46 190.34 270.713 190.127 270.18 189.7C269.657 189.273 269.396 188.671 269.396 187.892C269.396 187.06 269.673 186.425 270.228 185.988C270.793 185.551 271.577 185.332 272.58 185.332H274.724V186.708H273.156C272.441 186.708 271.94 186.809 271.652 187.012C271.364 187.204 271.22 187.481 271.22 187.844C271.22 188.153 271.342 188.399 271.588 188.58C271.844 188.751 272.196 188.836 272.644 188.836C273.049 188.836 273.401 188.745 273.7 188.564C273.998 188.383 274.228 188.143 274.388 187.844C274.558 187.545 274.644 187.209 274.644 186.836H275.172C275.172 187.924 274.953 188.783 274.516 189.412C274.078 190.031 273.38 190.34 272.42 190.34ZM281.146 190.34C280.613 190.34 280.122 190.26 279.674 190.1C279.226 189.94 278.842 189.716 278.522 189.428C278.202 189.129 277.957 188.783 277.786 188.388L279.338 187.7C279.498 187.999 279.733 188.249 280.042 188.452C280.362 188.655 280.714 188.756 281.098 188.756C281.514 188.756 281.845 188.687 282.09 188.548C282.346 188.399 282.474 188.196 282.474 187.94C282.474 187.695 282.378 187.508 282.186 187.38C281.994 187.241 281.722 187.129 281.37 187.044L280.618 186.836C279.861 186.644 279.269 186.34 278.842 185.924C278.416 185.497 278.202 185.012 278.202 184.468C278.202 183.668 278.458 183.049 278.97 182.612C279.493 182.175 280.24 181.956 281.21 181.956C281.701 181.956 282.149 182.031 282.554 182.18C282.97 182.319 283.328 182.521 283.626 182.788C283.925 183.044 284.133 183.348 284.25 183.7L282.762 184.372C282.656 184.105 282.453 183.903 282.154 183.764C281.856 183.615 281.525 183.54 281.162 183.54C280.8 183.54 280.517 183.62 280.314 183.78C280.112 183.929 280.01 184.143 280.01 184.42C280.01 184.58 280.101 184.729 280.282 184.868C280.464 184.996 280.725 185.103 281.066 185.188L282.01 185.412C282.533 185.54 282.96 185.743 283.29 186.02C283.621 186.287 283.866 186.591 284.026 186.932C284.186 187.263 284.266 187.599 284.266 187.94C284.266 188.42 284.128 188.841 283.85 189.204C283.584 189.567 283.216 189.849 282.746 190.052C282.277 190.244 281.744 190.34 281.146 190.34ZM286.951 193.54C286.695 193.54 286.407 193.492 286.087 193.396C285.778 193.3 285.479 193.177 285.191 193.028L285.863 191.572C286.066 191.668 286.253 191.743 286.423 191.796C286.594 191.86 286.733 191.892 286.839 191.892C287.095 191.892 287.309 191.823 287.479 191.684C287.661 191.556 287.805 191.364 287.911 191.108L288.855 188.9L291.559 182.148H293.511L289.799 190.996C289.575 191.508 289.346 191.956 289.111 192.34C288.887 192.724 288.605 193.017 288.263 193.22C287.922 193.433 287.485 193.54 286.951 193.54ZM288.375 190.148L284.791 182.148H286.743L289.527 188.884L290.103 190.148H288.375Z" fill="#2A20BC"/>
</svg>
