<svg width="438" height="371" viewBox="0 0 438 371" fill="none" xmlns="http://www.w3.org/2000/svg">
<g clip-path="url(#clip0_1_590)">
<path d="M8 32C8 18.7452 18.7452 8 32 8H406C419.255 8 430 18.7452 430 32V363H8V32Z" fill="#F2E1F9"/>
<rect x="331.5" y="317.5" width="82" height="43" rx="12.5" stroke="#E3CEEB" stroke-width="5"/>
<path d="M348.863 347.5V330.7H359.207V333.244H351.647V337.708H358.319V340.204H351.647V344.956H359.279V347.5H348.863ZM369.835 347.5L369.715 345.244V341.332C369.715 340.516 369.627 339.836 369.451 339.292C369.291 338.732 369.019 338.308 368.635 338.02C368.267 337.716 367.771 337.564 367.147 337.564C366.571 337.564 366.067 337.684 365.635 337.924C365.203 338.164 364.835 338.54 364.531 339.052L362.179 338.188C362.435 337.66 362.771 337.172 363.187 336.724C363.619 336.26 364.155 335.892 364.795 335.62C365.451 335.348 366.235 335.212 367.147 335.212C368.315 335.212 369.291 335.444 370.075 335.908C370.859 336.356 371.435 337.004 371.803 337.852C372.187 338.7 372.379 339.724 372.379 340.924L372.307 347.5H369.835ZM366.379 347.788C364.939 347.788 363.819 347.468 363.019 346.828C362.235 346.188 361.843 345.284 361.843 344.116C361.843 342.868 362.259 341.916 363.091 341.26C363.939 340.604 365.115 340.276 366.619 340.276H369.835V342.34H367.483C366.411 342.34 365.659 342.492 365.227 342.796C364.795 343.084 364.579 343.5 364.579 344.044C364.579 344.508 364.763 344.876 365.131 345.148C365.515 345.404 366.043 345.532 366.715 345.532C367.323 345.532 367.851 345.396 368.299 345.124C368.747 344.852 369.091 344.492 369.331 344.044C369.587 343.596 369.715 343.092 369.715 342.532H370.507C370.507 344.164 370.179 345.452 369.523 346.396C368.867 347.324 367.819 347.788 366.379 347.788ZM379.469 347.788C378.669 347.788 377.933 347.668 377.261 347.428C376.589 347.188 376.013 346.852 375.533 346.42C375.053 345.972 374.685 345.452 374.429 344.86L376.757 343.828C376.997 344.276 377.349 344.652 377.813 344.956C378.293 345.26 378.821 345.412 379.397 345.412C380.021 345.412 380.517 345.308 380.885 345.1C381.269 344.876 381.461 344.572 381.461 344.188C381.461 343.82 381.317 343.54 381.029 343.348C380.741 343.14 380.333 342.972 379.805 342.844L378.677 342.532C377.541 342.244 376.653 341.788 376.013 341.164C375.373 340.524 375.053 339.796 375.053 338.98C375.053 337.78 375.437 336.852 376.205 336.196C376.989 335.54 378.109 335.212 379.565 335.212C380.301 335.212 380.973 335.324 381.581 335.548C382.205 335.756 382.741 336.06 383.189 336.46C383.637 336.844 383.949 337.3 384.125 337.828L381.893 338.836C381.733 338.436 381.429 338.132 380.981 337.924C380.533 337.7 380.037 337.588 379.493 337.588C378.949 337.588 378.525 337.708 378.221 337.948C377.917 338.172 377.765 338.492 377.765 338.908C377.765 339.148 377.901 339.372 378.173 339.58C378.445 339.772 378.837 339.932 379.349 340.06L380.765 340.396C381.549 340.588 382.189 340.892 382.685 341.308C383.181 341.708 383.549 342.164 383.789 342.676C384.029 343.172 384.149 343.676 384.149 344.188C384.149 344.908 383.941 345.54 383.525 346.084C383.125 346.628 382.573 347.052 381.869 347.356C381.165 347.644 380.365 347.788 379.469 347.788ZM388.177 352.588C387.793 352.588 387.361 352.516 386.881 352.372C386.417 352.228 385.969 352.044 385.537 351.82L386.545 349.636C386.849 349.78 387.129 349.892 387.385 349.972C387.641 350.068 387.849 350.116 388.009 350.116C388.393 350.116 388.713 350.012 388.969 349.804C389.241 349.612 389.457 349.324 389.617 348.94L391.033 345.628L395.089 335.5H398.017L392.449 348.772C392.113 349.54 391.769 350.212 391.417 350.788C391.081 351.364 390.657 351.804 390.145 352.108C389.633 352.428 388.977 352.588 388.177 352.588ZM390.313 347.5L384.937 335.5H387.865L392.041 345.604L392.905 347.5H390.313Z" fill="#C8ADD3"/>
<rect x="332.5" y="44.5" width="100" height="53" rx="12.5" stroke="#E3CEEB" stroke-width="5"/>
<path d="M364.632 79.5L358.08 62.7H360.864L367.584 79.5H364.632ZM351.216 79.5L357.912 62.7H360.72L354.168 79.5H351.216ZM354.36 75.372V72.9H364.416V75.372H354.36ZM374.218 84.612C373.37 84.612 372.602 84.54 371.914 84.396C371.242 84.252 370.674 84.084 370.21 83.892C369.746 83.7 369.386 83.516 369.13 83.34L370.162 81.18C370.386 81.292 370.682 81.428 371.05 81.588C371.434 81.764 371.882 81.916 372.394 82.044C372.906 82.172 373.482 82.236 374.122 82.236C374.81 82.236 375.426 82.092 375.97 81.804C376.514 81.532 376.938 81.108 377.242 80.532C377.546 79.956 377.698 79.22 377.698 78.324V67.5H380.386V78.252C380.386 79.612 380.13 80.764 379.618 81.708C379.106 82.668 378.386 83.388 377.458 83.868C376.53 84.364 375.45 84.612 374.218 84.612ZM373.81 79.26C372.722 79.26 371.77 79.012 370.954 78.516C370.154 78.02 369.522 77.332 369.058 76.452C368.61 75.556 368.386 74.524 368.386 73.356C368.386 72.108 368.61 71.028 369.058 70.116C369.522 69.204 370.154 68.492 370.954 67.98C371.77 67.468 372.722 67.212 373.81 67.212C374.786 67.212 375.634 67.468 376.354 67.98C377.09 68.492 377.658 69.212 378.058 70.14C378.458 71.052 378.658 72.132 378.658 73.38C378.658 74.564 378.458 75.596 378.058 76.476C377.658 77.356 377.09 78.044 376.354 78.54C375.634 79.02 374.786 79.26 373.81 79.26ZM374.554 76.98C375.162 76.98 375.69 76.82 376.138 76.5C376.602 76.18 376.962 75.748 377.218 75.204C377.474 74.644 377.602 74.004 377.602 73.284C377.602 72.548 377.474 71.908 377.218 71.364C376.962 70.804 376.602 70.372 376.138 70.068C375.674 69.748 375.138 69.588 374.53 69.588C373.89 69.588 373.322 69.748 372.826 70.068C372.346 70.372 371.962 70.804 371.674 71.364C371.402 71.908 371.266 72.548 371.266 73.284C371.266 74.004 371.402 74.644 371.674 75.204C371.962 75.748 372.354 76.18 372.85 76.5C373.346 76.82 373.914 76.98 374.554 76.98ZM390.675 79.5L390.555 77.244V73.332C390.555 72.516 390.467 71.836 390.291 71.292C390.131 70.732 389.859 70.308 389.475 70.02C389.107 69.716 388.611 69.564 387.987 69.564C387.411 69.564 386.907 69.684 386.475 69.924C386.043 70.164 385.675 70.54 385.371 71.052L383.019 70.188C383.275 69.66 383.611 69.172 384.027 68.724C384.459 68.26 384.995 67.892 385.635 67.62C386.291 67.348 387.075 67.212 387.987 67.212C389.155 67.212 390.131 67.444 390.915 67.908C391.699 68.356 392.275 69.004 392.643 69.852C393.027 70.7 393.219 71.724 393.219 72.924L393.147 79.5H390.675ZM387.219 79.788C385.779 79.788 384.659 79.468 383.859 78.828C383.075 78.188 382.683 77.284 382.683 76.116C382.683 74.868 383.099 73.916 383.931 73.26C384.779 72.604 385.955 72.276 387.459 72.276H390.675V74.34H388.323C387.251 74.34 386.499 74.492 386.067 74.796C385.635 75.084 385.419 75.5 385.419 76.044C385.419 76.508 385.603 76.876 385.971 77.148C386.355 77.404 386.883 77.532 387.555 77.532C388.163 77.532 388.691 77.396 389.139 77.124C389.587 76.852 389.931 76.492 390.171 76.044C390.427 75.596 390.555 75.092 390.555 74.532H391.347C391.347 76.164 391.019 77.452 390.363 78.396C389.707 79.324 388.659 79.788 387.219 79.788ZM396.109 79.5V67.5H398.773V79.5H396.109ZM397.453 65.22C397.021 65.22 396.645 65.068 396.325 64.764C396.021 64.444 395.869 64.068 395.869 63.636C395.869 63.204 396.021 62.836 396.325 62.532C396.645 62.228 397.021 62.076 397.453 62.076C397.885 62.076 398.253 62.228 398.557 62.532C398.877 62.836 399.037 63.204 399.037 63.636C399.037 64.068 398.877 64.444 398.557 64.764C398.253 65.068 397.885 65.22 397.453 65.22ZM401.941 79.5V67.5H404.461L404.629 69.708V79.5H401.941ZM410.077 79.5V73.356H412.765V79.5H410.077ZM410.077 73.356C410.077 72.396 409.965 71.66 409.741 71.148C409.533 70.62 409.229 70.252 408.829 70.044C408.445 69.836 407.989 69.732 407.461 69.732C406.565 69.716 405.869 70.012 405.373 70.62C404.877 71.228 404.629 72.1 404.629 73.236H403.621C403.621 71.972 403.805 70.892 404.173 69.996C404.541 69.084 405.069 68.396 405.757 67.932C406.445 67.452 407.261 67.212 408.205 67.212C409.165 67.212 409.981 67.404 410.653 67.788C411.341 68.172 411.861 68.772 412.213 69.588C412.581 70.388 412.765 71.436 412.765 72.732V73.356H410.077Z" fill="#D0AFDE"/>
<rect x="-3.5" y="30.5" width="100" height="53" rx="12.5" stroke="#E3CEEB" stroke-width="5"/>
<path d="M26.1608 65.788C24.4648 65.788 22.9528 65.42 21.6248 64.684C20.3128 63.932 19.2808 62.908 18.5288 61.612C17.7768 60.3 17.4008 58.804 17.4008 57.124C17.4008 55.412 17.7768 53.908 18.5288 52.612C19.2808 51.3 20.3128 50.276 21.6248 49.54C22.9528 48.788 24.4648 48.412 26.1608 48.412C27.1368 48.412 28.0488 48.564 28.8968 48.868C29.7608 49.172 30.5368 49.588 31.2248 50.116C31.9128 50.628 32.4728 51.228 32.9048 51.916L30.6488 53.356C30.3448 52.892 29.9528 52.476 29.4728 52.108C28.9928 51.74 28.4648 51.46 27.8888 51.268C27.3288 51.06 26.7528 50.956 26.1608 50.956C25.0088 50.956 23.9848 51.22 23.0888 51.748C22.2088 52.276 21.5128 53.004 21.0008 53.932C20.4888 54.844 20.2328 55.908 20.2328 57.124C20.2328 58.308 20.4808 59.364 20.9768 60.292C21.4888 61.22 22.1928 61.948 23.0888 62.476C24.0008 63.004 25.0488 63.268 26.2328 63.268C27.1608 63.268 27.9928 63.076 28.7288 62.692C29.4648 62.308 30.0408 61.772 30.4568 61.084C30.8888 60.396 31.1048 59.604 31.1048 58.708L33.7688 58.372C33.7688 59.892 33.4408 61.212 32.7848 62.332C32.1448 63.436 31.2488 64.292 30.0968 64.9C28.9608 65.492 27.6488 65.788 26.1608 65.788ZM27.0728 58.924V56.668H33.7688V58.54L32.2808 58.924H27.0728ZM41.4728 65.788C40.2728 65.788 39.2008 65.524 38.2568 64.996C37.3288 64.452 36.6008 63.708 36.0728 62.764C35.5448 61.82 35.2808 60.732 35.2808 59.5C35.2808 58.268 35.5368 57.18 36.0488 56.236C36.5768 55.292 37.3048 54.556 38.2328 54.028C39.1608 53.484 40.2248 53.212 41.4248 53.212C42.6248 53.212 43.6888 53.484 44.6168 54.028C45.5448 54.556 46.2648 55.292 46.7768 56.236C47.3048 57.18 47.5688 58.268 47.5688 59.5C47.5688 60.732 47.3128 61.82 46.8008 62.764C46.2888 63.708 45.5688 64.452 44.6408 64.996C43.7128 65.524 42.6568 65.788 41.4728 65.788ZM41.4728 63.316C42.1288 63.316 42.7128 63.156 43.2248 62.836C43.7368 62.5 44.1368 62.052 44.4248 61.492C44.7128 60.916 44.8568 60.252 44.8568 59.5C44.8568 58.748 44.7048 58.092 44.4008 57.532C44.1128 56.956 43.7128 56.508 43.2008 56.188C42.6888 55.852 42.0968 55.684 41.4248 55.684C40.7528 55.684 40.1608 55.844 39.6488 56.164C39.1368 56.484 38.7368 56.932 38.4488 57.508C38.1608 58.084 38.0168 58.748 38.0168 59.5C38.0168 60.252 38.1608 60.916 38.4488 61.492C38.7528 62.052 39.1608 62.5 39.6728 62.836C40.2008 63.156 40.8008 63.316 41.4728 63.316ZM55.4182 65.788C54.2182 65.788 53.1462 65.524 52.2022 64.996C51.2742 64.452 50.5462 63.708 50.0182 62.764C49.4902 61.82 49.2262 60.732 49.2262 59.5C49.2262 58.268 49.4822 57.18 49.9942 56.236C50.5222 55.292 51.2502 54.556 52.1782 54.028C53.1062 53.484 54.1702 53.212 55.3702 53.212C56.5702 53.212 57.6342 53.484 58.5622 54.028C59.4902 54.556 60.2102 55.292 60.7222 56.236C61.2502 57.18 61.5142 58.268 61.5142 59.5C61.5142 60.732 61.2582 61.82 60.7462 62.764C60.2342 63.708 59.5142 64.452 58.5862 64.996C57.6582 65.524 56.6022 65.788 55.4182 65.788ZM55.4182 63.316C56.0742 63.316 56.6582 63.156 57.1702 62.836C57.6822 62.5 58.0822 62.052 58.3702 61.492C58.6582 60.916 58.8022 60.252 58.8022 59.5C58.8022 58.748 58.6502 58.092 58.3462 57.532C58.0582 56.956 57.6582 56.508 57.1462 56.188C56.6342 55.852 56.0422 55.684 55.3702 55.684C54.6982 55.684 54.1062 55.844 53.5942 56.164C53.0822 56.484 52.6822 56.932 52.3942 57.508C52.1062 58.084 51.9622 58.748 51.9622 59.5C51.9622 60.252 52.1062 60.916 52.3942 61.492C52.6982 62.052 53.1062 62.5 53.6182 62.836C54.1462 63.156 54.7462 63.316 55.4182 63.316ZM72.5075 65.5L72.3875 63.268V48.7H75.0515V65.5H72.5075ZM68.5955 65.788C67.5075 65.788 66.5555 65.532 65.7395 65.02C64.9395 64.492 64.3075 63.756 63.8435 62.812C63.3955 61.868 63.1715 60.764 63.1715 59.5C63.1715 58.22 63.3955 57.116 63.8435 56.188C64.3075 55.244 64.9395 54.516 65.7395 54.004C66.5555 53.476 67.5075 53.212 68.5955 53.212C69.6035 53.212 70.4675 53.476 71.1875 54.004C71.9235 54.516 72.4835 55.244 72.8675 56.188C73.2515 57.116 73.4435 58.22 73.4435 59.5C73.4435 60.764 73.2515 61.868 72.8675 62.812C72.4835 63.756 71.9235 64.492 71.1875 65.02C70.4675 65.532 69.6035 65.788 68.5955 65.788ZM69.2675 63.34C69.8755 63.34 70.4115 63.18 70.8755 62.86C71.3555 62.524 71.7235 62.068 71.9795 61.492C72.2515 60.916 72.3875 60.252 72.3875 59.5C72.3875 58.748 72.2515 58.084 71.9795 57.508C71.7235 56.932 71.3555 56.484 70.8755 56.164C70.4115 55.844 69.8675 55.684 69.2435 55.684C68.6035 55.684 68.0355 55.844 67.5395 56.164C67.0435 56.484 66.6515 56.932 66.3635 57.508C66.0915 58.084 65.9475 58.748 65.9315 59.5C65.9475 60.252 66.0915 60.916 66.3635 61.492C66.6515 62.068 67.0435 62.524 67.5395 62.86C68.0515 63.18 68.6275 63.34 69.2675 63.34Z" fill="#C8ADD3"/>
<rect x="64" y="90" width="309" height="148" rx="16" fill="#DDC4E7"/>
<path d="M80 116C80 110.477 84.4772 106 90 106H347C352.523 106 357 110.477 357 116V212C357 217.523 352.523 222 347 222H90C84.4772 222 80 217.523 80 212V116Z" fill="white"/>
<line x1="123" y1="146.5" x2="314" y2="146.5" stroke="#A88EB3" stroke-width="11"/>
<line x1="123" y1="170.5" x2="234" y2="170.5" stroke="#A88EB3" stroke-width="11"/>
<rect x="62.5" y="257.148" width="72" height="35" rx="10.8" fill="#FFF9EA"/>
<rect x="64" y="258.648" width="69" height="32" rx="9.3" stroke="#FBC02D" stroke-opacity="0.53" stroke-width="3"/>
<path d="M86.588 280.148L82.22 268.948H84.076L88.556 280.148H86.588ZM77.644 280.148L82.108 268.948H83.98L79.612 280.148H77.644ZM79.74 277.396V275.748H86.444V277.396H79.74ZM92.9789 283.556C92.4135 283.556 91.9015 283.508 91.4429 283.412C90.9949 283.316 90.6162 283.204 90.3069 283.076C89.9975 282.948 89.7575 282.825 89.5869 282.708L90.2749 281.268C90.4242 281.343 90.6215 281.433 90.8669 281.54C91.1229 281.657 91.4215 281.759 91.7629 281.844C92.1042 281.929 92.4882 281.972 92.9149 281.972C93.3735 281.972 93.7842 281.876 94.1469 281.684C94.5095 281.503 94.7922 281.22 94.9949 280.836C95.1975 280.452 95.2989 279.961 95.2989 279.364V272.148H97.0909V279.316C97.0909 280.223 96.9202 280.991 96.5789 281.62C96.2375 282.26 95.7575 282.74 95.1389 283.06C94.5202 283.391 93.8002 283.556 92.9789 283.556ZM92.7069 279.988C91.9815 279.988 91.3469 279.823 90.8029 279.492C90.2695 279.161 89.8482 278.703 89.5389 278.116C89.2402 277.519 89.0909 276.831 89.0909 276.052C89.0909 275.22 89.2402 274.5 89.5389 273.892C89.8482 273.284 90.2695 272.809 90.8029 272.468C91.3469 272.127 91.9815 271.956 92.7069 271.956C93.3575 271.956 93.9229 272.127 94.4029 272.468C94.8935 272.809 95.2722 273.289 95.5389 273.908C95.8055 274.516 95.9389 275.236 95.9389 276.068C95.9389 276.857 95.8055 277.545 95.5389 278.132C95.2722 278.719 94.8935 279.177 94.4029 279.508C93.9229 279.828 93.3575 279.988 92.7069 279.988ZM93.2029 278.468C93.6082 278.468 93.9602 278.361 94.2589 278.148C94.5682 277.935 94.8082 277.647 94.9789 277.284C95.1495 276.911 95.2349 276.484 95.2349 276.004C95.2349 275.513 95.1495 275.087 94.9789 274.724C94.8082 274.351 94.5682 274.063 94.2589 273.86C93.9495 273.647 93.5922 273.54 93.1869 273.54C92.7602 273.54 92.3815 273.647 92.0509 273.86C91.7309 274.063 91.4749 274.351 91.2829 274.724C91.1015 275.087 91.0109 275.513 91.0109 276.004C91.0109 276.484 91.1015 276.911 91.2829 277.284C91.4749 277.647 91.7362 277.935 92.0669 278.148C92.3975 278.361 92.7762 278.468 93.2029 278.468ZM103.95 280.148L103.87 278.644V276.036C103.87 275.492 103.811 275.039 103.694 274.676C103.587 274.303 103.406 274.02 103.15 273.828C102.905 273.625 102.574 273.524 102.158 273.524C101.774 273.524 101.438 273.604 101.15 273.764C100.862 273.924 100.617 274.175 100.414 274.516L98.8461 273.94C99.0168 273.588 99.2408 273.263 99.5181 272.964C99.8061 272.655 100.163 272.409 100.59 272.228C101.027 272.047 101.55 271.956 102.158 271.956C102.937 271.956 103.587 272.111 104.11 272.42C104.633 272.719 105.017 273.151 105.262 273.716C105.518 274.281 105.646 274.964 105.646 275.764L105.598 280.148H103.95ZM101.646 280.34C100.686 280.34 99.9395 280.127 99.4061 279.7C98.8835 279.273 98.6221 278.671 98.6221 277.892C98.6221 277.06 98.8995 276.425 99.4541 275.988C100.019 275.551 100.803 275.332 101.806 275.332H103.95V276.708H102.382C101.667 276.708 101.166 276.809 100.878 277.012C100.59 277.204 100.446 277.481 100.446 277.844C100.446 278.153 100.569 278.399 100.814 278.58C101.07 278.751 101.422 278.836 101.87 278.836C102.275 278.836 102.627 278.745 102.926 278.564C103.225 278.383 103.454 278.143 103.614 277.844C103.785 277.545 103.87 277.209 103.87 276.836H104.398C104.398 277.924 104.179 278.783 103.742 279.412C103.305 280.031 102.606 280.34 101.646 280.34ZM107.573 280.148V272.148H109.349V280.148H107.573ZM108.469 270.628C108.181 270.628 107.93 270.527 107.717 270.324C107.514 270.111 107.413 269.86 107.413 269.572C107.413 269.284 107.514 269.039 107.717 268.836C107.93 268.633 108.181 268.532 108.469 268.532C108.757 268.532 109.002 268.633 109.205 268.836C109.418 269.039 109.525 269.284 109.525 269.572C109.525 269.86 109.418 270.111 109.205 270.324C109.002 270.527 108.757 270.628 108.469 270.628ZM111.461 280.148V272.148H113.141L113.253 273.62V280.148H111.461ZM116.885 280.148V276.052H118.677V280.148H116.885ZM116.885 276.052C116.885 275.412 116.81 274.921 116.661 274.58C116.522 274.228 116.319 273.983 116.053 273.844C115.797 273.705 115.493 273.636 115.141 273.636C114.543 273.625 114.079 273.823 113.749 274.228C113.418 274.633 113.253 275.215 113.253 275.972H112.581C112.581 275.129 112.703 274.409 112.949 273.812C113.194 273.204 113.546 272.745 114.005 272.436C114.463 272.116 115.007 271.956 115.637 271.956C116.277 271.956 116.821 272.084 117.269 272.34C117.727 272.596 118.074 272.996 118.309 273.54C118.554 274.073 118.677 274.772 118.677 275.636V276.052H116.885Z" fill="#866000"/>
<rect x="142.5" y="257.148" width="72" height="35" rx="10.8" fill="#FDECEB"/>
<rect x="144" y="258.648" width="69" height="32" rx="9.3" stroke="#E53935" stroke-opacity="0.53" stroke-width="3"/>
<path d="M169.488 280.148V268.948H171.344V280.148H169.488ZM162 280.148V268.948H163.856V280.148H162ZM163.456 275.252V273.556H170.24V275.252H163.456ZM178.544 280.148L178.464 278.644V276.036C178.464 275.492 178.405 275.039 178.288 274.676C178.181 274.303 178 274.02 177.744 273.828C177.499 273.625 177.168 273.524 176.752 273.524C176.368 273.524 176.032 273.604 175.744 273.764C175.456 273.924 175.211 274.175 175.008 274.516L173.44 273.94C173.611 273.588 173.835 273.263 174.112 272.964C174.4 272.655 174.757 272.409 175.184 272.228C175.621 272.047 176.144 271.956 176.752 271.956C177.531 271.956 178.181 272.111 178.704 272.42C179.227 272.719 179.611 273.151 179.856 273.716C180.112 274.281 180.24 274.964 180.24 275.764L180.192 280.148H178.544ZM176.24 280.34C175.28 280.34 174.533 280.127 174 279.7C173.477 279.273 173.216 278.671 173.216 277.892C173.216 277.06 173.493 276.425 174.048 275.988C174.613 275.551 175.397 275.332 176.4 275.332H178.544V276.708H176.976C176.261 276.708 175.76 276.809 175.472 277.012C175.184 277.204 175.04 277.481 175.04 277.844C175.04 278.153 175.163 278.399 175.408 278.58C175.664 278.751 176.016 278.836 176.464 278.836C176.869 278.836 177.221 278.745 177.52 278.564C177.819 278.383 178.048 278.143 178.208 277.844C178.379 277.545 178.464 277.209 178.464 276.836H178.992C178.992 277.924 178.773 278.783 178.336 279.412C177.899 280.031 177.2 280.34 176.24 280.34ZM183.239 275.892C183.239 275.028 183.404 274.319 183.735 273.764C184.065 273.209 184.492 272.799 185.015 272.532C185.548 272.255 186.103 272.116 186.679 272.116V273.828C186.188 273.828 185.724 273.897 185.286 274.036C184.86 274.164 184.513 274.377 184.247 274.676C183.98 274.975 183.847 275.369 183.847 275.86L183.239 275.892ZM182.055 280.148V272.148H183.847V280.148H182.055ZM193.643 280.148L193.563 278.66V268.948H195.339V280.148H193.643ZM191.035 280.34C190.31 280.34 189.675 280.169 189.131 279.828C188.598 279.476 188.176 278.985 187.867 278.356C187.568 277.727 187.419 276.991 187.419 276.148C187.419 275.295 187.568 274.559 187.867 273.94C188.176 273.311 188.598 272.825 189.131 272.484C189.675 272.132 190.31 271.956 191.035 271.956C191.707 271.956 192.283 272.132 192.763 272.484C193.254 272.825 193.627 273.311 193.883 273.94C194.139 274.559 194.267 275.295 194.267 276.148C194.267 276.991 194.139 277.727 193.883 278.356C193.627 278.985 193.254 279.476 192.763 279.828C192.283 280.169 191.707 280.34 191.035 280.34ZM191.483 278.708C191.888 278.708 192.246 278.601 192.555 278.388C192.875 278.164 193.12 277.86 193.291 277.476C193.472 277.092 193.563 276.649 193.563 276.148C193.563 275.647 193.472 275.204 193.291 274.82C193.12 274.436 192.875 274.137 192.555 273.924C192.246 273.711 191.883 273.604 191.467 273.604C191.04 273.604 190.662 273.711 190.331 273.924C190 274.137 189.739 274.436 189.547 274.82C189.366 275.204 189.27 275.647 189.259 276.148C189.27 276.649 189.366 277.092 189.547 277.476C189.739 277.86 190 278.164 190.331 278.388C190.672 278.601 191.056 278.708 191.483 278.708Z" fill="#AB091E"/>
<rect x="222.5" y="257.148" width="72" height="35" rx="10.8" fill="#E6F3F1"/>
<rect x="224" y="258.648" width="69" height="32" rx="9.3" stroke="#007F70" stroke-opacity="0.53" stroke-width="3"/>
<path d="M244.941 280.34C243.81 280.34 242.802 280.095 241.917 279.604C241.042 279.103 240.354 278.42 239.853 277.556C239.351 276.681 239.101 275.684 239.101 274.564C239.101 273.423 239.351 272.42 239.853 271.556C240.354 270.681 241.042 269.999 241.917 269.508C242.802 269.007 243.81 268.756 244.941 268.756C245.591 268.756 246.199 268.857 246.765 269.06C247.341 269.263 247.858 269.54 248.317 269.892C248.775 270.233 249.149 270.633 249.437 271.092L247.933 272.052C247.73 271.743 247.469 271.465 247.149 271.22C246.829 270.975 246.477 270.788 246.093 270.66C245.719 270.521 245.335 270.452 244.941 270.452C244.173 270.452 243.49 270.628 242.893 270.98C242.306 271.332 241.842 271.817 241.501 272.436C241.159 273.044 240.989 273.753 240.989 274.564C240.989 275.353 241.154 276.057 241.485 276.676C241.826 277.295 242.295 277.78 242.893 278.132C243.501 278.484 244.199 278.66 244.989 278.66C245.607 278.66 246.162 278.532 246.653 278.276C247.143 278.02 247.527 277.663 247.805 277.204C248.093 276.745 248.237 276.217 248.237 275.62L250.013 275.396C250.013 276.409 249.794 277.289 249.357 278.036C248.93 278.772 248.333 279.343 247.565 279.748C246.807 280.143 245.933 280.34 244.941 280.34ZM245.549 275.764V274.26H250.013V275.508L249.021 275.764H245.549ZM255.149 280.34C254.349 280.34 253.634 280.164 253.005 279.812C252.386 279.449 251.901 278.953 251.549 278.324C251.197 277.695 251.021 276.969 251.021 276.148C251.021 275.327 251.191 274.601 251.533 273.972C251.885 273.343 252.37 272.852 252.989 272.5C253.607 272.137 254.317 271.956 255.117 271.956C255.917 271.956 256.626 272.137 257.245 272.5C257.863 272.852 258.343 273.343 258.685 273.972C259.037 274.601 259.213 275.327 259.213 276.148C259.213 276.969 259.042 277.695 258.701 278.324C258.359 278.953 257.879 279.449 257.261 279.812C256.642 280.164 255.938 280.34 255.149 280.34ZM255.149 278.692C255.586 278.692 255.975 278.585 256.317 278.372C256.658 278.148 256.925 277.849 257.117 277.476C257.309 277.092 257.405 276.649 257.405 276.148C257.405 275.647 257.303 275.209 257.101 274.836C256.909 274.452 256.642 274.153 256.301 273.94C255.959 273.716 255.565 273.604 255.117 273.604C254.669 273.604 254.274 273.711 253.933 273.924C253.591 274.137 253.325 274.436 253.133 274.82C252.941 275.204 252.845 275.647 252.845 276.148C252.845 276.649 252.941 277.092 253.133 277.476C253.335 277.849 253.607 278.148 253.949 278.372C254.301 278.585 254.701 278.692 255.149 278.692ZM264.445 280.34C263.645 280.34 262.931 280.164 262.301 279.812C261.683 279.449 261.197 278.953 260.845 278.324C260.493 277.695 260.317 276.969 260.317 276.148C260.317 275.327 260.488 274.601 260.829 273.972C261.181 273.343 261.667 272.852 262.285 272.5C262.904 272.137 263.613 271.956 264.413 271.956C265.213 271.956 265.923 272.137 266.541 272.5C267.16 272.852 267.64 273.343 267.981 273.972C268.333 274.601 268.509 275.327 268.509 276.148C268.509 276.969 268.339 277.695 267.997 278.324C267.656 278.953 267.176 279.449 266.557 279.812C265.939 280.164 265.235 280.34 264.445 280.34ZM264.445 278.692C264.883 278.692 265.272 278.585 265.613 278.372C265.955 278.148 266.221 277.849 266.413 277.476C266.605 277.092 266.701 276.649 266.701 276.148C266.701 275.647 266.6 275.209 266.397 274.836C266.205 274.452 265.939 274.153 265.597 273.94C265.256 273.716 264.861 273.604 264.413 273.604C263.965 273.604 263.571 273.711 263.229 273.924C262.888 274.137 262.621 274.436 262.429 274.82C262.237 275.204 262.141 275.647 262.141 276.148C262.141 276.649 262.237 277.092 262.429 277.476C262.632 277.849 262.904 278.148 263.245 278.372C263.597 278.585 263.997 278.692 264.445 278.692ZM275.838 280.148L275.758 278.66V268.948H277.534V280.148H275.838ZM273.23 280.34C272.505 280.34 271.87 280.169 271.326 279.828C270.793 279.476 270.372 278.985 270.062 278.356C269.764 277.727 269.614 276.991 269.614 276.148C269.614 275.295 269.764 274.559 270.062 273.94C270.372 273.311 270.793 272.825 271.326 272.484C271.87 272.132 272.505 271.956 273.23 271.956C273.902 271.956 274.478 272.132 274.958 272.484C275.449 272.825 275.822 273.311 276.078 273.94C276.334 274.559 276.462 275.295 276.462 276.148C276.462 276.991 276.334 277.727 276.078 278.356C275.822 278.985 275.449 279.476 274.958 279.828C274.478 280.169 273.902 280.34 273.23 280.34ZM273.678 278.708C274.084 278.708 274.441 278.601 274.75 278.388C275.07 278.164 275.316 277.86 275.486 277.476C275.668 277.092 275.758 276.649 275.758 276.148C275.758 275.647 275.668 275.204 275.486 274.82C275.316 274.436 275.07 274.137 274.75 273.924C274.441 273.711 274.078 273.604 273.662 273.604C273.236 273.604 272.857 273.711 272.526 273.924C272.196 274.137 271.934 274.436 271.742 274.82C271.561 275.204 271.465 275.647 271.454 276.148C271.465 276.649 271.561 277.092 271.742 277.476C271.934 277.86 272.196 278.164 272.526 278.388C272.868 278.601 273.252 278.708 273.678 278.708Z" fill="#0C6B58"/>
<rect x="302.5" y="257.148" width="72" height="35" rx="10.8" fill="#EAE9F9"/>
<rect x="304" y="258.648" width="69" height="32" rx="9.3" stroke="#2A20BC" stroke-opacity="0.53" stroke-width="3"/>
<path d="M322.742 280.148V268.948H329.638V270.644H324.598V273.62H329.046V275.284H324.598V278.452H329.686V280.148H322.742ZM336.724 280.148L336.644 278.644V276.036C336.644 275.492 336.585 275.039 336.468 274.676C336.361 274.303 336.18 274.02 335.924 273.828C335.678 273.625 335.348 273.524 334.932 273.524C334.548 273.524 334.212 273.604 333.924 273.764C333.636 273.924 333.39 274.175 333.188 274.516L331.62 273.94C331.79 273.588 332.014 273.263 332.292 272.964C332.58 272.655 332.937 272.409 333.364 272.228C333.801 272.047 334.324 271.956 334.932 271.956C335.71 271.956 336.361 272.111 336.884 272.42C337.406 272.719 337.79 273.151 338.036 273.716C338.292 274.281 338.42 274.964 338.42 275.764L338.372 280.148H336.724ZM334.42 280.34C333.46 280.34 332.713 280.127 332.18 279.7C331.657 279.273 331.396 278.671 331.396 277.892C331.396 277.06 331.673 276.425 332.228 275.988C332.793 275.551 333.577 275.332 334.58 275.332H336.724V276.708H335.156C334.441 276.708 333.94 276.809 333.652 277.012C333.364 277.204 333.22 277.481 333.22 277.844C333.22 278.153 333.342 278.399 333.588 278.58C333.844 278.751 334.196 278.836 334.644 278.836C335.049 278.836 335.401 278.745 335.7 278.564C335.998 278.383 336.228 278.143 336.388 277.844C336.558 277.545 336.644 277.209 336.644 276.836H337.172C337.172 277.924 336.953 278.783 336.516 279.412C336.078 280.031 335.38 280.34 334.42 280.34ZM343.146 280.34C342.613 280.34 342.122 280.26 341.674 280.1C341.226 279.94 340.842 279.716 340.522 279.428C340.202 279.129 339.957 278.783 339.786 278.388L341.338 277.7C341.498 277.999 341.733 278.249 342.042 278.452C342.362 278.655 342.714 278.756 343.098 278.756C343.514 278.756 343.845 278.687 344.09 278.548C344.346 278.399 344.474 278.196 344.474 277.94C344.474 277.695 344.378 277.508 344.186 277.38C343.994 277.241 343.722 277.129 343.37 277.044L342.618 276.836C341.861 276.644 341.269 276.34 340.842 275.924C340.416 275.497 340.202 275.012 340.202 274.468C340.202 273.668 340.458 273.049 340.97 272.612C341.493 272.175 342.24 271.956 343.21 271.956C343.701 271.956 344.149 272.031 344.554 272.18C344.97 272.319 345.328 272.521 345.626 272.788C345.925 273.044 346.133 273.348 346.25 273.7L344.762 274.372C344.656 274.105 344.453 273.903 344.154 273.764C343.856 273.615 343.525 273.54 343.162 273.54C342.8 273.54 342.517 273.62 342.314 273.78C342.112 273.929 342.01 274.143 342.01 274.42C342.01 274.58 342.101 274.729 342.282 274.868C342.464 274.996 342.725 275.103 343.066 275.188L344.01 275.412C344.533 275.54 344.96 275.743 345.29 276.02C345.621 276.287 345.866 276.591 346.026 276.932C346.186 277.263 346.266 277.599 346.266 277.94C346.266 278.42 346.128 278.841 345.85 279.204C345.584 279.567 345.216 279.849 344.746 280.052C344.277 280.244 343.744 280.34 343.146 280.34ZM348.951 283.54C348.695 283.54 348.407 283.492 348.087 283.396C347.778 283.3 347.479 283.177 347.191 283.028L347.863 281.572C348.066 281.668 348.253 281.743 348.423 281.796C348.594 281.86 348.733 281.892 348.839 281.892C349.095 281.892 349.309 281.823 349.479 281.684C349.661 281.556 349.805 281.364 349.911 281.108L350.855 278.9L353.559 272.148H355.511L351.799 280.996C351.575 281.508 351.346 281.956 351.111 282.34C350.887 282.724 350.605 283.017 350.263 283.22C349.922 283.433 349.485 283.54 348.951 283.54ZM350.375 280.148L346.791 272.148H348.743L351.527 278.884L352.103 280.148H350.375Z" fill="#2A20BC"/>
</g>
<path d="M406 4C421.464 4 434 16.536 434 32V367H4V32C4 16.536 16.536 4 32 4H406Z" stroke="#9E8FDB" stroke-width="8"/>
<defs>
<clipPath id="clip0_1_590">
<path d="M8 32C8 18.7452 18.7452 8 32 8H406C419.255 8 430 18.7452 430 32V363H8V32Z" fill="white"/>
</clipPath>
</defs>
</svg>
