<svg width="44" height="41" viewBox="0 0 44 41" fill="none" xmlns="http://www.w3.org/2000/svg">
<path d="M21.8146 0.615234C17.5888 0.615234 13.458 1.78821 9.94436 3.98584C6.43076 6.18347 3.69225 9.30704 2.07512 12.9616C0.457988 16.6161 0.0348728 20.6374 0.859279 24.517C1.68369 28.3967 3.71858 31.9603 6.70665 34.7574C9.69472 37.5544 13.5018 39.4592 17.6463 40.2309C21.7909 41.0026 26.0868 40.6066 29.9909 39.0928C33.895 37.5791 37.2319 35.0156 39.5796 31.7266C41.9274 28.4376 43.1804 24.5709 43.1804 20.6152C43.1745 15.3126 40.9215 10.2288 36.9159 6.47928C32.9103 2.72977 27.4793 0.620834 21.8146 0.615234ZM29.5515 25.6806C29.7042 25.8235 29.8253 25.9932 29.908 26.18C29.9906 26.3668 30.0331 26.5669 30.0331 26.7691C30.0331 26.9712 29.9906 27.1714 29.908 27.3581C29.8253 27.5449 29.7042 27.7146 29.5515 27.8575C29.3988 28.0005 29.2175 28.1139 29.018 28.1912C28.8185 28.2686 28.6046 28.3084 28.3887 28.3084C28.1727 28.3084 27.9589 28.2686 27.7594 28.1912C27.5599 28.1139 27.3786 28.0005 27.2259 27.8575L21.8146 22.7902L16.4033 27.8575C16.2506 28.0005 16.0693 28.1139 15.8698 28.1912C15.6703 28.2686 15.4564 28.3084 15.2405 28.3084C15.0245 28.3084 14.8107 28.2686 14.6112 28.1912C14.4117 28.1139 14.2304 28.0005 14.0777 27.8575C13.925 27.7146 13.8039 27.5449 13.7212 27.3581C13.6386 27.1714 13.596 26.9712 13.596 26.7691C13.596 26.5669 13.6386 26.3668 13.7212 26.18C13.8039 25.9932 13.925 25.8235 14.0777 25.6806L19.4911 20.6152L14.0777 15.5498C13.7693 15.2612 13.596 14.8696 13.596 14.4614C13.596 14.0531 13.7693 13.6616 14.0777 13.3729C14.3861 13.0842 14.8043 12.9221 15.2405 12.9221C15.6766 12.9221 16.0949 13.0842 16.4033 13.3729L21.8146 18.4402L27.2259 13.3729C27.3786 13.23 27.5599 13.1166 27.7594 13.0392C27.9589 12.9619 28.1727 12.9221 28.3887 12.9221C28.6046 12.9221 28.8185 12.9619 29.018 13.0392C29.2175 13.1166 29.3988 13.23 29.5515 13.3729C29.7042 13.5159 29.8253 13.6856 29.908 13.8723C29.9906 14.0591 30.0331 14.2592 30.0331 14.4614C30.0331 14.6635 29.9906 14.8637 29.908 15.0505C29.8253 15.2372 29.7042 15.4069 29.5515 15.5498L24.1381 20.6152L29.5515 25.6806Z" fill="#F2E1F9"/>
<path d="M29.5515 25.6806C29.7042 25.8235 29.8253 25.9932 29.908 26.18C29.9906 26.3668 30.0331 26.5669 30.0331 26.7691C30.0331 26.9712 29.9906 27.1714 29.908 27.3581C29.8253 27.5449 29.7042 27.7146 29.5515 27.8575C29.3988 28.0005 29.2175 28.1139 29.018 28.1912C28.8185 28.2686 28.6046 28.3084 28.3887 28.3084C28.1727 28.3084 27.9589 28.2686 27.7594 28.1912C27.5599 28.1139 27.3786 28.0005 27.2259 27.8575L21.8146 22.7902L16.4033 27.8575C16.2506 28.0005 16.0693 28.1139 15.8698 28.1912C15.6703 28.2686 15.4564 28.3084 15.2405 28.3084C15.0245 28.3084 14.8107 28.2686 14.6112 28.1912C14.4117 28.1139 14.2304 28.0005 14.0777 27.8575C13.925 27.7146 13.8039 27.5449 13.7212 27.3581C13.6386 27.1714 13.596 26.9712 13.596 26.7691C13.596 26.5669 13.6386 26.3668 13.7212 26.18C13.8039 25.9932 13.925 25.8235 14.0777 25.6806L19.4911 20.6152L14.0777 15.5498C13.7693 15.2612 13.596 14.8696 13.596 14.4614C13.596 14.0531 13.7693 13.6616 14.0777 13.3729C14.3861 13.0842 14.8043 12.9221 15.2405 12.9221C15.6766 12.9221 16.0949 13.0842 16.4033 13.3729L21.8146 18.4402L27.2259 13.3729C27.3786 13.23 27.5599 13.1166 27.7594 13.0392C27.9589 12.9619 28.1727 12.9221 28.3887 12.9221C28.6046 12.9221 28.8185 12.9619 29.018 13.0392C29.2175 13.1166 29.3988 13.23 29.5515 13.3729C29.7042 13.5159 29.8253 13.6856 29.908 13.8723C29.9906 14.0591 30.0331 14.2592 30.0331 14.4614C30.0331 14.6635 29.9906 14.8637 29.908 15.0505C29.8253 15.2372 29.7042 15.4069 29.5515 15.5498L24.1381 20.6152L29.5515 25.6806Z" fill="#9E8FDB"/>
</svg>
