<svg width="91" height="58" viewBox="0 0 91 58" fill="none" xmlns="http://www.w3.org/2000/svg">
<rect x="-11.5" y="2.5" width="100" height="53" rx="12.5" stroke="#E3CEEB" stroke-width="5"/>
<path d="M18.1608 37.788C16.4648 37.788 14.9528 37.42 13.6248 36.684C12.3128 35.932 11.2808 34.908 10.5288 33.612C9.77684 32.3 9.40084 30.804 9.40084 29.124C9.40084 27.412 9.77684 25.908 10.5288 24.612C11.2808 23.3 12.3128 22.276 13.6248 21.54C14.9528 20.788 16.4648 20.412 18.1608 20.412C19.1368 20.412 20.0488 20.564 20.8968 20.868C21.7608 21.172 22.5368 21.588 23.2248 22.116C23.9128 22.628 24.4728 23.228 24.9048 23.916L22.6488 25.356C22.3448 24.892 21.9528 24.476 21.4728 24.108C20.9928 23.74 20.4648 23.46 19.8888 23.268C19.3288 23.06 18.7528 22.956 18.1608 22.956C17.0088 22.956 15.9848 23.22 15.0888 23.748C14.2088 24.276 13.5128 25.004 13.0008 25.932C12.4888 26.844 12.2328 27.908 12.2328 29.124C12.2328 30.308 12.4808 31.364 12.9768 32.292C13.4888 33.22 14.1928 33.948 15.0888 34.476C16.0008 35.004 17.0488 35.268 18.2328 35.268C19.1608 35.268 19.9928 35.076 20.7288 34.692C21.4648 34.308 22.0408 33.772 22.4568 33.084C22.8888 32.396 23.1048 31.604 23.1048 30.708L25.7688 30.372C25.7688 31.892 25.4408 33.212 24.7848 34.332C24.1448 35.436 23.2488 36.292 22.0968 36.9C20.9608 37.492 19.6488 37.788 18.1608 37.788ZM19.0728 30.924V28.668H25.7688V30.54L24.2808 30.924H19.0728ZM33.4728 37.788C32.2728 37.788 31.2008 37.524 30.2568 36.996C29.3288 36.452 28.6008 35.708 28.0728 34.764C27.5448 33.82 27.2808 32.732 27.2808 31.5C27.2808 30.268 27.5368 29.18 28.0488 28.236C28.5768 27.292 29.3048 26.556 30.2328 26.028C31.1608 25.484 32.2248 25.212 33.4248 25.212C34.6248 25.212 35.6888 25.484 36.6168 26.028C37.5448 26.556 38.2648 27.292 38.7768 28.236C39.3048 29.18 39.5688 30.268 39.5688 31.5C39.5688 32.732 39.3128 33.82 38.8008 34.764C38.2888 35.708 37.5688 36.452 36.6408 36.996C35.7128 37.524 34.6568 37.788 33.4728 37.788ZM33.4728 35.316C34.1288 35.316 34.7128 35.156 35.2248 34.836C35.7368 34.5 36.1368 34.052 36.4248 33.492C36.7128 32.916 36.8568 32.252 36.8568 31.5C36.8568 30.748 36.7048 30.092 36.4008 29.532C36.1128 28.956 35.7128 28.508 35.2008 28.188C34.6888 27.852 34.0968 27.684 33.4248 27.684C32.7528 27.684 32.1608 27.844 31.6488 28.164C31.1368 28.484 30.7368 28.932 30.4488 29.508C30.1608 30.084 30.0168 30.748 30.0168 31.5C30.0168 32.252 30.1608 32.916 30.4488 33.492C30.7528 34.052 31.1608 34.5 31.6728 34.836C32.2008 35.156 32.8008 35.316 33.4728 35.316ZM47.4182 37.788C46.2182 37.788 45.1462 37.524 44.2022 36.996C43.2742 36.452 42.5462 35.708 42.0182 34.764C41.4902 33.82 41.2262 32.732 41.2262 31.5C41.2262 30.268 41.4822 29.18 41.9942 28.236C42.5222 27.292 43.2502 26.556 44.1782 26.028C45.1062 25.484 46.1702 25.212 47.3702 25.212C48.5702 25.212 49.6342 25.484 50.5622 26.028C51.4902 26.556 52.2102 27.292 52.7222 28.236C53.2502 29.18 53.5142 30.268 53.5142 31.5C53.5142 32.732 53.2582 33.82 52.7462 34.764C52.2342 35.708 51.5142 36.452 50.5862 36.996C49.6582 37.524 48.6022 37.788 47.4182 37.788ZM47.4182 35.316C48.0742 35.316 48.6582 35.156 49.1702 34.836C49.6822 34.5 50.0822 34.052 50.3702 33.492C50.6582 32.916 50.8022 32.252 50.8022 31.5C50.8022 30.748 50.6502 30.092 50.3462 29.532C50.0582 28.956 49.6582 28.508 49.1462 28.188C48.6342 27.852 48.0422 27.684 47.3702 27.684C46.6982 27.684 46.1062 27.844 45.5942 28.164C45.0822 28.484 44.6822 28.932 44.3942 29.508C44.1062 30.084 43.9622 30.748 43.9622 31.5C43.9622 32.252 44.1062 32.916 44.3942 33.492C44.6982 34.052 45.1062 34.5 45.6182 34.836C46.1462 35.156 46.7462 35.316 47.4182 35.316ZM64.5075 37.5L64.3875 35.268V20.7H67.0515V37.5H64.5075ZM60.5955 37.788C59.5075 37.788 58.5555 37.532 57.7395 37.02C56.9395 36.492 56.3075 35.756 55.8435 34.812C55.3955 33.868 55.1715 32.764 55.1715 31.5C55.1715 30.22 55.3955 29.116 55.8435 28.188C56.3075 27.244 56.9395 26.516 57.7395 26.004C58.5555 25.476 59.5075 25.212 60.5955 25.212C61.6035 25.212 62.4675 25.476 63.1875 26.004C63.9235 26.516 64.4835 27.244 64.8675 28.188C65.2515 29.116 65.4435 30.22 65.4435 31.5C65.4435 32.764 65.2515 33.868 64.8675 34.812C64.4835 35.756 63.9235 36.492 63.1875 37.02C62.4675 37.532 61.6035 37.788 60.5955 37.788ZM61.2675 35.34C61.8755 35.34 62.4115 35.18 62.8755 34.86C63.3555 34.524 63.7235 34.068 63.9795 33.492C64.2515 32.916 64.3875 32.252 64.3875 31.5C64.3875 30.748 64.2515 30.084 63.9795 29.508C63.7235 28.932 63.3555 28.484 62.8755 28.164C62.4115 27.844 61.8675 27.684 61.2435 27.684C60.6035 27.684 60.0355 27.844 59.5395 28.164C59.0435 28.484 58.6515 28.932 58.3635 29.508C58.0915 30.084 57.9475 30.748 57.9315 31.5C57.9475 32.252 58.0915 32.916 58.3635 33.492C58.6515 34.068 59.0435 34.524 59.5395 34.86C60.0515 35.18 60.6275 35.34 61.2675 35.34Z" fill="#C8ADD3"/>
</svg>
