<svg width="275" height="80" viewBox="0 0 275 80" fill="none" xmlns="http://www.w3.org/2000/svg">
<rect x="1.8" y="1.8" width="116.4" height="76.4" rx="38.2" fill="white"/>
<rect x="1.8" y="1.8" width="116.4" height="76.4" rx="38.2" stroke="#6298CA" stroke-width="3.6"/>
<path d="M75.9932 48.6412L67.3504 39.9994L75.9904 31.3585C76.1622 31.1865 76.2587 30.9534 76.2587 30.7104C76.2587 30.4673 76.1622 30.2342 75.9904 30.0623L69.9378 24.0083C69.7659 23.8363 69.5326 23.7397 69.2895 23.7397C69.0463 23.7397 68.8131 23.8363 68.6411 24.0083L59.9998 32.6492L51.3598 24.0083C51.016 23.664 50.4073 23.664 50.0631 24.0083L44.0091 30.0613C43.8371 30.2333 43.7406 30.4665 43.7406 30.7097C43.7406 30.9528 43.8371 31.1861 44.0091 31.358L52.6505 39.9994L44.0077 48.6417C43.8361 48.8138 43.7397 49.047 43.7397 49.2901C43.7397 49.5331 43.8361 49.7663 44.0077 49.9384L50.0608 55.9919C50.2327 56.1639 50.4659 56.2604 50.7091 56.2604C50.9523 56.2604 51.1855 56.1639 51.3574 55.9919L59.9998 47.3496L68.6425 55.9915C68.8218 56.1703 69.0554 56.2601 69.2909 56.2601C69.5263 56.2601 69.7604 56.1703 69.9397 55.9915L75.9937 49.9379C76.1655 49.7659 76.262 49.5327 76.2619 49.2895C76.2619 49.0463 76.1652 48.8131 75.9932 48.6412Z" fill="#AB091E"/>
<rect x="156.36" y="1.8" width="116.4" height="76.4" rx="38.2" fill="white"/>
<rect x="156.36" y="1.8" width="116.4" height="76.4" rx="38.2" stroke="#6298CA" stroke-width="3.6"/>
<path d="M235.316 33.3234L212.204 56.4354C211.664 56.9751 210.931 57.2783 210.168 57.2783C209.404 57.2783 208.672 56.9751 208.132 56.4354L195.24 43.4754C194.701 42.9355 194.398 42.2036 194.398 41.4405C194.398 40.6775 194.701 39.9456 195.24 39.4056L198.84 35.8056C199.38 35.2681 200.111 34.9664 200.873 34.9664C201.634 34.9664 202.365 35.2681 202.905 35.8056L210.24 42.9192L227.657 25.7166C228.196 25.1786 228.928 24.8765 229.69 24.8765C230.452 24.8765 231.183 25.1786 231.723 25.7166L235.314 29.2338C235.584 29.5015 235.798 29.8199 235.945 30.1708C236.091 30.5217 236.166 30.8981 236.167 31.2783C236.167 31.6585 236.092 32.0349 235.946 32.3859C235.8 32.737 235.585 33.0556 235.316 33.3234Z" fill="#0C6B58"/>
</svg>
