<svg width="44" height="40" viewBox="0 0 44 40" fill="none" xmlns="http://www.w3.org/2000/svg">
<path d="M29.6115 25.0381C29.7639 25.1785 29.8847 25.3453 29.9672 25.5288C30.0496 25.7122 30.0921 25.9089 30.0921 26.1075C30.0921 26.3061 30.0496 26.5028 29.9672 26.6863C29.8847 26.8698 29.7639 27.0365 29.6115 27.1769C29.4592 27.3174 29.2783 27.4288 29.0792 27.5048C28.8802 27.5808 28.6668 27.6199 28.4514 27.6199C28.2359 27.6199 28.0226 27.5808 27.8235 27.5048C27.6245 27.4288 27.4436 27.3174 27.2912 27.1769L21.8923 22.1983L16.4933 27.1769C16.341 27.3174 16.1601 27.4288 15.961 27.5048C15.762 27.5808 15.5486 27.6199 15.3332 27.6199C15.1177 27.6199 14.9044 27.5808 14.7053 27.5048C14.5063 27.4288 14.3254 27.3174 14.173 27.1769C14.0207 27.0365 13.8998 26.8698 13.8174 26.6863C13.7349 26.5028 13.6925 26.3061 13.6925 26.1075C13.6925 25.9089 13.7349 25.7122 13.8174 25.5288C13.8998 25.3453 14.0207 25.1785 14.173 25.0381L19.574 20.0614L14.173 15.0847C13.8653 14.8011 13.6925 14.4164 13.6925 14.0153C13.6925 13.6142 13.8653 13.2296 14.173 12.9459C14.4807 12.6623 14.898 12.503 15.3332 12.503C15.7683 12.503 16.1856 12.6623 16.4933 12.9459L21.8923 17.9245L27.2912 12.9459C27.4436 12.8055 27.6245 12.6941 27.8235 12.6181C28.0226 12.5421 28.2359 12.503 28.4514 12.503C28.6668 12.503 28.8802 12.5421 29.0792 12.6181C29.2783 12.6941 29.4592 12.8055 29.6115 12.9459C29.7639 13.0864 29.8847 13.2531 29.9672 13.4366C30.0496 13.6201 30.0921 13.8167 30.0921 14.0153C30.0921 14.2139 30.0496 14.4106 29.9672 14.5941C29.8847 14.7776 29.7639 14.9443 29.6115 15.0847L24.2105 20.0614L29.6115 25.0381Z" fill="#F87483"/>
</svg>