<svg width="24" height="24" viewBox="0 0 24 24" fill="none" xmlns="http://www.w3.org/2000/svg">
<path d="M22.295 12.7257C22.6462 12.3742 22.8434 11.8976 22.8434 11.4007C22.8434 10.9039 22.6462 10.4273 22.295 10.0757L15.225 3.00199C14.8733 2.65024 14.3962 2.45264 13.8988 2.45264C13.4013 2.45264 12.9243 2.65024 12.5725 3.00199C12.2208 3.35373 12.0232 3.8308 12.0232 4.32824C12.0232 4.82568 12.2208 5.30274 12.5725 5.65449L16.4425 9.52574H2.02378C1.5265 9.52574 1.04959 9.72328 0.697956 10.0749C0.346325 10.4265 0.148779 10.9035 0.148779 11.4007C0.148779 11.898 0.346325 12.3749 0.697956 12.7266C1.04959 13.0782 1.5265 13.2757 2.02378 13.2757L16.4425 13.2757L12.5725 17.1457C12.3984 17.3199 12.2602 17.5267 12.166 17.7542C12.0717 17.9818 12.0232 18.2257 12.0232 18.472C12.0232 18.7183 12.0717 18.9622 12.166 19.1897C12.2602 19.4173 12.3984 19.6241 12.5725 19.7982C12.7467 19.9724 12.9535 20.1106 13.181 20.2048C13.4086 20.2991 13.6525 20.3476 13.8988 20.3476C14.1451 20.3476 14.389 20.2991 14.6165 20.2048C14.8441 20.1106 15.0509 19.9724 15.225 19.7982L22.295 12.7257Z" fill="#AA4956"/>
</svg>
