<svg width="47" height="39" viewBox="0 0 47 39" fill="none" xmlns="http://www.w3.org/2000/svg">
<path d="M46.0424 10.1671L20.0354 37.9855C19.4277 38.6351 18.6038 39 17.7446 39C16.8855 39 16.0615 38.6351 15.4538 37.9855L0.94743 22.3864C0.34075 21.7364 0 20.8555 0 19.9371C0 19.0187 0.34075 18.1378 0.94743 17.4878L4.99836 13.1547C5.60572 12.5078 6.42796 12.1446 7.28511 12.1446C8.14226 12.1446 8.9645 12.5078 9.57186 13.1547L17.8256 21.7169L37.424 1.01126C38.0315 0.363646 38.8542 0 39.7118 0C40.5695 0 41.3921 0.363646 41.9996 1.01126L46.0404 5.24469C46.3443 5.5668 46.5855 5.95008 46.7502 6.37242C46.9149 6.79477 46.9998 7.24781 47 7.70543C47.0002 8.16304 46.9157 8.61617 46.7513 9.03867C46.587 9.46117 46.346 9.84468 46.0424 10.1671Z" fill="#BDE3DC"/>
</svg>
