<svg width="544" height="69" viewBox="0 0 544 69" fill="none" xmlns="http://www.w3.org/2000/svg">
<rect x="1.8" y="6.3" width="120.4" height="56.4" rx="19.8" fill="#FFF9EA"/>
<rect x="1.8" y="6.3" width="120.4" height="56.4" rx="19.8" stroke="#FBC02D" stroke-width="3.6"/>
<path d="M39.665 45.5L31.475 24.5H34.955L43.355 45.5H39.665ZM22.895 45.5L31.265 24.5H34.775L26.585 45.5H22.895ZM26.825 40.34V37.25H39.395V40.34H26.825ZM51.6479 51.89C50.5879 51.89 49.6279 51.8 48.7679 51.62C47.9279 51.44 47.2179 51.23 46.6379 50.99C46.0579 50.75 45.6079 50.52 45.2879 50.3L46.5779 47.6C46.8579 47.74 47.2279 47.91 47.6879 48.11C48.1679 48.33 48.7279 48.52 49.3679 48.68C50.0079 48.84 50.7279 48.92 51.5279 48.92C52.3879 48.92 53.1579 48.74 53.8379 48.38C54.5179 48.04 55.0479 47.51 55.4279 46.79C55.8079 46.07 55.9979 45.15 55.9979 44.03V30.5H59.3579V43.94C59.3579 45.64 59.0379 47.08 58.3979 48.26C57.7579 49.46 56.8579 50.36 55.6979 50.96C54.5379 51.58 53.1879 51.89 51.6479 51.89ZM51.1379 45.2C49.7779 45.2 48.5879 44.89 47.5679 44.27C46.5679 43.65 45.7779 42.79 45.1979 41.69C44.6379 40.57 44.3579 39.28 44.3579 37.82C44.3579 36.26 44.6379 34.91 45.1979 33.77C45.7779 32.63 46.5679 31.74 47.5679 31.1C48.5879 30.46 49.7779 30.14 51.1379 30.14C52.3579 30.14 53.4179 30.46 54.3179 31.1C55.2379 31.74 55.9479 32.64 56.4479 33.8C56.9479 34.94 57.1979 36.29 57.1979 37.85C57.1979 39.33 56.9479 40.62 56.4479 41.72C55.9479 42.82 55.2379 43.68 54.3179 44.3C53.4179 44.9 52.3579 45.2 51.1379 45.2ZM52.0679 42.35C52.8279 42.35 53.4879 42.15 54.0479 41.75C54.6279 41.35 55.0779 40.81 55.3979 40.13C55.7179 39.43 55.8779 38.63 55.8779 37.73C55.8779 36.81 55.7179 36.01 55.3979 35.33C55.0779 34.63 54.6279 34.09 54.0479 33.71C53.4679 33.31 52.7979 33.11 52.0379 33.11C51.2379 33.11 50.5279 33.31 49.9079 33.71C49.3079 34.09 48.8279 34.63 48.4679 35.33C48.1279 36.01 47.9579 36.81 47.9579 37.73C47.9579 38.63 48.1279 39.43 48.4679 40.13C48.8279 40.81 49.3179 41.35 49.9379 41.75C50.5579 42.15 51.2679 42.35 52.0679 42.35ZM72.219 45.5L72.069 42.68V37.79C72.069 36.77 71.959 35.92 71.739 35.24C71.539 34.54 71.199 34.01 70.719 33.65C70.259 33.27 69.639 33.08 68.859 33.08C68.139 33.08 67.509 33.23 66.969 33.53C66.429 33.83 65.969 34.3 65.589 34.94L62.649 33.86C62.969 33.2 63.389 32.59 63.909 32.03C64.449 31.45 65.119 30.99 65.919 30.65C66.739 30.31 67.719 30.14 68.859 30.14C70.319 30.14 71.539 30.43 72.519 31.01C73.499 31.57 74.219 32.38 74.679 33.44C75.159 34.5 75.399 35.78 75.399 37.28L75.309 45.5H72.219ZM67.899 45.86C66.099 45.86 64.699 45.46 63.699 44.66C62.719 43.86 62.229 42.73 62.229 41.27C62.229 39.71 62.749 38.52 63.789 37.7C64.849 36.88 66.319 36.47 68.199 36.47H72.219V39.05H69.279C67.939 39.05 66.999 39.24 66.459 39.62C65.919 39.98 65.649 40.5 65.649 41.18C65.649 41.76 65.879 42.22 66.339 42.56C66.819 42.88 67.479 43.04 68.319 43.04C69.079 43.04 69.739 42.87 70.299 42.53C70.859 42.19 71.289 41.74 71.589 41.18C71.909 40.62 72.069 39.99 72.069 39.29H73.059C73.059 41.33 72.649 42.94 71.829 44.12C71.009 45.28 69.699 45.86 67.899 45.86ZM79.0114 45.5V30.5H82.3414V45.5H79.0114ZM80.6914 27.65C80.1514 27.65 79.6814 27.46 79.2814 27.08C78.9014 26.68 78.7114 26.21 78.7114 25.67C78.7114 25.13 78.9014 24.67 79.2814 24.29C79.6814 23.91 80.1514 23.72 80.6914 23.72C81.2314 23.72 81.6914 23.91 82.0714 24.29C82.4714 24.67 82.6714 25.13 82.6714 25.67C82.6714 26.21 82.4714 26.68 82.0714 27.08C81.6914 27.46 81.2314 27.65 80.6914 27.65ZM86.3014 45.5V30.5H89.4514L89.6614 33.26V45.5H86.3014ZM96.4714 45.5V37.82H99.8314V45.5H96.4714ZM96.4714 37.82C96.4714 36.62 96.3314 35.7 96.0514 35.06C95.7914 34.4 95.4114 33.94 94.9114 33.68C94.4314 33.42 93.8614 33.29 93.2014 33.29C92.0814 33.27 91.2114 33.64 90.5914 34.4C89.9714 35.16 89.6614 36.25 89.6614 37.67H88.4014C88.4014 36.09 88.6314 34.74 89.0914 33.62C89.5514 32.48 90.2114 31.62 91.0714 31.04C91.9314 30.44 92.9514 30.14 94.1314 30.14C95.3314 30.14 96.3514 30.38 97.1914 30.86C98.0514 31.34 98.7014 32.09 99.1414 33.11C99.6014 34.11 99.8314 35.42 99.8314 37.04V37.82H96.4714Z" fill="#001F2E"/>
<rect x="141.8" y="6.3" width="120.4" height="56.4" rx="19.8" fill="#FDECEB"/>
<rect x="141.8" y="6.3" width="120.4" height="56.4" rx="19.8" stroke="#E53935" stroke-width="3.6"/>
<path d="M185.102 45.5V24.5H188.582V45.5H185.102ZM171.062 45.5V24.5H174.542V45.5H171.062ZM173.792 36.32V33.14H186.512V36.32H173.792ZM202.082 45.5L201.932 42.68V37.79C201.932 36.77 201.822 35.92 201.602 35.24C201.402 34.54 201.062 34.01 200.582 33.65C200.122 33.27 199.502 33.08 198.722 33.08C198.002 33.08 197.372 33.23 196.832 33.53C196.292 33.83 195.832 34.3 195.452 34.94L192.512 33.86C192.832 33.2 193.252 32.59 193.772 32.03C194.312 31.45 194.982 30.99 195.782 30.65C196.602 30.31 197.582 30.14 198.722 30.14C200.182 30.14 201.402 30.43 202.382 31.01C203.362 31.57 204.082 32.38 204.542 33.44C205.022 34.5 205.262 35.78 205.262 37.28L205.172 45.5H202.082ZM197.762 45.86C195.962 45.86 194.562 45.46 193.562 44.66C192.582 43.86 192.092 42.73 192.092 41.27C192.092 39.71 192.612 38.52 193.652 37.7C194.712 36.88 196.182 36.47 198.062 36.47H202.082V39.05H199.142C197.802 39.05 196.862 39.24 196.322 39.62C195.782 39.98 195.512 40.5 195.512 41.18C195.512 41.76 195.742 42.22 196.202 42.56C196.682 42.88 197.342 43.04 198.182 43.04C198.942 43.04 199.602 42.87 200.162 42.53C200.722 42.19 201.152 41.74 201.452 41.18C201.772 40.62 201.932 39.99 201.932 39.29H202.922C202.922 41.33 202.512 42.94 201.692 44.12C200.872 45.28 199.562 45.86 197.762 45.86ZM210.885 37.52C210.885 35.9 211.195 34.57 211.815 33.53C212.435 32.49 213.235 31.72 214.215 31.22C215.215 30.7 216.255 30.44 217.335 30.44V33.65C216.415 33.65 215.545 33.78 214.725 34.04C213.925 34.28 213.275 34.68 212.775 35.24C212.275 35.8 212.025 36.54 212.025 37.46L210.885 37.52ZM208.665 45.5V30.5H212.025V45.5H208.665ZM230.393 45.5L230.243 42.71V24.5H233.573V45.5H230.393ZM225.503 45.86C224.143 45.86 222.953 45.54 221.933 44.9C220.933 44.24 220.143 43.32 219.563 42.14C219.003 40.96 218.723 39.58 218.723 38C218.723 36.4 219.003 35.02 219.563 33.86C220.143 32.68 220.933 31.77 221.933 31.13C222.953 30.47 224.143 30.14 225.503 30.14C226.763 30.14 227.843 30.47 228.743 31.13C229.663 31.77 230.363 32.68 230.843 33.86C231.323 35.02 231.563 36.4 231.563 38C231.563 39.58 231.323 40.96 230.843 42.14C230.363 43.32 229.663 44.24 228.743 44.9C227.843 45.54 226.763 45.86 225.503 45.86ZM226.343 42.8C227.103 42.8 227.773 42.6 228.353 42.2C228.953 41.78 229.413 41.21 229.733 40.49C230.073 39.77 230.243 38.94 230.243 38C230.243 37.06 230.073 36.23 229.733 35.51C229.413 34.79 228.953 34.23 228.353 33.83C227.773 33.43 227.093 33.23 226.313 33.23C225.513 33.23 224.803 33.43 224.183 33.83C223.563 34.23 223.073 34.79 222.713 35.51C222.373 36.23 222.193 37.06 222.173 38C222.193 38.94 222.373 39.77 222.713 40.49C223.073 41.21 223.563 41.78 224.183 42.2C224.823 42.6 225.543 42.8 226.343 42.8Z" fill="#001F2E"/>
<rect x="281.8" y="6.3" width="120.4" height="56.4" rx="19.8" fill="#E6F3F1"/>
<rect x="281.8" y="6.3" width="120.4" height="56.4" rx="19.8" stroke="#007F70" stroke-width="3.6"/>
<path d="M316.576 45.86C314.456 45.86 312.566 45.4 310.906 44.48C309.266 43.54 307.976 42.26 307.036 40.64C306.096 39 305.626 37.13 305.626 35.03C305.626 32.89 306.096 31.01 307.036 29.39C307.976 27.75 309.266 26.47 310.906 25.55C312.566 24.61 314.456 24.14 316.576 24.14C317.796 24.14 318.936 24.33 319.996 24.71C321.076 25.09 322.046 25.61 322.906 26.27C323.766 26.91 324.466 27.66 325.006 28.52L322.186 30.32C321.806 29.74 321.316 29.22 320.716 28.76C320.116 28.3 319.456 27.95 318.736 27.71C318.036 27.45 317.316 27.32 316.576 27.32C315.136 27.32 313.856 27.65 312.736 28.31C311.636 28.97 310.766 29.88 310.126 31.04C309.486 32.18 309.166 33.51 309.166 35.03C309.166 36.51 309.476 37.83 310.096 38.99C310.736 40.15 311.616 41.06 312.736 41.72C313.876 42.38 315.186 42.71 316.666 42.71C317.826 42.71 318.866 42.47 319.786 41.99C320.706 41.51 321.426 40.84 321.946 39.98C322.486 39.12 322.756 38.13 322.756 37.01L326.086 36.59C326.086 38.49 325.676 40.14 324.856 41.54C324.056 42.92 322.936 43.99 321.496 44.75C320.076 45.49 318.436 45.86 316.576 45.86ZM317.716 37.28V34.46H326.086V36.8L324.226 37.28H317.716ZM335.716 45.86C334.216 45.86 332.876 45.53 331.696 44.87C330.536 44.19 329.626 43.26 328.966 42.08C328.306 40.9 327.976 39.54 327.976 38C327.976 36.46 328.296 35.1 328.936 33.92C329.596 32.74 330.506 31.82 331.666 31.16C332.826 30.48 334.156 30.14 335.656 30.14C337.156 30.14 338.486 30.48 339.646 31.16C340.806 31.82 341.706 32.74 342.346 33.92C343.006 35.1 343.336 36.46 343.336 38C343.336 39.54 343.016 40.9 342.376 42.08C341.736 43.26 340.836 44.19 339.676 44.87C338.516 45.53 337.196 45.86 335.716 45.86ZM335.716 42.77C336.536 42.77 337.266 42.57 337.906 42.17C338.546 41.75 339.046 41.19 339.406 40.49C339.766 39.77 339.946 38.94 339.946 38C339.946 37.06 339.756 36.24 339.376 35.54C339.016 34.82 338.516 34.26 337.876 33.86C337.236 33.44 336.496 33.23 335.656 33.23C334.816 33.23 334.076 33.43 333.436 33.83C332.796 34.23 332.296 34.79 331.936 35.51C331.576 36.23 331.396 37.06 331.396 38C331.396 38.94 331.576 39.77 331.936 40.49C332.316 41.19 332.826 41.75 333.466 42.17C334.126 42.57 334.876 42.77 335.716 42.77ZM353.148 45.86C351.648 45.86 350.308 45.53 349.128 44.87C347.968 44.19 347.058 43.26 346.398 42.08C345.738 40.9 345.408 39.54 345.408 38C345.408 36.46 345.728 35.1 346.368 33.92C347.028 32.74 347.938 31.82 349.098 31.16C350.258 30.48 351.588 30.14 353.088 30.14C354.588 30.14 355.918 30.48 357.078 31.16C358.238 31.82 359.138 32.74 359.778 33.92C360.438 35.1 360.768 36.46 360.768 38C360.768 39.54 360.448 40.9 359.808 42.08C359.168 43.26 358.268 44.19 357.108 44.87C355.948 45.53 354.628 45.86 353.148 45.86ZM353.148 42.77C353.968 42.77 354.698 42.57 355.338 42.17C355.978 41.75 356.478 41.19 356.838 40.49C357.198 39.77 357.378 38.94 357.378 38C357.378 37.06 357.188 36.24 356.808 35.54C356.448 34.82 355.948 34.26 355.308 33.86C354.668 33.44 353.928 33.23 353.088 33.23C352.248 33.23 351.508 33.43 350.868 33.83C350.228 34.23 349.728 34.79 349.368 35.51C349.008 36.23 348.828 37.06 348.828 38C348.828 38.94 349.008 39.77 349.368 40.49C349.748 41.19 350.258 41.75 350.898 42.17C351.558 42.57 352.308 42.77 353.148 42.77ZM374.509 45.5L374.359 42.71V24.5H377.689V45.5H374.509ZM369.619 45.86C368.259 45.86 367.069 45.54 366.049 44.9C365.049 44.24 364.259 43.32 363.679 42.14C363.119 40.96 362.839 39.58 362.839 38C362.839 36.4 363.119 35.02 363.679 33.86C364.259 32.68 365.049 31.77 366.049 31.13C367.069 30.47 368.259 30.14 369.619 30.14C370.879 30.14 371.959 30.47 372.859 31.13C373.779 31.77 374.479 32.68 374.959 33.86C375.439 35.02 375.679 36.4 375.679 38C375.679 39.58 375.439 40.96 374.959 42.14C374.479 43.32 373.779 44.24 372.859 44.9C371.959 45.54 370.879 45.86 369.619 45.86ZM370.459 42.8C371.219 42.8 371.889 42.6 372.469 42.2C373.069 41.78 373.529 41.21 373.849 40.49C374.189 39.77 374.359 38.94 374.359 38C374.359 37.06 374.189 36.23 373.849 35.51C373.529 34.79 373.069 34.23 372.469 33.83C371.889 33.43 371.209 33.23 370.429 33.23C369.629 33.23 368.919 33.43 368.299 33.83C367.679 34.23 367.189 34.79 366.829 35.51C366.489 36.23 366.309 37.06 366.289 38C366.309 38.94 366.489 39.77 366.829 40.49C367.189 41.21 367.679 41.78 368.299 42.2C368.939 42.6 369.659 42.8 370.459 42.8Z" fill="#001F2E"/>
<rect x="421.8" y="6.3" width="120.4" height="56.4" rx="19.8" fill="#EAE9F9"/>
<rect x="421.8" y="6.3" width="120.4" height="56.4" rx="19.8" stroke="#2A20BC" stroke-width="3.6"/>
<path d="M452.454 45.5V24.5H465.384V27.68H455.934V33.26H464.274V36.38H455.934V42.32H465.474V45.5H452.454ZM478.669 45.5L478.519 42.68V37.79C478.519 36.77 478.409 35.92 478.189 35.24C477.989 34.54 477.649 34.01 477.169 33.65C476.709 33.27 476.089 33.08 475.309 33.08C474.589 33.08 473.959 33.23 473.419 33.53C472.879 33.83 472.419 34.3 472.039 34.94L469.099 33.86C469.419 33.2 469.839 32.59 470.359 32.03C470.899 31.45 471.569 30.99 472.369 30.65C473.189 30.31 474.169 30.14 475.309 30.14C476.769 30.14 477.989 30.43 478.969 31.01C479.949 31.57 480.669 32.38 481.129 33.44C481.609 34.5 481.849 35.78 481.849 37.28L481.759 45.5H478.669ZM474.349 45.86C472.549 45.86 471.149 45.46 470.149 44.66C469.169 43.86 468.679 42.73 468.679 41.27C468.679 39.71 469.199 38.52 470.239 37.7C471.299 36.88 472.769 36.47 474.649 36.47H478.669V39.05H475.729C474.389 39.05 473.449 39.24 472.909 39.62C472.369 39.98 472.099 40.5 472.099 41.18C472.099 41.76 472.329 42.22 472.789 42.56C473.269 42.88 473.929 43.04 474.769 43.04C475.529 43.04 476.189 42.87 476.749 42.53C477.309 42.19 477.739 41.74 478.039 41.18C478.359 40.62 478.519 39.99 478.519 39.29H479.509C479.509 41.33 479.099 42.94 478.279 44.12C477.459 45.28 476.149 45.86 474.349 45.86ZM490.712 45.86C489.712 45.86 488.792 45.71 487.952 45.41C487.112 45.11 486.392 44.69 485.792 44.15C485.192 43.59 484.732 42.94 484.412 42.2L487.322 40.91C487.622 41.47 488.062 41.94 488.642 42.32C489.242 42.7 489.902 42.89 490.622 42.89C491.402 42.89 492.022 42.76 492.482 42.5C492.962 42.22 493.202 41.84 493.202 41.36C493.202 40.9 493.022 40.55 492.662 40.31C492.302 40.05 491.792 39.84 491.132 39.68L489.722 39.29C488.302 38.93 487.192 38.36 486.392 37.58C485.592 36.78 485.192 35.87 485.192 34.85C485.192 33.35 485.672 32.19 486.632 31.37C487.612 30.55 489.012 30.14 490.832 30.14C491.752 30.14 492.592 30.28 493.352 30.56C494.132 30.82 494.802 31.2 495.362 31.7C495.922 32.18 496.312 32.75 496.532 33.41L493.742 34.67C493.542 34.17 493.162 33.79 492.602 33.53C492.042 33.25 491.422 33.11 490.742 33.11C490.062 33.11 489.532 33.26 489.152 33.56C488.772 33.84 488.582 34.24 488.582 34.76C488.582 35.06 488.752 35.34 489.092 35.6C489.432 35.84 489.922 36.04 490.562 36.2L492.332 36.62C493.312 36.86 494.112 37.24 494.732 37.76C495.352 38.26 495.812 38.83 496.112 39.47C496.412 40.09 496.562 40.72 496.562 41.36C496.562 42.26 496.302 43.05 495.782 43.73C495.282 44.41 494.592 44.94 493.712 45.32C492.832 45.68 491.832 45.86 490.712 45.86ZM501.596 51.86C501.116 51.86 500.576 51.77 499.976 51.59C499.396 51.41 498.836 51.18 498.296 50.9L499.556 48.17C499.936 48.35 500.286 48.49 500.606 48.59C500.926 48.71 501.186 48.77 501.386 48.77C501.866 48.77 502.266 48.64 502.586 48.38C502.926 48.14 503.196 47.78 503.396 47.3L505.166 43.16L510.236 30.5H513.896L506.936 47.09C506.516 48.05 506.086 48.89 505.646 49.61C505.226 50.33 504.696 50.88 504.056 51.26C503.416 51.66 502.596 51.86 501.596 51.86ZM504.266 45.5L497.546 30.5H501.206L506.426 43.13L507.506 45.5H504.266Z" fill="#001F2E"/>
</svg>
