<svg width="309" height="208" viewBox="0 0 309 208" fill="none" xmlns="http://www.w3.org/2000/svg">
<rect width="309" height="148" rx="16" fill="#BCE2DC"/>
<path d="M16 26C16 20.4772 20.4772 16 26 16H283C288.523 16 293 20.4772 293 26V122C293 127.523 288.523 132 283 132H26C20.4772 132 16 127.523 16 122V26Z" fill="white"/>
<line x1="59" y1="56.5" x2="250" y2="56.5" stroke="#76A19A" stroke-width="11"/>
<line x1="59" y1="80.5" x2="170" y2="80.5" stroke="#76A19A" stroke-width="11"/>
<rect x="85.3721" y="167.521" width="60" height="40" rx="20" fill="white"/>
<rect x="86.8721" y="169.021" width="57" height="37" rx="18.5" stroke="#AB091E" stroke-opacity="0.6" stroke-width="3"/>
<path d="M123.368 191.841L119.047 187.52L123.367 183.2C123.453 183.114 123.501 182.997 123.501 182.876C123.501 182.754 123.453 182.638 123.367 182.552L120.341 179.525C120.255 179.439 120.138 179.391 120.017 179.391C119.895 179.391 119.778 179.439 119.692 179.525L115.372 183.845L111.052 179.525C110.88 179.353 110.575 179.353 110.403 179.525L107.376 182.551C107.29 182.637 107.242 182.754 107.242 182.876C107.242 182.997 107.29 183.114 107.376 183.2L111.697 187.52L107.376 191.842C107.29 191.928 107.242 192.044 107.242 192.166C107.242 192.287 107.29 192.404 107.376 192.49L110.402 195.517C110.488 195.603 110.605 195.651 110.726 195.651C110.848 195.651 110.965 195.603 111.051 195.517L115.372 191.196L119.693 195.516C119.783 195.606 119.9 195.651 120.017 195.651C120.135 195.651 120.252 195.606 120.342 195.516L123.369 192.49C123.455 192.404 123.503 192.287 123.503 192.165C123.503 192.044 123.454 191.927 123.368 191.841Z" fill="#AB091E"/>
<rect x="162.652" y="167.521" width="60" height="40" rx="20" fill="white"/>
<rect x="164.152" y="169.021" width="57" height="37" rx="18.5" stroke="#0C6B58" stroke-opacity="0.53" stroke-width="3"/>
<path d="M203.03 184.183L191.474 195.739C191.204 196.009 190.838 196.16 190.456 196.16C190.074 196.16 189.708 196.009 189.438 195.739L182.992 189.259C182.723 188.989 182.571 188.623 182.571 188.242C182.571 187.86 182.723 187.494 182.992 187.224L184.792 185.424C185.062 185.155 185.428 185.004 185.808 185.004C186.189 185.004 186.555 185.155 186.824 185.424L190.492 188.981L199.2 180.38C199.47 180.111 199.836 179.959 200.217 179.959C200.598 179.959 200.964 180.111 201.233 180.38L203.029 182.138C203.164 182.272 203.271 182.431 203.344 182.607C203.418 182.782 203.455 182.97 203.455 183.16C203.455 183.35 203.418 183.539 203.345 183.714C203.272 183.89 203.165 184.049 203.03 184.183Z" fill="#0C6B58"/>
</svg>
