<svg width="63" height="58" viewBox="0 0 63 58" fill="none" xmlns="http://www.w3.org/2000/svg">
<circle cx="24.1525" cy="33.3479" r="24.1525" fill="#44C1FF"/>
<rect x="15.4575" y="0.5" width="47.201" height="47.201" rx="4" fill="#B4ADF7"/>
<path fill-rule="evenodd" clip-rule="evenodd" d="M38.6551 26.2872L45.1621 32.7868C45.5074 33.1316 45.9757 33.3254 46.464 33.3254C46.9523 33.3254 47.4206 33.1316 47.7659 32.7868C48.1111 32.4419 48.3051 31.9741 48.3051 31.4864C48.3051 30.9986 48.1111 30.5308 47.7659 30.186L41.2564 23.6864L47.7646 17.1868C47.9355 17.0161 48.0711 16.8133 48.1635 16.5902C48.256 16.3672 48.3035 16.1281 48.3035 15.8866C48.3034 15.6452 48.2557 15.4061 48.1632 15.183C48.0706 14.96 47.935 14.7573 47.764 14.5866C47.593 14.4159 47.3901 14.2806 47.1667 14.1882C46.9434 14.0959 46.704 14.0484 46.4623 14.0484C46.2206 14.0485 45.9812 14.0961 45.7579 14.1885C45.5346 14.281 45.3317 14.4165 45.1609 14.5873L38.6551 21.0868L32.1481 14.5873C31.9784 14.4116 31.7754 14.2714 31.5509 14.175C31.3264 14.0785 31.0849 14.0277 30.8405 14.0255C30.5961 14.0232 30.3537 14.0696 30.1275 14.162C29.9012 14.2543 29.6957 14.3907 29.5228 14.5632C29.3499 14.7358 29.2131 14.941 29.1205 15.1669C29.0278 15.3928 28.9811 15.6348 28.9831 15.8789C28.9852 16.123 29.0358 16.3643 29.1322 16.5887C29.2285 16.813 29.3686 17.0159 29.5443 17.1856L36.0538 23.6864L29.5456 30.1872C29.3699 30.3569 29.2297 30.5598 29.1334 30.7841C29.037 31.0085 28.9864 31.2497 28.9844 31.4938C28.9824 31.738 29.029 31.98 29.1217 32.2059C29.2143 32.4318 29.3511 32.637 29.524 32.8096C29.6969 32.9821 29.9025 33.1185 30.1287 33.2108C30.3549 33.3032 30.5973 33.3496 30.8417 33.3473C31.0861 33.3451 31.3276 33.2943 31.5521 33.1978C31.7766 33.1014 31.9796 32.9612 32.1493 32.7855L38.6551 26.2872Z" fill="white"/>
</svg>
