<svg width="438" height="371" viewBox="0 0 438 371" fill="none" xmlns="http://www.w3.org/2000/svg">
<path d="M406 4C421.464 4 434 16.536 434 32V367H4V32C4 16.536 16.536 4 32 4H406Z" fill="#CFF5EF"/>
<path d="M406 4C421.464 4 434 16.536 434 32V367H4V32C4 16.536 16.536 4 32 4H406Z" stroke="#62BFA9" stroke-width="8"/>
<rect x="64" y="90" width="309" height="148" rx="16" fill="#BCE2DC"/>
<path d="M80 116C80 110.477 84.4772 106 90 106H347C352.523 106 357 110.477 357 116V212C357 217.523 352.523 222 347 222H90C84.4772 222 80 217.523 80 212V116Z" fill="white"/>
<line x1="123" y1="146.5" x2="314" y2="146.5" stroke="#76A19A" stroke-width="11"/>
<line x1="123" y1="170.5" x2="234" y2="170.5" stroke="#76A19A" stroke-width="11"/>
<rect x="149.372" y="257.521" width="60" height="40" rx="20" fill="white"/>
<rect x="150.872" y="259.021" width="57" height="37" rx="18.5" stroke="#AB091E" stroke-opacity="0.6" stroke-width="3"/>
<path d="M187.368 281.841L183.047 277.52L187.367 273.2C187.453 273.114 187.501 272.997 187.501 272.876C187.501 272.754 187.453 272.638 187.367 272.552L184.341 269.525C184.255 269.439 184.138 269.391 184.017 269.391C183.895 269.391 183.778 269.439 183.692 269.525L179.372 273.845L175.052 269.525C174.88 269.353 174.575 269.353 174.403 269.525L171.376 272.551C171.29 272.637 171.242 272.754 171.242 272.876C171.242 272.997 171.29 273.114 171.376 273.2L175.697 277.52L171.376 281.842C171.29 281.928 171.242 282.044 171.242 282.166C171.242 282.287 171.29 282.404 171.376 282.49L174.402 285.517C174.488 285.603 174.605 285.651 174.726 285.651C174.848 285.651 174.965 285.603 175.051 285.517L179.372 281.196L183.693 285.516C183.783 285.606 183.9 285.651 184.017 285.651C184.135 285.651 184.252 285.606 184.342 285.516L187.369 282.49C187.455 282.404 187.503 282.287 187.503 282.165C187.503 282.044 187.454 281.927 187.368 281.841Z" fill="#AB091E"/>
<rect x="226.652" y="257.521" width="60" height="40" rx="20" fill="white"/>
<rect x="228.152" y="259.021" width="57" height="37" rx="18.5" stroke="#0C6B58" stroke-opacity="0.53" stroke-width="3"/>
<path d="M267.03 274.183L255.474 285.739C255.204 286.009 254.838 286.16 254.456 286.16C254.074 286.16 253.708 286.009 253.438 285.739L246.992 279.259C246.723 278.989 246.571 278.623 246.571 278.242C246.571 277.86 246.723 277.494 246.992 277.224L248.792 275.424C249.062 275.155 249.428 275.004 249.808 275.004C250.189 275.004 250.555 275.155 250.824 275.424L254.492 278.981L263.2 270.38C263.47 270.111 263.836 269.959 264.217 269.959C264.598 269.959 264.964 270.111 265.233 270.38L267.029 272.138C267.164 272.272 267.271 272.431 267.344 272.607C267.418 272.782 267.455 272.97 267.455 273.16C267.455 273.35 267.418 273.539 267.345 273.714C267.272 273.89 267.165 274.049 267.03 274.183Z" fill="#0C6B58"/>
<path d="M63.0424 279.167L37.0354 306.985C36.4277 307.635 35.6038 308 34.7446 308C33.8855 308 33.0615 307.635 32.4538 306.985L17.9474 291.386C17.3408 290.736 17 289.856 17 288.937C17 288.019 17.3408 287.138 17.9474 286.488L21.9984 282.155C22.6057 281.508 23.428 281.145 24.2851 281.145C25.1423 281.145 25.9645 281.508 26.5719 282.155L34.8256 290.717L54.424 270.011C55.0315 269.364 55.8542 269 56.7118 269C57.5695 269 58.3921 269.364 58.9996 270.011L63.0404 274.245C63.3443 274.567 63.5855 274.95 63.7502 275.372C63.9149 275.795 63.9998 276.248 64 276.705C64.0002 277.163 63.9157 277.616 63.7513 278.039C63.587 278.461 63.346 278.845 63.0424 279.167Z" fill="#BDE3DC"/>
</svg>
