<svg width="55" height="56" viewBox="0 0 55 56" fill="none" xmlns="http://www.w3.org/2000/svg">
<path d="M55 27.5L29.84 54.4913C28.9349 55.4573 27.7077 56 26.4282 56C25.1486 56 23.9214 55.4573 23.0163 54.4913L1.41107 31.2926C0.507501 30.326 0 29.0159 0 27.6501C0 26.2842 0.507501 24.9741 1.41107 24.0075L7.44437 17.5635C8.34895 16.6013 9.57356 16.0611 10.8502 16.0611C12.1268 16.0611 13.3514 16.6013 14.256 17.5635L26.5488 30.297L55 0C55 4.50015 55 -4.76837e-07 55 4.50015C55 7.47693 55 9 55 16V18C55 18.5 55 20.3304 55 21C55 21.5 54.9997 22.7532 55 23.5C55.0003 24.1806 55 24.3684 55 25C55 25.5 55 27 55 27.5Z" fill="#BDE3DC"/>
</svg>
