<svg width="173" height="104" viewBox="0 0 173 104" fill="none" xmlns="http://www.w3.org/2000/svg">
<path d="M16.4087 147.044L79.6075 192.134M16.4087 147.044L10.5558 155.245C0.859991 168.835 7.1475 189.945 24.5994 202.397C42.0513 214.848 64.0589 213.925 73.7547 200.335L79.6075 192.134M16.4087 147.044L104.188 24.0114M79.6075 192.134L167.387 69.1017M37.475 162.074L122.842 42.4233M58.5413 177.104L143.908 57.4533M167.387 69.1017L165.047 5.54576L104.188 24.0114M167.387 69.1017C167.387 69.1017 158.971 68.1136 153.927 65.6871C150.362 63.9722 146.865 60.7614 143.908 57.4533M104.188 24.0114C104.188 24.0114 107.86 31.6471 111.794 35.6269C114.576 38.4402 118.751 40.7027 122.842 42.4233M134.617 14.7779L166.216 37.3231M122.842 42.4233C129.423 45.1911 135.788 46.5565 135.788 46.5565C135.788 46.5565 139.149 52.1308 143.908 57.4533" stroke="#E6F5FF" stroke-width="10" stroke-linecap="round" stroke-linejoin="round"/>
</svg>
