<svg width="69" height="57" viewBox="0 0 69 57" fill="none" xmlns="http://www.w3.org/2000/svg">
<path d="M67.5942 14.8596L29.4137 55.5173C28.5216 56.4667 27.3119 57 26.0506 57C24.7893 57 23.5797 56.4667 22.6875 55.5173L1.39091 32.7186C0.500251 31.7687 0 30.4812 0 29.1388C0 27.7965 0.500251 26.509 1.39091 25.5591L7.33802 19.2262C8.22968 18.2806 9.4368 17.7497 10.6952 17.7497C11.9535 17.7497 13.1607 18.2806 14.0523 19.2262L26.1696 31.7401L54.9417 1.47799C55.8335 0.531482 57.0412 0 58.3003 0C59.5594 0 60.7672 0.531482 61.659 1.47799L67.5912 7.66531C68.0373 8.13609 68.3915 8.69627 68.6333 9.31354C68.8751 9.93081 68.9997 10.593 69 11.2618C69.0003 11.9306 68.8762 12.5929 68.6349 13.2104C68.3936 13.8279 68.0399 14.3884 67.5942 14.8596Z" fill="#E2EFF8"/>
</svg>
