<svg width="40" height="40" viewBox="0 0 40 40" fill="none" xmlns="http://www.w3.org/2000/svg">
<rect x="2.00073" y="6" width="36.8" height="28" rx="3.2" fill="#B4ADF7"/>
<path d="M15.0007 27.5999C14.5057 27.5999 14.0821 27.419 13.7299 27.0572C13.3777 26.6954 13.2013 26.26 13.2007 25.7508V23.9017C13.2007 23.6398 13.2871 23.4203 13.4599 23.2434C13.6327 23.0665 13.8463 22.9778 14.1007 22.9772C14.3551 22.9765 14.569 23.0653 14.7424 23.2434C14.9158 23.4216 15.0019 23.641 15.0007 23.9017V25.7508H25.8007V23.9017C25.8007 23.6398 25.8871 23.4203 26.0599 23.2434C26.2327 23.0665 26.4463 22.9778 26.7007 22.9772C26.9551 22.9765 27.169 23.0653 27.3424 23.2434C27.5158 23.4216 27.6019 23.641 27.6007 23.9017V25.7508C27.6007 26.2593 27.4246 26.6948 27.0724 27.0572C26.7202 27.4197 26.2963 27.6006 25.8007 27.5999H15.0007ZM19.5007 16.3666L17.8132 18.1001C17.6332 18.285 17.4196 18.3738 17.1724 18.3664C16.9252 18.359 16.7113 18.2625 16.5307 18.077C16.3657 17.8921 16.2793 17.6764 16.2715 17.4298C16.2637 17.1833 16.3501 16.9675 16.5307 16.7826L19.7707 13.4542C19.8607 13.3618 19.9582 13.2964 20.0632 13.2582C20.1682 13.22 20.2807 13.2006 20.4007 13.2C20.5207 13.1993 20.6332 13.2188 20.7382 13.2582C20.8432 13.2977 20.9407 13.363 21.0307 13.4542L24.2707 16.7826C24.4507 16.9675 24.5371 17.1833 24.5299 17.4298C24.5227 17.6764 24.4363 17.8921 24.2707 18.077C24.0907 18.2619 23.8771 18.3584 23.6299 18.3664C23.3827 18.3744 23.1688 18.2856 22.9882 18.1001L21.3007 16.3666V22.9772C21.3007 23.2391 21.2143 23.4589 21.0415 23.6364C20.8687 23.8139 20.6551 23.9023 20.4007 23.9017C20.1463 23.9011 19.9327 23.8123 19.7599 23.6354C19.5871 23.4585 19.5007 23.2391 19.5007 22.9772V16.3666Z" fill="white"/>
</svg>
