<svg width="40" height="40" viewBox="0 0 40 40" fill="none" xmlns="http://www.w3.org/2000/svg">
<rect x="1" y="3" width="29.9999" height="29.9999" rx="4" fill="#44C1FF"/>
<rect x="6.15869" y="8.00122" width="29.9999" height="29.9999" rx="4" fill="#B4ADF7"/>
<path d="M15.7879 18.3102C17.258 16.7005 19.2254 15.8148 21.2417 15.6739L21.1635 14.0142C21.1635 12.2875 21.0016 12.6447 22.4302 13.7161L25.745 16.3611C26.7158 17.2875 26.7158 16.5732 25.7976 17.4763L22.4302 20.5018C21.3164 21.6941 21.4571 21.8645 21.4571 20.2438L21.3657 18.3037C19.9793 18.4148 18.7056 19.0321 17.7574 20.0563C15.6923 22.2866 15.7873 25.837 18.1276 27.931C20.3477 29.9175 23.822 29.8136 25.899 27.5311C26.8095 26.5305 27.313 25.2599 27.3372 23.9196C27.341 23.712 27.5057 23.5434 27.713 23.5336L29.5561 23.4467C29.7825 23.436 29.9704 23.6177 29.9695 23.8444C29.9624 25.7937 29.2606 27.747 27.8454 29.3023C24.8131 32.6346 19.6535 32.8778 16.3212 29.8455C12.9926 26.8167 12.7531 21.6333 15.7879 18.3102Z" fill="white"/>
</svg>
