<svg width="40" height="40" viewBox="0 0 40 40" fill="none" xmlns="http://www.w3.org/2000/svg">
<path d="M34.9214 13.4783C33.0425 10.9002 30.4174 9.17753 27.5385 8.40018V8.40409C26.8706 7.6619 26.1167 6.97831 25.2729 6.36893C18.8784 1.7205 9.90182 3.13847 5.23385 9.533C1.47213 14.7283 1.63229 21.7166 5.46823 26.6814L5.49948 31.8611C5.49948 31.9861 5.51901 32.1111 5.55807 32.2283C5.7651 32.8885 6.46823 33.2517 7.12448 33.0447L12.0698 31.4861C13.3784 31.951 14.7299 32.2166 16.0737 32.2908L16.0542 32.3064C19.5346 34.8416 24.0971 35.6033 28.2807 34.2205L33.2456 35.8377C33.3706 35.8767 33.4995 35.9002 33.6323 35.9002C34.3237 35.9002 34.8823 35.3416 34.8823 34.6502V29.4158C38.3237 24.7439 38.4135 18.2869 34.9214 13.4783ZM12.6167 28.7127L12.1479 28.5174L8.28073 29.7283L8.24167 25.6658L7.92917 25.3142C4.62448 21.283 4.40573 15.4744 7.49948 11.2127C11.2651 6.04862 18.4839 4.908 23.6323 8.63456C28.7964 12.3885 29.9409 19.5955 26.2104 24.7283C23.0815 29.0213 17.4799 30.6072 12.6167 28.7127ZM32.3432 28.0486L32.0307 28.4392L32.0698 32.5017L28.2417 31.2127L27.7729 31.408C25.5854 32.2205 23.2534 32.2869 21.0932 31.6814L21.0854 31.6775C23.9721 30.7908 26.5893 28.9939 28.476 26.408C31.4604 22.2947 31.9448 17.1267 30.2104 12.7205L30.2339 12.7361C31.1323 13.3807 31.9565 14.1853 32.6557 15.158C35.4917 19.0486 35.3315 24.3455 32.3432 28.0486Z" fill="#B4ADF7"/>
<path d="M12.6167 28.7127L12.1479 28.5174L8.28073 29.7283L8.24167 25.6658L7.92917 25.3142C4.62448 21.283 4.40573 15.4744 7.49948 11.2127C11.2651 6.04862 18.4839 4.908 23.6323 8.63456C28.7964 12.3885 29.9409 19.5955 26.2104 24.7283C23.0815 29.0213 17.4799 30.6072 12.6167 28.7127Z" fill="#B4ADF7"/>
<path d="M32.3432 28.0486L32.0307 28.4392L32.0698 32.5017L28.2417 31.2127L27.7729 31.408C25.5854 32.2205 23.2534 32.2869 21.0932 31.6814L21.0854 31.6775C23.9721 30.7908 26.5893 28.9939 28.476 26.408C31.4604 22.2947 31.9448 17.1267 30.2104 12.7205L30.2339 12.7361C31.1323 13.3807 31.9565 14.1853 32.6557 15.158C35.4917 19.0486 35.3315 24.3455 32.3432 28.0486Z" fill="white"/>
<path d="M16.9141 16.4453C16.0117 16.4453 15.3125 17.1445 15.3125 18.0078C15.3125 18.8711 16.0117 19.5703 16.9141 19.5703C17.7383 19.5703 18.4375 18.8711 18.4375 18.0078C18.4375 17.1445 17.7383 16.4453 16.9141 16.4453Z" fill="white"/>
<path d="M22.3828 16.4453C21.4805 16.4453 20.7812 17.1445 20.7812 18.0078C20.7812 18.8711 21.4805 19.5703 22.3828 19.5703C23.207 19.5703 23.9062 18.8711 23.9062 18.0078C23.9062 17.1445 23.207 16.4453 22.3828 16.4453ZM11.4453 16.4453C10.543 16.4453 9.84375 17.1445 9.84375 18.0078C9.84375 18.8711 10.543 19.5703 11.4453 19.5703C12.2695 19.5703 12.9688 18.8711 12.9688 18.0078C12.9688 17.1445 12.2695 16.4453 11.4453 16.4453Z" fill="white"/>
</svg>
