<svg width="64" height="64" viewBox="0 0 64 64" fill="none" xmlns="http://www.w3.org/2000/svg">
<circle cx="32" cy="32" r="32" fill="url(#paint0_linear_1_370)" fill-opacity="0.82"/>
<path d="M51.7521 31.3775C50.7271 42.5391 47.0005 47 40 51.2017" stroke="#E8EEFF" stroke-width="4" stroke-linecap="round"/>
<path d="M28.66 45V22.896L29.236 19.8H34.168V45H28.66ZM23.476 28.44V23.184C24.124 23.232 24.784 23.088 25.456 22.752C26.152 22.416 26.824 21.972 27.472 21.42C28.144 20.844 28.732 20.28 29.236 19.728L32.908 23.292C32.02 24.3 31.072 25.224 30.064 26.064C29.056 26.88 28.012 27.516 26.932 27.972C25.852 28.404 24.7 28.56 23.476 28.44Z" fill="#4693EF"/>
<defs>
<linearGradient id="paint0_linear_1_370" x1="64" y1="32" x2="-6.23729" y2="32" gradientUnits="userSpaceOnUse">
<stop stop-color="#D9D9FF"/>
<stop offset="1" stop-color="#BAE2FE"/>
</linearGradient>
</defs>
</svg>
