<svg width="40" height="40" viewBox="0 0 40 40" fill="none" xmlns="http://www.w3.org/2000/svg">
<path d="M6.27271 7.19702H10.3762C10.6316 7.19716 10.8661 7.32749 11.0022 7.53784L11.0549 7.63257C11.5671 8.75219 12.6851 9.47046 13.9163 9.47046H31.9993C33.1038 9.47046 33.9992 10.3659 33.9993 11.4705V31.5964C33.9993 32.701 33.1038 33.5964 31.9993 33.5964H7.19946C6.09489 33.5964 5.19946 32.701 5.19946 31.5964V8.27026C5.1996 7.67748 5.67992 7.19716 6.27271 7.19702Z" stroke="#B4ADF7" stroke-width="2.4"/>
<path d="M3.99927 14.7969H35.1993V31.5969C35.1993 33.3642 33.7666 34.7969 31.9993 34.7969H7.19927C5.43196 34.7969 3.99927 33.3642 3.99927 31.5969V14.7969Z" fill="#B4ADF7"/>
</svg>
