<svg width="40" height="40" viewBox="0 0 40 40" fill="none" xmlns="http://www.w3.org/2000/svg">
<path d="M31.25 16.25C31.25 13.2663 30.0647 10.4048 27.955 8.29505C25.8452 6.18526 22.9837 5 20 5C17.0163 5 14.1548 6.18526 12.045 8.29505C9.93526 10.4048 8.75 13.2663 8.75 16.25C8.75 20.865 12.4425 26.88 20 34.085C27.5575 26.88 31.25 20.865 31.25 16.25ZM20 37.5C10.8325 29.1675 6.25 22.0825 6.25 16.25C6.25 12.6033 7.69866 9.10591 10.2773 6.52728C12.8559 3.94866 16.3533 2.5 20 2.5C23.6467 2.5 27.1441 3.94866 29.7227 6.52728C32.3013 9.10591 33.75 12.6033 33.75 16.25C33.75 22.0825 29.1675 29.1675 20 37.5Z" fill="#B4ADF7"/>
<path d="M31.25 16.25C31.25 13.2663 30.0647 10.4048 27.955 8.29505C25.8452 6.18526 22.9837 5 20 5C17.0163 5 14.1548 6.18526 12.045 8.29505C9.93526 10.4048 8.75 13.2663 8.75 16.25C8.75 20.865 12.4425 26.88 20 34.085C27.5575 26.88 31.25 20.865 31.25 16.25Z" fill="#B4ADF7"/>
<circle cx="20" cy="15.122" r="8.29268" fill="white"/>
<path d="M20 20.683C21.4748 20.683 22.8893 20.0971 23.9322 19.0543C24.9751 18.0114 25.561 16.5969 25.561 15.1221C25.561 13.6472 24.9751 12.2327 23.9322 11.1898C22.8893 10.147 21.4748 9.56108 20 9.56108C18.5251 9.56108 17.1107 10.147 16.0678 11.1898C15.0249 12.2327 14.439 13.6472 14.439 15.1221C14.439 16.5969 15.0249 18.0114 16.0678 19.0543C17.1107 20.0971 18.5251 20.683 20 20.683ZM20 24.3903C17.5419 24.3903 15.1845 23.4139 13.4463 21.6757C11.7082 19.9376 10.7317 17.5802 10.7317 15.1221C10.7317 12.6639 11.7082 10.3065 13.4463 8.56838C15.1845 6.83024 17.5419 5.85376 20 5.85376C22.4581 5.85376 24.8155 6.83024 26.5537 8.56838C28.2918 10.3065 29.2683 12.6639 29.2683 15.1221C29.2683 17.5802 28.2918 19.9376 26.5537 21.6757C24.8155 23.4139 22.4581 24.3903 20 24.3903Z" fill="#B4ADF7"/>
</svg>
