<svg width="40" height="40" viewBox="0 0 40 40" fill="none" xmlns="http://www.w3.org/2000/svg">
<circle cx="15.6612" cy="22.9391" r="14.6612" fill="#44C1FF"/>
<rect x="10.3838" y="3" width="28.6522" height="28.6522" rx="4" fill="#B4ADF7"/>
<path fill-rule="evenodd" clip-rule="evenodd" d="M24.465 18.6517L28.4149 22.5971C28.6245 22.8065 28.9088 22.9241 29.2052 22.9241C29.5016 22.9241 29.7859 22.8065 29.9955 22.5971C30.2051 22.3878 30.3228 22.1038 30.3228 21.8078C30.3228 21.5117 30.2051 21.2277 29.9955 21.0184L26.0441 17.073L29.9947 13.1276C30.0985 13.0239 30.1808 12.9009 30.2369 12.7654C30.293 12.63 30.3219 12.4849 30.3218 12.3383C30.3218 12.1917 30.2929 12.0466 30.2367 11.9112C30.1805 11.7758 30.0982 11.6528 29.9944 11.5492C29.8906 11.4456 29.7674 11.3634 29.6318 11.3073C29.4962 11.2513 29.3509 11.2224 29.2042 11.2225C29.0575 11.2225 28.9122 11.2514 28.7766 11.3075C28.6411 11.3637 28.5179 11.4459 28.4142 11.5496L24.465 15.495L20.5151 11.5496C20.4121 11.4429 20.2889 11.3578 20.1526 11.2993C20.0163 11.2407 19.8697 11.2099 19.7214 11.2085C19.573 11.2072 19.4259 11.2353 19.2885 11.2914C19.1512 11.3474 19.0264 11.4302 18.9215 11.535C18.8165 11.6397 18.7335 11.7643 18.6773 11.9014C18.621 12.0385 18.5927 12.1855 18.5939 12.3336C18.5951 12.4818 18.6259 12.6283 18.6844 12.7645C18.7428 12.9006 18.8279 13.0238 18.9346 13.1268L22.886 17.073L18.9353 21.0191C18.8286 21.1221 18.7436 21.2453 18.6851 21.3815C18.6266 21.5177 18.5959 21.6641 18.5946 21.8123C18.5934 21.9605 18.6218 22.1074 18.678 22.2446C18.7342 22.3817 18.8173 22.5062 18.9222 22.611C19.0272 22.7157 19.1519 22.7985 19.2893 22.8546C19.4266 22.9106 19.5737 22.9388 19.7221 22.9374C19.8704 22.9361 20.017 22.9052 20.1533 22.8467C20.2896 22.7881 20.4128 22.703 20.5159 22.5964L24.465 18.6517Z" fill="white"/>
</svg>
