<svg width="40" height="40" viewBox="0 0 40 40" fill="none" xmlns="http://www.w3.org/2000/svg">
<path d="M20 33.6613C29.9411 33.6613 38 34.6933 38 24.7522C38 14.8111 29.9411 6.7522 20 6.7522C10.0589 6.7522 2 14.8111 2 24.7522C2 26.8895 4.19783 27.9906 6.20608 27.2593L8.03898 26.5919C10.7171 25.6166 13.6425 27.2175 14.2647 29.999C14.7476 32.1572 16.6633 33.6789 18.8749 33.6651C19.247 33.6628 19.6221 33.6613 20 33.6613Z" fill="#B4ADF7"/>
<circle cx="9.99967" cy="18.755" r="2.90909" fill="#27863A"/>
<circle cx="31.8177" cy="26.0207" r="2.90909" fill="#CB3A3A"/>
<circle cx="21.9997" cy="28.205" r="2.90909" fill="#FFCD38"/>
<circle cx="18.3645" cy="13.6645" r="2.90909" fill="#F955E1"/>
<circle cx="28.1825" cy="16.5707" r="2.90909" fill="#5E42FF"/>
</svg>
