<svg width="64" height="64" viewBox="0 0 64 64" fill="none" xmlns="http://www.w3.org/2000/svg">
<circle cx="32" cy="32" r="32" fill="url(#paint0_linear_1_42989)" fill-opacity="0.82"/>
<path d="M54.7517 39.3775C53.7266 50.5391 50 55 42.9995 59.2017" stroke="#E8EEFF" stroke-width="4" stroke-linecap="round"/>
<path d="M33.296 44.432C31.712 44.432 30.26 44.192 28.94 43.712C27.644 43.232 26.564 42.536 25.7 41.624C24.86 40.688 24.308 39.548 24.044 38.204L29.516 36.872C29.66 37.16 29.84 37.508 30.056 37.916C30.296 38.324 30.644 38.684 31.1 38.996C31.556 39.284 32.168 39.428 32.936 39.428C33.944 39.428 34.736 39.164 35.312 38.636C35.888 38.084 36.176 37.364 36.176 36.476C36.176 35.948 36.044 35.456 35.78 35C35.54 34.52 35.084 34.148 34.412 33.884C33.764 33.596 32.84 33.452 31.64 33.452H29.768V29.708H31.424C32.84 29.708 34.172 29.888 35.42 30.248C36.692 30.584 37.82 31.088 38.804 31.76C39.788 32.432 40.556 33.224 41.108 34.136C41.684 35.048 41.972 36.08 41.972 37.232C41.972 38.768 41.564 40.076 40.748 41.156C39.932 42.236 38.864 43.052 37.544 43.604C36.224 44.156 34.808 44.432 33.296 44.432ZM29.768 32.264V28.772H31.64C33.152 28.772 34.22 28.52 34.844 28.016C35.468 27.512 35.78 26.828 35.78 25.964C35.78 25.46 35.66 25.016 35.42 24.632C35.18 24.248 34.844 23.948 34.412 23.732C33.98 23.492 33.488 23.372 32.936 23.372C32.528 23.372 32.108 23.444 31.676 23.588C31.244 23.732 30.848 23.984 30.488 24.344C30.128 24.704 29.852 25.22 29.66 25.892L24.26 24.596C24.524 23.228 25.1 22.088 25.988 21.176C26.9 20.24 27.98 19.544 29.228 19.088C30.476 18.608 31.76 18.368 33.08 18.368C34.664 18.368 36.092 18.668 37.364 19.268C38.66 19.844 39.68 20.66 40.424 21.716C41.192 22.748 41.576 23.96 41.576 25.352C41.576 26.552 41.276 27.584 40.676 28.448C40.1 29.312 39.32 30.032 38.336 30.608C37.376 31.16 36.296 31.58 35.096 31.868C33.896 32.132 32.672 32.264 31.424 32.264H29.768Z" fill="#4693EF"/>
<defs>
<linearGradient id="paint0_linear_1_42989" x1="64" y1="32" x2="-6.23729" y2="32" gradientUnits="userSpaceOnUse">
<stop stop-color="#D9D9FF"/>
<stop offset="1" stop-color="#BAE2FE"/>
</linearGradient>
</defs>
</svg>
