<svg width="95" height="160" viewBox="0 0 95 160" fill="none" xmlns="http://www.w3.org/2000/svg">
<path d="M89.4338 -45.3174L11.8739 -48.7361M89.4338 -45.3174L89.8786 -55.3833C90.6137 -72.0612 73.8473 -86.3466 52.4297 -87.2906C31.0121 -88.2347 13.0538 -75.4799 12.3186 -58.802L11.8739 -48.7361M89.4338 -45.3174L82.7784 105.672M11.8739 -48.7361L5.2185 102.254M63.5805 -46.457L57.1081 100.382M37.7272 -47.5965L31.2547 99.2429M5.2185 102.254L41.78 154.293L82.7784 105.672M5.2185 102.254C5.2185 102.254 12.816 98.5008 18.3681 97.7904C22.2917 97.2884 26.973 98.078 31.2547 99.2429M82.7784 105.672C82.7784 105.672 75.5419 101.266 70.0747 100.07C66.2099 99.2238 61.4764 99.5986 57.1081 100.382M62.2803 129.983L23.5003 128.273M57.1081 100.382C50.0807 101.643 43.9985 103.963 43.9985 103.963C43.9985 103.963 38.1438 101.117 31.2547 99.2429" stroke="#E6F5FF" stroke-width="10" stroke-linecap="round" stroke-linejoin="round"/>
</svg>
