<svg width="64" height="64" viewBox="0 0 64 64" fill="none" xmlns="http://www.w3.org/2000/svg">
<circle cx="32" cy="32" r="32" fill="url(#paint0_linear_1_42943)" fill-opacity="0.82"/>
<path d="M51.7536 31.3775C50.7285 42.5391 47.002 47 40.0015 51.2017" stroke="#E8EEFF" stroke-width="4" stroke-linecap="round"/>
<path d="M24.728 44V39.824C24.728 39.176 24.968 38.432 25.448 37.592C25.928 36.728 26.588 35.852 27.428 34.964C28.292 34.076 29.264 33.26 30.344 32.516L33.512 30.356C33.992 30.044 34.472 29.684 34.952 29.276C35.432 28.844 35.828 28.388 36.14 27.908C36.452 27.404 36.608 26.9 36.608 26.396C36.608 25.868 36.476 25.4 36.212 24.992C35.972 24.56 35.6 24.236 35.096 24.02C34.616 23.78 33.98 23.66 33.188 23.66C32.588 23.66 32.048 23.792 31.568 24.056C31.112 24.296 30.728 24.632 30.416 25.064C30.128 25.472 29.912 25.928 29.768 26.432L23.792 25.424C24.032 24.176 24.548 23.012 25.34 21.932C26.156 20.852 27.224 19.988 28.544 19.34C29.888 18.668 31.424 18.332 33.152 18.332C35.12 18.332 36.8 18.68 38.192 19.376C39.584 20.048 40.652 20.984 41.396 22.184C42.164 23.384 42.548 24.776 42.548 26.36C42.548 28.04 42.08 29.492 41.144 30.716C40.232 31.94 39.02 33.068 37.508 34.1L34.736 36.008C34.16 36.392 33.632 36.824 33.152 37.304C32.672 37.784 32.252 38.324 31.892 38.924H42.836V44H24.728Z" fill="#4693EF"/>
<defs>
<linearGradient id="paint0_linear_1_42943" x1="64" y1="32" x2="-6.23729" y2="32" gradientUnits="userSpaceOnUse">
<stop stop-color="#D9D9FF"/>
<stop offset="1" stop-color="#BAE2FE"/>
</linearGradient>
</defs>
</svg>
