<svg width="442" height="307" viewBox="0 0 442 307" fill="none" xmlns="http://www.w3.org/2000/svg">
<path d="M30 120C30 117.515 27.9853 115.5 25.5 115.5C23.0147 115.5 21 117.515 21 120L30 120ZM25.5 120L21 120L21 162L25.5 162L30 162L30 120L25.5 120Z" fill="#E4D8C4"/>
<path d="M61 162.5C63.4853 162.5 65.5 160.485 65.5 158C65.5 155.515 63.4853 153.5 61 153.5V162.5ZM61 158V153.5H21V158V162.5H61V158Z" fill="#E4D8C4"/>
<path d="M52.5566 143L68.113 158.556L52.5566 174.113" stroke="#E4D8C4" stroke-width="9" stroke-linecap="round" stroke-linejoin="round"/>
<rect x="108.5" y="137.5" width="267" height="233" rx="16.5" fill="#FFF8E1" stroke="#E4D8C4" stroke-width="9"/>
<path d="M144.632 178L138.08 161.2H140.864L147.584 178H144.632ZM131.216 178L137.912 161.2H140.72L134.168 178H131.216ZM134.36 173.872V171.4H144.416V173.872H134.36ZM149.773 178V161.2H152.557V178H149.773ZM173.976 178L167.424 161.2H170.208L176.928 178H173.976ZM160.56 178L167.256 161.2H170.064L163.512 178H160.56ZM163.704 173.872V171.4H173.76V173.872H163.704ZM178.613 178V166H181.133L181.301 168.208V178H178.613ZM186.749 178V171.856H189.437V178H186.749ZM186.749 171.856C186.749 170.896 186.637 170.16 186.413 169.648C186.205 169.12 185.901 168.752 185.501 168.544C185.117 168.336 184.661 168.232 184.133 168.232C183.237 168.216 182.541 168.512 182.045 169.12C181.549 169.728 181.301 170.6 181.301 171.736H180.293C180.293 170.472 180.477 169.392 180.845 168.496C181.213 167.584 181.741 166.896 182.429 166.432C183.117 165.952 183.933 165.712 184.877 165.712C185.837 165.712 186.653 165.904 187.325 166.288C188.013 166.672 188.533 167.272 188.885 168.088C189.253 168.888 189.437 169.936 189.437 171.232V171.856H186.749ZM196.528 178.288C195.728 178.288 194.992 178.168 194.32 177.928C193.648 177.688 193.072 177.352 192.592 176.92C192.112 176.472 191.744 175.952 191.488 175.36L193.816 174.328C194.056 174.776 194.408 175.152 194.872 175.456C195.352 175.76 195.88 175.912 196.456 175.912C197.08 175.912 197.576 175.808 197.944 175.6C198.328 175.376 198.52 175.072 198.52 174.688C198.52 174.32 198.376 174.04 198.088 173.848C197.8 173.64 197.392 173.472 196.864 173.344L195.736 173.032C194.6 172.744 193.712 172.288 193.072 171.664C192.432 171.024 192.112 170.296 192.112 169.48C192.112 168.28 192.496 167.352 193.264 166.696C194.048 166.04 195.168 165.712 196.624 165.712C197.36 165.712 198.032 165.824 198.64 166.048C199.264 166.256 199.8 166.56 200.248 166.96C200.696 167.344 201.008 167.8 201.184 168.328L198.952 169.336C198.792 168.936 198.488 168.632 198.04 168.424C197.592 168.2 197.096 168.088 196.552 168.088C196.008 168.088 195.584 168.208 195.28 168.448C194.976 168.672 194.824 168.992 194.824 169.408C194.824 169.648 194.96 169.872 195.232 170.08C195.504 170.272 195.896 170.432 196.408 170.56L197.824 170.896C198.608 171.088 199.248 171.392 199.744 171.808C200.24 172.208 200.608 172.664 200.848 173.176C201.088 173.672 201.208 174.176 201.208 174.688C201.208 175.408 201 176.04 200.584 176.584C200.184 177.128 199.632 177.552 198.928 177.856C198.224 178.144 197.424 178.288 196.528 178.288ZM214.452 178L218.46 166H221.172L217.092 178H214.452ZM206.412 178L210.324 166H212.7L208.836 178H206.412ZM206.172 178L202.092 166H204.804L208.716 178H206.172ZM214.428 178L210.588 166H212.964L216.876 178H214.428ZM227.934 178.288C226.766 178.288 225.726 178.024 224.814 177.496C223.918 176.952 223.206 176.208 222.678 175.264C222.166 174.32 221.91 173.232 221.91 172C221.91 170.768 222.174 169.68 222.702 168.736C223.23 167.792 223.95 167.056 224.862 166.528C225.79 165.984 226.846 165.712 228.03 165.712C229.102 165.712 230.07 165.992 230.934 166.552C231.798 167.096 232.478 167.888 232.974 168.928C233.486 169.968 233.742 171.208 233.742 172.648H224.31L224.67 172.312C224.67 173.048 224.83 173.688 225.15 174.232C225.47 174.76 225.894 175.168 226.422 175.456C226.95 175.744 227.534 175.888 228.174 175.888C228.91 175.888 229.518 175.728 229.998 175.408C230.478 175.072 230.854 174.64 231.126 174.112L233.502 175.12C233.166 175.76 232.734 176.32 232.206 176.8C231.694 177.28 231.078 177.648 230.358 177.904C229.654 178.16 228.846 178.288 227.934 178.288ZM224.838 170.92L224.454 170.584H231.222L230.862 170.92C230.862 170.264 230.718 169.728 230.43 169.312C230.142 168.88 229.774 168.56 229.326 168.352C228.894 168.128 228.438 168.016 227.958 168.016C227.478 168.016 226.998 168.128 226.518 168.352C226.038 168.56 225.638 168.88 225.318 169.312C224.998 169.728 224.838 170.264 224.838 170.92ZM237.577 171.616C237.577 170.32 237.825 169.256 238.321 168.424C238.817 167.592 239.457 166.976 240.241 166.576C241.041 166.16 241.873 165.952 242.737 165.952V168.52C242.001 168.52 241.305 168.624 240.648 168.832C240.009 169.024 239.489 169.344 239.089 169.792C238.689 170.24 238.489 170.832 238.489 171.568L237.577 171.616ZM235.801 178V166H238.489V178H235.801ZM246.415 169.36C245.951 169.36 245.551 169.192 245.215 168.856C244.879 168.52 244.711 168.12 244.711 167.656C244.711 167.192 244.879 166.8 245.215 166.48C245.551 166.144 245.951 165.976 246.415 165.976C246.863 165.976 247.255 166.144 247.591 166.48C247.927 166.8 248.095 167.192 248.095 167.656C248.095 168.12 247.927 168.52 247.591 168.856C247.255 169.192 246.863 169.36 246.415 169.36ZM246.439 178.048C245.975 178.048 245.575 177.88 245.239 177.544C244.903 177.208 244.735 176.808 244.735 176.344C244.735 175.88 244.903 175.488 245.239 175.168C245.575 174.832 245.975 174.664 246.439 174.664C246.903 174.664 247.295 174.832 247.615 175.168C247.951 175.488 248.119 175.88 248.119 176.344C248.119 176.808 247.951 177.208 247.615 177.544C247.295 177.88 246.903 178.048 246.439 178.048Z" fill="#938876"/>
<path d="M139.08 214.24C137.667 214.24 136.407 213.933 135.3 213.32C134.207 212.693 133.347 211.84 132.72 210.76C132.093 209.667 131.78 208.42 131.78 207.02C131.78 205.593 132.093 204.34 132.72 203.26C133.347 202.167 134.207 201.313 135.3 200.7C136.407 200.073 137.667 199.76 139.08 199.76C139.893 199.76 140.653 199.887 141.36 200.14C142.08 200.393 142.727 200.74 143.3 201.18C143.873 201.607 144.34 202.107 144.7 202.68L142.82 203.88C142.567 203.493 142.24 203.147 141.84 202.84C141.44 202.533 141 202.3 140.52 202.14C140.053 201.967 139.573 201.88 139.08 201.88C138.12 201.88 137.267 202.1 136.52 202.54C135.787 202.98 135.207 203.587 134.78 204.36C134.353 205.12 134.14 206.007 134.14 207.02C134.14 208.007 134.347 208.887 134.76 209.66C135.187 210.433 135.773 211.04 136.52 211.48C137.28 211.92 138.153 212.14 139.14 212.14C139.913 212.14 140.607 211.98 141.22 211.66C141.833 211.34 142.313 210.893 142.66 210.32C143.02 209.747 143.2 209.087 143.2 208.34L145.42 208.06C145.42 209.327 145.147 210.427 144.6 211.36C144.067 212.28 143.32 212.993 142.36 213.5C141.413 213.993 140.32 214.24 139.08 214.24ZM139.84 208.52V206.64H145.42V208.2L144.18 208.52H139.84ZM148.72 208.68C148.72 207.6 148.927 206.713 149.34 206.02C149.753 205.327 150.287 204.813 150.94 204.48C151.607 204.133 152.3 203.96 153.02 203.96V206.1C152.407 206.1 151.827 206.187 151.28 206.36C150.747 206.52 150.313 206.787 149.98 207.16C149.647 207.533 149.48 208.027 149.48 208.64L148.72 208.68ZM147.24 214V204H149.48V214H147.24ZM160.606 214L160.506 212.12V208.86C160.506 208.18 160.432 207.613 160.286 207.16C160.152 206.693 159.926 206.34 159.606 206.1C159.299 205.847 158.886 205.72 158.366 205.72C157.886 205.72 157.466 205.82 157.106 206.02C156.746 206.22 156.439 206.533 156.186 206.96L154.226 206.24C154.439 205.8 154.719 205.393 155.066 205.02C155.426 204.633 155.872 204.327 156.406 204.1C156.952 203.873 157.606 203.76 158.366 203.76C159.339 203.76 160.152 203.953 160.806 204.34C161.459 204.713 161.939 205.253 162.246 205.96C162.566 206.667 162.726 207.52 162.726 208.52L162.666 214H160.606ZM157.726 214.24C156.526 214.24 155.592 213.973 154.926 213.44C154.272 212.907 153.946 212.153 153.946 211.18C153.946 210.14 154.292 209.347 154.986 208.8C155.692 208.253 156.672 207.98 157.926 207.98H160.606V209.7H158.646C157.752 209.7 157.126 209.827 156.766 210.08C156.406 210.32 156.226 210.667 156.226 211.12C156.226 211.507 156.379 211.813 156.686 212.04C157.006 212.253 157.446 212.36 158.006 212.36C158.512 212.36 158.952 212.247 159.326 212.02C159.699 211.793 159.986 211.493 160.186 211.12C160.399 210.747 160.506 210.327 160.506 209.86H161.166C161.166 211.22 160.892 212.293 160.346 213.08C159.799 213.853 158.926 214.24 157.726 214.24ZM167.98 214L171.88 204H174.2L170.08 214H167.98ZM167.82 214L163.68 204H165.98L169.9 214H167.82ZM175.739 214V204H177.959V214H175.739ZM176.859 202.1C176.499 202.1 176.186 201.973 175.919 201.72C175.666 201.453 175.539 201.14 175.539 200.78C175.539 200.42 175.666 200.113 175.919 199.86C176.186 199.607 176.499 199.48 176.859 199.48C177.219 199.48 177.526 199.607 177.779 199.86C178.046 200.113 178.179 200.42 178.179 200.78C178.179 201.14 178.046 201.453 177.779 201.72C177.526 201.973 177.219 202.1 176.859 202.1ZM184.579 214.24C183.526 214.24 182.719 213.98 182.159 213.46C181.613 212.927 181.339 212.167 181.339 211.18V200.88H183.559V210.76C183.559 211.227 183.666 211.58 183.879 211.82C184.106 212.06 184.433 212.18 184.859 212.18C184.993 212.18 185.139 212.153 185.299 212.1C185.459 212.047 185.639 211.947 185.839 211.8L186.659 213.5C186.313 213.74 185.966 213.92 185.619 214.04C185.273 214.173 184.926 214.24 184.579 214.24ZM179.679 205.92V204H186.259V205.92H179.679ZM190.031 218.24C189.711 218.24 189.351 218.18 188.951 218.06C188.564 217.94 188.191 217.787 187.831 217.6L188.671 215.78C188.924 215.9 189.158 215.993 189.371 216.06C189.584 216.14 189.758 216.18 189.891 216.18C190.211 216.18 190.478 216.093 190.691 215.92C190.918 215.76 191.098 215.52 191.231 215.2L192.411 212.44L195.791 204H198.231L193.591 215.06C193.311 215.7 193.024 216.26 192.731 216.74C192.451 217.22 192.098 217.587 191.671 217.84C191.244 218.107 190.698 218.24 190.031 218.24ZM191.811 214L187.331 204H189.771L193.251 212.42L193.971 214H191.811ZM204.528 214V204H206.748V214H204.528ZM205.648 202.1C205.288 202.1 204.975 201.973 204.708 201.72C204.455 201.453 204.328 201.14 204.328 200.78C204.328 200.42 204.455 200.113 204.708 199.86C204.975 199.607 205.288 199.48 205.648 199.48C206.008 199.48 206.315 199.607 206.568 199.86C206.835 200.113 206.968 200.42 206.968 200.78C206.968 201.14 206.835 201.453 206.568 201.72C206.315 201.973 206.008 202.1 205.648 202.1ZM213.028 214.24C212.362 214.24 211.748 214.14 211.188 213.94C210.628 213.74 210.148 213.46 209.748 213.1C209.348 212.727 209.042 212.293 208.828 211.8L210.768 210.94C210.968 211.313 211.262 211.627 211.648 211.88C212.048 212.133 212.488 212.26 212.968 212.26C213.488 212.26 213.902 212.173 214.208 212C214.528 211.813 214.688 211.56 214.688 211.24C214.688 210.933 214.568 210.7 214.328 210.54C214.088 210.367 213.748 210.227 213.308 210.12L212.368 209.86C211.422 209.62 210.682 209.24 210.148 208.72C209.615 208.187 209.348 207.58 209.348 206.9C209.348 205.9 209.668 205.127 210.308 204.58C210.962 204.033 211.895 203.76 213.108 203.76C213.722 203.76 214.282 203.853 214.788 204.04C215.308 204.213 215.755 204.467 216.128 204.8C216.502 205.12 216.762 205.5 216.908 205.94L215.048 206.78C214.915 206.447 214.662 206.193 214.288 206.02C213.915 205.833 213.502 205.74 213.048 205.74C212.595 205.74 212.242 205.84 211.988 206.04C211.735 206.227 211.608 206.493 211.608 206.84C211.608 207.04 211.722 207.227 211.948 207.4C212.175 207.56 212.502 207.693 212.928 207.8L214.108 208.08C214.762 208.24 215.295 208.493 215.708 208.84C216.122 209.173 216.428 209.553 216.628 209.98C216.828 210.393 216.928 210.813 216.928 211.24C216.928 211.84 216.755 212.367 216.408 212.82C216.075 213.273 215.615 213.627 215.028 213.88C214.442 214.12 213.775 214.24 213.028 214.24ZM227.509 214.24C226.456 214.24 225.649 213.98 225.089 213.46C224.542 212.927 224.269 212.167 224.269 211.18V200.88H226.489V210.76C226.489 211.227 226.596 211.58 226.809 211.82C227.036 212.06 227.362 212.18 227.789 212.18C227.922 212.18 228.069 212.153 228.229 212.1C228.389 212.047 228.569 211.947 228.769 211.8L229.589 213.5C229.242 213.74 228.896 213.92 228.549 214.04C228.202 214.173 227.856 214.24 227.509 214.24ZM222.609 205.92V204H229.189V205.92H222.609ZM231.401 214V200H233.641V214H231.401ZM238.181 214V208.88H240.421V214H238.181ZM238.181 208.88C238.181 208.08 238.087 207.467 237.901 207.04C237.714 206.6 237.454 206.293 237.121 206.12C236.801 205.947 236.427 205.86 236.001 205.86C235.241 205.847 234.654 206.093 234.241 206.6C233.841 207.107 233.641 207.833 233.641 208.78H232.781C232.781 207.727 232.934 206.827 233.241 206.08C233.561 205.32 234.007 204.747 234.581 204.36C235.154 203.96 235.834 203.76 236.621 203.76C237.407 203.76 238.087 203.92 238.661 204.24C239.234 204.56 239.667 205.06 239.961 205.74C240.267 206.407 240.421 207.28 240.421 208.36V208.88H238.181ZM247.149 214.24C246.176 214.24 245.309 214.02 244.549 213.58C243.803 213.127 243.209 212.507 242.769 211.72C242.343 210.933 242.129 210.027 242.129 209C242.129 207.973 242.349 207.067 242.789 206.28C243.229 205.493 243.829 204.88 244.589 204.44C245.363 203.987 246.243 203.76 247.229 203.76C248.123 203.76 248.929 203.993 249.649 204.46C250.369 204.913 250.936 205.573 251.349 206.44C251.776 207.307 251.989 208.34 251.989 209.54H244.129L244.429 209.26C244.429 209.873 244.563 210.407 244.829 210.86C245.096 211.3 245.449 211.64 245.889 211.88C246.329 212.12 246.816 212.24 247.349 212.24C247.963 212.24 248.469 212.107 248.869 211.84C249.269 211.56 249.583 211.2 249.809 210.76L251.789 211.6C251.509 212.133 251.149 212.6 250.709 213C250.283 213.4 249.769 213.707 249.169 213.92C248.583 214.133 247.909 214.24 247.149 214.24ZM244.569 208.1L244.249 207.82H249.889L249.589 208.1C249.589 207.553 249.469 207.107 249.229 206.76C248.989 206.4 248.683 206.133 248.309 205.96C247.949 205.773 247.569 205.68 247.169 205.68C246.769 205.68 246.369 205.773 245.969 205.96C245.569 206.133 245.236 206.4 244.969 206.76C244.703 207.107 244.569 207.553 244.569 208.1ZM259.529 214V202.94C259.529 201.887 259.789 201.08 260.309 200.52C260.842 199.947 261.642 199.66 262.709 199.66C263.056 199.66 263.422 199.72 263.809 199.84C264.209 199.947 264.589 200.093 264.949 200.28L264.129 201.94C263.876 201.82 263.649 201.733 263.449 201.68C263.262 201.627 263.096 201.6 262.949 201.6C262.549 201.6 262.249 201.733 262.049 202C261.862 202.253 261.769 202.673 261.769 203.26V214H259.529ZM257.809 205.84V204H264.389V205.84H257.809ZM270.629 214.24C269.629 214.24 268.736 214.02 267.949 213.58C267.176 213.127 266.569 212.507 266.129 211.72C265.689 210.933 265.469 210.027 265.469 209C265.469 207.973 265.682 207.067 266.109 206.28C266.549 205.493 267.156 204.88 267.929 204.44C268.702 203.987 269.589 203.76 270.589 203.76C271.589 203.76 272.476 203.987 273.249 204.44C274.022 204.88 274.622 205.493 275.049 206.28C275.489 207.067 275.709 207.973 275.709 209C275.709 210.027 275.496 210.933 275.069 211.72C274.642 212.507 274.042 213.127 273.269 213.58C272.496 214.02 271.616 214.24 270.629 214.24ZM270.629 212.18C271.176 212.18 271.662 212.047 272.089 211.78C272.516 211.5 272.849 211.127 273.089 210.66C273.329 210.18 273.449 209.627 273.449 209C273.449 208.373 273.322 207.827 273.069 207.36C272.829 206.88 272.496 206.507 272.069 206.24C271.642 205.96 271.149 205.82 270.589 205.82C270.029 205.82 269.536 205.953 269.109 206.22C268.682 206.487 268.349 206.86 268.109 207.34C267.869 207.82 267.749 208.373 267.749 209C267.749 209.627 267.869 210.18 268.109 210.66C268.362 211.127 268.702 211.5 269.129 211.78C269.569 212.047 270.069 212.18 270.629 212.18ZM279.13 208.68C279.13 207.6 279.337 206.713 279.75 206.02C280.163 205.327 280.697 204.813 281.35 204.48C282.017 204.133 282.71 203.96 283.43 203.96V206.1C282.817 206.1 282.237 206.187 281.69 206.36C281.157 206.52 280.723 206.787 280.39 207.16C280.057 207.533 279.89 208.027 279.89 208.64L279.13 208.68ZM277.65 214V204H279.89V214H277.65ZM289.596 214.24C288.569 214.24 287.662 214.02 286.876 213.58C286.089 213.127 285.469 212.507 285.016 211.72C284.576 210.933 284.356 210.027 284.356 209C284.356 207.973 284.576 207.067 285.016 206.28C285.469 205.493 286.082 204.88 286.856 204.44C287.642 203.987 288.542 203.76 289.556 203.76C290.542 203.76 291.436 204 292.236 204.48C293.036 204.947 293.629 205.62 294.016 206.5L291.936 207.3C291.722 206.86 291.396 206.507 290.956 206.24C290.516 205.973 290.016 205.84 289.456 205.84C288.909 205.84 288.422 205.98 287.996 206.26C287.569 206.527 287.236 206.9 286.996 207.38C286.756 207.847 286.636 208.387 286.636 209C286.636 209.613 286.756 210.16 286.996 210.64C287.249 211.107 287.589 211.48 288.016 211.76C288.456 212.027 288.949 212.16 289.496 212.16C290.056 212.16 290.556 212.02 290.996 211.74C291.436 211.447 291.762 211.053 291.976 210.56L294.056 211.36C293.669 212.267 293.076 212.973 292.276 213.48C291.489 213.987 290.596 214.24 289.596 214.24ZM300.255 214.24C299.281 214.24 298.415 214.02 297.655 213.58C296.908 213.127 296.315 212.507 295.875 211.72C295.448 210.933 295.235 210.027 295.235 209C295.235 207.973 295.455 207.067 295.895 206.28C296.335 205.493 296.935 204.88 297.695 204.44C298.468 203.987 299.348 203.76 300.335 203.76C301.228 203.76 302.035 203.993 302.755 204.46C303.475 204.913 304.041 205.573 304.455 206.44C304.881 207.307 305.095 208.34 305.095 209.54H297.235L297.535 209.26C297.535 209.873 297.668 210.407 297.935 210.86C298.201 211.3 298.555 211.64 298.995 211.88C299.435 212.12 299.921 212.24 300.455 212.24C301.068 212.24 301.575 212.107 301.975 211.84C302.375 211.56 302.688 211.2 302.915 210.76L304.895 211.6C304.615 212.133 304.255 212.6 303.815 213C303.388 213.4 302.875 213.707 302.275 213.92C301.688 214.133 301.015 214.24 300.255 214.24ZM297.675 208.1L297.355 207.82H302.995L302.695 208.1C302.695 207.553 302.575 207.107 302.335 206.76C302.095 206.4 301.788 206.133 301.415 205.96C301.055 205.773 300.675 205.68 300.275 205.68C299.875 205.68 299.475 205.773 299.075 205.96C298.675 206.133 298.341 206.4 298.075 206.76C297.808 207.107 297.675 207.553 297.675 208.1ZM311.635 214V200H313.875V212.14L313.755 214H311.635ZM317.035 214.24C316.195 214.24 315.468 214.027 314.855 213.6C314.255 213.16 313.795 212.547 313.475 211.76C313.155 210.973 312.995 210.053 312.995 209C312.995 207.933 313.155 207.013 313.475 206.24C313.795 205.453 314.255 204.847 314.855 204.42C315.468 203.98 316.195 203.76 317.035 203.76C317.941 203.76 318.728 203.98 319.395 204.42C320.075 204.847 320.601 205.453 320.975 206.24C321.361 207.013 321.555 207.933 321.555 209C321.555 210.053 321.361 210.973 320.975 211.76C320.601 212.547 320.075 213.16 319.395 213.6C318.728 214.027 317.941 214.24 317.035 214.24ZM316.475 212.2C317.008 212.2 317.481 212.067 317.895 211.8C318.308 211.52 318.635 211.14 318.875 210.66C319.128 210.18 319.255 209.627 319.255 209C319.255 208.373 319.135 207.82 318.895 207.34C318.668 206.86 318.348 206.487 317.935 206.22C317.521 205.953 317.041 205.82 316.495 205.82C315.988 205.82 315.535 205.953 315.135 206.22C314.735 206.487 314.421 206.86 314.195 207.34C313.981 207.82 313.875 208.373 313.875 209C313.875 209.627 313.981 210.18 314.195 210.66C314.421 211.14 314.728 211.52 315.115 211.8C315.515 212.067 315.968 212.2 316.475 212.2ZM324.679 218.24C324.359 218.24 323.999 218.18 323.599 218.06C323.213 217.94 322.839 217.787 322.479 217.6L323.319 215.78C323.573 215.9 323.806 215.993 324.019 216.06C324.233 216.14 324.406 216.18 324.539 216.18C324.859 216.18 325.126 216.093 325.339 215.92C325.566 215.76 325.746 215.52 325.879 215.2L327.059 212.44L330.439 204H332.879L328.239 215.06C327.959 215.7 327.673 216.26 327.379 216.74C327.099 217.22 326.746 217.587 326.319 217.84C325.893 218.107 325.346 218.24 324.679 218.24ZM326.459 214L321.979 204H324.419L327.899 212.42L328.619 214H326.459ZM141.5 238L144.84 228H147.1L143.7 238H141.5ZM134.8 238L138.06 228H140.04L136.82 238H134.8ZM134.6 238L131.2 228H133.46L136.72 238H134.6ZM141.48 238L138.28 228H140.26L143.52 238H141.48ZM148.569 238V224H150.809V238H148.569ZM155.349 238V232.88H157.589V238H155.349ZM155.349 232.88C155.349 232.08 155.255 231.467 155.069 231.04C154.882 230.6 154.622 230.293 154.289 230.12C153.969 229.947 153.595 229.86 153.169 229.86C152.409 229.847 151.822 230.093 151.409 230.6C151.009 231.107 150.809 231.833 150.809 232.78H149.949C149.949 231.727 150.102 230.827 150.409 230.08C150.729 229.32 151.175 228.747 151.749 228.36C152.322 227.96 153.002 227.76 153.789 227.76C154.575 227.76 155.255 227.92 155.829 228.24C156.402 228.56 156.835 229.06 157.129 229.74C157.435 230.407 157.589 231.28 157.589 232.36V232.88H155.349ZM159.997 238V228H162.217V238H159.997ZM161.117 226.1C160.757 226.1 160.444 225.973 160.177 225.72C159.924 225.453 159.797 225.14 159.797 224.78C159.797 224.42 159.924 224.113 160.177 223.86C160.444 223.607 160.757 223.48 161.117 223.48C161.477 223.48 161.784 223.607 162.037 223.86C162.304 224.113 162.437 224.42 162.437 224.78C162.437 225.14 162.304 225.453 162.037 225.72C161.784 225.973 161.477 226.1 161.117 226.1ZM169.537 238.24C168.511 238.24 167.604 238.02 166.817 237.58C166.031 237.127 165.411 236.507 164.957 235.72C164.517 234.933 164.297 234.027 164.297 233C164.297 231.973 164.517 231.067 164.957 230.28C165.411 229.493 166.024 228.88 166.797 228.44C167.584 227.987 168.484 227.76 169.497 227.76C170.484 227.76 171.377 228 172.177 228.48C172.977 228.947 173.571 229.62 173.957 230.5L171.877 231.3C171.664 230.86 171.337 230.507 170.897 230.24C170.457 229.973 169.957 229.84 169.397 229.84C168.851 229.84 168.364 229.98 167.937 230.26C167.511 230.527 167.177 230.9 166.937 231.38C166.697 231.847 166.577 232.387 166.577 233C166.577 233.613 166.697 234.16 166.937 234.64C167.191 235.107 167.531 235.48 167.957 235.76C168.397 236.027 168.891 236.16 169.437 236.16C169.997 236.16 170.497 236.02 170.937 235.74C171.377 235.447 171.704 235.053 171.917 234.56L173.997 235.36C173.611 236.267 173.017 236.973 172.217 237.48C171.431 237.987 170.537 238.24 169.537 238.24ZM175.756 238V224H177.996V238H175.756ZM182.536 238V232.88H184.776V238H182.536ZM182.536 232.88C182.536 232.08 182.443 231.467 182.256 231.04C182.069 230.6 181.809 230.293 181.476 230.12C181.156 229.947 180.783 229.86 180.356 229.86C179.596 229.847 179.009 230.093 178.596 230.6C178.196 231.107 177.996 231.833 177.996 232.78H177.136C177.136 231.727 177.289 230.827 177.596 230.08C177.916 229.32 178.363 228.747 178.936 228.36C179.509 227.96 180.189 227.76 180.976 227.76C181.763 227.76 182.443 227.92 183.016 228.24C183.589 228.56 184.023 229.06 184.316 229.74C184.623 230.407 184.776 231.28 184.776 232.36V232.88H182.536ZM197.969 238L197.869 236.12V232.86C197.869 232.18 197.796 231.613 197.649 231.16C197.516 230.693 197.289 230.34 196.969 230.1C196.662 229.847 196.249 229.72 195.729 229.72C195.249 229.72 194.829 229.82 194.469 230.02C194.109 230.22 193.802 230.533 193.549 230.96L191.589 230.24C191.802 229.8 192.082 229.393 192.429 229.02C192.789 228.633 193.236 228.327 193.769 228.1C194.316 227.873 194.969 227.76 195.729 227.76C196.702 227.76 197.516 227.953 198.169 228.34C198.822 228.713 199.302 229.253 199.609 229.96C199.929 230.667 200.089 231.52 200.089 232.52L200.029 238H197.969ZM195.089 238.24C193.889 238.24 192.956 237.973 192.289 237.44C191.636 236.907 191.309 236.153 191.309 235.18C191.309 234.14 191.656 233.347 192.349 232.8C193.056 232.253 194.036 231.98 195.289 231.98H197.969V233.7H196.009C195.116 233.7 194.489 233.827 194.129 234.08C193.769 234.32 193.589 234.667 193.589 235.12C193.589 235.507 193.742 235.813 194.049 236.04C194.369 236.253 194.809 236.36 195.369 236.36C195.876 236.36 196.316 236.247 196.689 236.02C197.062 235.793 197.349 235.493 197.549 235.12C197.762 234.747 197.869 234.327 197.869 233.86H198.529C198.529 235.22 198.256 236.293 197.709 237.08C197.162 237.853 196.289 238.24 195.089 238.24ZM207.281 242V228H209.381L209.521 229.84V242H207.281ZM212.681 238.24C211.841 238.24 211.115 238.027 210.501 237.6C209.901 237.16 209.441 236.547 209.121 235.76C208.801 234.973 208.641 234.053 208.641 233C208.641 231.933 208.801 231.013 209.121 230.24C209.441 229.453 209.901 228.847 210.501 228.42C211.115 227.98 211.841 227.76 212.681 227.76C213.588 227.76 214.375 227.98 215.041 228.42C215.721 228.847 216.248 229.453 216.621 230.24C217.008 231.013 217.201 231.933 217.201 233C217.201 234.053 217.008 234.973 216.621 235.76C216.248 236.547 215.721 237.16 215.041 237.6C214.375 238.027 213.588 238.24 212.681 238.24ZM212.121 236.2C212.655 236.2 213.128 236.067 213.541 235.8C213.955 235.52 214.281 235.14 214.521 234.66C214.775 234.18 214.901 233.627 214.901 233C214.901 232.373 214.781 231.82 214.541 231.34C214.315 230.86 213.995 230.487 213.581 230.22C213.168 229.953 212.688 229.82 212.141 229.82C211.635 229.82 211.181 229.953 210.781 230.22C210.381 230.487 210.068 230.86 209.841 231.34C209.628 231.82 209.521 232.373 209.521 233C209.521 233.627 209.628 234.18 209.841 234.66C210.068 235.14 210.375 235.52 210.761 235.8C211.161 236.067 211.615 236.2 212.121 236.2ZM219.115 238V224H221.355V238H219.115ZM229.942 238L229.842 236.12V232.86C229.842 232.18 229.768 231.613 229.622 231.16C229.488 230.693 229.262 230.34 228.942 230.1C228.635 229.847 228.222 229.72 227.702 229.72C227.222 229.72 226.802 229.82 226.442 230.02C226.082 230.22 225.775 230.533 225.522 230.96L223.562 230.24C223.775 229.8 224.055 229.393 224.402 229.02C224.762 228.633 225.208 228.327 225.742 228.1C226.288 227.873 226.942 227.76 227.702 227.76C228.675 227.76 229.488 227.953 230.142 228.34C230.795 228.713 231.275 229.253 231.582 229.96C231.902 230.667 232.062 231.52 232.062 232.52L232.002 238H229.942ZM227.062 238.24C225.862 238.24 224.928 237.973 224.262 237.44C223.608 236.907 223.282 236.153 223.282 235.18C223.282 234.14 223.628 233.347 224.322 232.8C225.028 232.253 226.008 231.98 227.262 231.98H229.942V233.7H227.982C227.088 233.7 226.462 233.827 226.102 234.08C225.742 234.32 225.562 234.667 225.562 235.12C225.562 235.507 225.715 235.813 226.022 236.04C226.342 236.253 226.782 236.36 227.342 236.36C227.848 236.36 228.288 236.247 228.662 236.02C229.035 235.793 229.322 235.493 229.522 235.12C229.735 234.747 229.842 234.327 229.842 233.86H230.502C230.502 235.22 230.228 236.293 229.682 237.08C229.135 237.853 228.262 238.24 227.062 238.24ZM234.33 238V228H236.43L236.57 229.84V238H234.33ZM241.11 238V232.88H243.35V238H241.11ZM241.11 232.88C241.11 232.08 241.017 231.467 240.83 231.04C240.657 230.6 240.403 230.293 240.07 230.12C239.75 229.947 239.37 229.86 238.93 229.86C238.183 229.847 237.603 230.093 237.19 230.6C236.777 231.107 236.57 231.833 236.57 232.78H235.73C235.73 231.727 235.883 230.827 236.19 230.08C236.497 229.32 236.937 228.747 237.51 228.36C238.083 227.96 238.763 227.76 239.55 227.76C240.35 227.76 241.03 227.92 241.59 228.24C242.163 228.56 242.597 229.06 242.89 229.74C243.197 230.407 243.35 231.28 243.35 232.36V232.88H241.11ZM250.079 238.24C249.106 238.24 248.239 238.02 247.479 237.58C246.732 237.127 246.139 236.507 245.699 235.72C245.272 234.933 245.059 234.027 245.059 233C245.059 231.973 245.279 231.067 245.719 230.28C246.159 229.493 246.759 228.88 247.519 228.44C248.292 227.987 249.172 227.76 250.159 227.76C251.052 227.76 251.859 227.993 252.579 228.46C253.299 228.913 253.866 229.573 254.279 230.44C254.706 231.307 254.919 232.34 254.919 233.54H247.059L247.359 233.26C247.359 233.873 247.492 234.407 247.759 234.86C248.026 235.3 248.379 235.64 248.819 235.88C249.259 236.12 249.746 236.24 250.279 236.24C250.892 236.24 251.399 236.107 251.799 235.84C252.199 235.56 252.512 235.2 252.739 234.76L254.719 235.6C254.439 236.133 254.079 236.6 253.639 237C253.212 237.4 252.699 237.707 252.099 237.92C251.512 238.133 250.839 238.24 250.079 238.24ZM247.499 232.1L247.179 231.82H252.819L252.519 232.1C252.519 231.553 252.399 231.107 252.159 230.76C251.919 230.4 251.612 230.133 251.239 229.96C250.879 229.773 250.499 229.68 250.099 229.68C249.699 229.68 249.299 229.773 248.899 229.96C248.499 230.133 248.166 230.4 247.899 230.76C247.632 231.107 247.499 231.553 247.499 232.1ZM260.615 238.24C259.561 238.24 258.755 237.98 258.195 237.46C257.648 236.927 257.375 236.167 257.375 235.18V224.88H259.595V234.76C259.595 235.227 259.701 235.58 259.915 235.82C260.141 236.06 260.468 236.18 260.895 236.18C261.028 236.18 261.175 236.153 261.335 236.1C261.495 236.047 261.675 235.947 261.875 235.8L262.695 237.5C262.348 237.74 262.001 237.92 261.655 238.04C261.308 238.173 260.961 238.24 260.615 238.24ZM255.715 229.92V228H262.295V229.92H255.715ZM273.91 238.24C272.91 238.24 272.017 238.02 271.23 237.58C270.457 237.127 269.85 236.507 269.41 235.72C268.97 234.933 268.75 234.027 268.75 233C268.75 231.973 268.964 231.067 269.39 230.28C269.83 229.493 270.437 228.88 271.21 228.44C271.984 227.987 272.87 227.76 273.87 227.76C274.87 227.76 275.757 227.987 276.53 228.44C277.304 228.88 277.904 229.493 278.33 230.28C278.77 231.067 278.99 231.973 278.99 233C278.99 234.027 278.777 234.933 278.35 235.72C277.924 236.507 277.324 237.127 276.55 237.58C275.777 238.02 274.897 238.24 273.91 238.24ZM273.91 236.18C274.457 236.18 274.944 236.047 275.37 235.78C275.797 235.5 276.13 235.127 276.37 234.66C276.61 234.18 276.73 233.627 276.73 233C276.73 232.373 276.604 231.827 276.35 231.36C276.11 230.88 275.777 230.507 275.35 230.24C274.924 229.96 274.43 229.82 273.87 229.82C273.31 229.82 272.817 229.953 272.39 230.22C271.964 230.487 271.63 230.86 271.39 231.34C271.15 231.82 271.03 232.373 271.03 233C271.03 233.627 271.15 234.18 271.39 234.66C271.644 235.127 271.984 235.5 272.41 235.78C272.85 236.047 273.35 236.18 273.91 236.18ZM282.411 232.68C282.411 231.6 282.618 230.713 283.031 230.02C283.445 229.327 283.978 228.813 284.631 228.48C285.298 228.133 285.991 227.96 286.711 227.96V230.1C286.098 230.1 285.518 230.187 284.971 230.36C284.438 230.52 284.005 230.787 283.671 231.16C283.338 231.533 283.171 232.027 283.171 232.64L282.411 232.68ZM280.931 238V228H283.171V238H280.931ZM136.84 262.24C135.84 262.24 134.947 262.02 134.16 261.58C133.387 261.127 132.78 260.507 132.34 259.72C131.9 258.933 131.68 258.027 131.68 257C131.68 255.973 131.893 255.067 132.32 254.28C132.76 253.493 133.367 252.88 134.14 252.44C134.913 251.987 135.8 251.76 136.8 251.76C137.8 251.76 138.687 251.987 139.46 252.44C140.233 252.88 140.833 253.493 141.26 254.28C141.7 255.067 141.92 255.973 141.92 257C141.92 258.027 141.707 258.933 141.28 259.72C140.853 260.507 140.253 261.127 139.48 261.58C138.707 262.02 137.827 262.24 136.84 262.24ZM136.84 260.18C137.387 260.18 137.873 260.047 138.3 259.78C138.727 259.5 139.06 259.127 139.3 258.66C139.54 258.18 139.66 257.627 139.66 257C139.66 256.373 139.533 255.827 139.28 255.36C139.04 254.88 138.707 254.507 138.28 254.24C137.853 253.96 137.36 253.82 136.8 253.82C136.24 253.82 135.747 253.953 135.32 254.22C134.893 254.487 134.56 254.86 134.32 255.34C134.08 255.82 133.96 256.373 133.96 257C133.96 257.627 134.08 258.18 134.32 258.66C134.573 259.127 134.913 259.5 135.34 259.78C135.78 260.047 136.28 260.18 136.84 260.18ZM147.841 262.24C146.788 262.24 145.981 261.98 145.421 261.46C144.874 260.927 144.601 260.167 144.601 259.18V248.88H146.821V258.76C146.821 259.227 146.928 259.58 147.141 259.82C147.368 260.06 147.694 260.18 148.121 260.18C148.254 260.18 148.401 260.153 148.561 260.1C148.721 260.047 148.901 259.947 149.101 259.8L149.921 261.5C149.574 261.74 149.228 261.92 148.881 262.04C148.534 262.173 148.188 262.24 147.841 262.24ZM142.941 253.92V252H149.521V253.92H142.941ZM151.733 262V248H153.973V262H151.733ZM158.513 262V256.88H160.753V262H158.513ZM158.513 256.88C158.513 256.08 158.419 255.467 158.233 255.04C158.046 254.6 157.786 254.293 157.453 254.12C157.133 253.947 156.759 253.86 156.333 253.86C155.573 253.847 154.986 254.093 154.573 254.6C154.173 255.107 153.973 255.833 153.973 256.78H153.113C153.113 255.727 153.266 254.827 153.573 254.08C153.893 253.32 154.339 252.747 154.913 252.36C155.486 251.96 156.166 251.76 156.953 251.76C157.739 251.76 158.419 251.92 158.993 252.24C159.566 252.56 159.999 253.06 160.293 253.74C160.599 254.407 160.753 255.28 160.753 256.36V256.88H158.513ZM167.481 262.24C166.508 262.24 165.641 262.02 164.881 261.58C164.135 261.127 163.541 260.507 163.101 259.72C162.675 258.933 162.461 258.027 162.461 257C162.461 255.973 162.681 255.067 163.121 254.28C163.561 253.493 164.161 252.88 164.921 252.44C165.695 251.987 166.575 251.76 167.561 251.76C168.455 251.76 169.261 251.993 169.981 252.46C170.701 252.913 171.268 253.573 171.681 254.44C172.108 255.307 172.321 256.34 172.321 257.54H164.461L164.761 257.26C164.761 257.873 164.895 258.407 165.161 258.86C165.428 259.3 165.781 259.64 166.221 259.88C166.661 260.12 167.148 260.24 167.681 260.24C168.295 260.24 168.801 260.107 169.201 259.84C169.601 259.56 169.915 259.2 170.141 258.76L172.121 259.6C171.841 260.133 171.481 260.6 171.041 261C170.615 261.4 170.101 261.707 169.501 261.92C168.915 262.133 168.241 262.24 167.481 262.24ZM164.901 256.1L164.581 255.82H170.221L169.921 256.1C169.921 255.553 169.801 255.107 169.561 254.76C169.321 254.4 169.015 254.133 168.641 253.96C168.281 253.773 167.901 253.68 167.501 253.68C167.101 253.68 166.701 253.773 166.301 253.96C165.901 254.133 165.568 254.4 165.301 254.76C165.035 255.107 164.901 255.553 164.901 256.1ZM175.517 256.68C175.517 255.6 175.724 254.713 176.137 254.02C176.55 253.327 177.084 252.813 177.737 252.48C178.404 252.133 179.097 251.96 179.817 251.96V254.1C179.204 254.1 178.624 254.187 178.077 254.36C177.544 254.52 177.11 254.787 176.777 255.16C176.444 255.533 176.277 256.027 176.277 256.64L175.517 256.68ZM174.037 262V252H176.277V262H174.037ZM182.383 262.28C181.996 262.28 181.663 262.147 181.382 261.88C181.116 261.6 180.983 261.267 180.983 260.88C180.983 260.493 181.116 260.16 181.382 259.88C181.663 259.6 181.996 259.46 182.383 259.46C182.769 259.46 183.103 259.6 183.383 259.88C183.663 260.16 183.803 260.493 183.803 260.88C183.803 261.267 183.663 261.6 183.383 261.88C183.103 262.147 182.769 262.28 182.383 262.28ZM187.031 262.28C186.644 262.28 186.311 262.147 186.031 261.88C185.764 261.6 185.631 261.267 185.631 260.88C185.631 260.493 185.764 260.16 186.031 259.88C186.311 259.6 186.644 259.46 187.031 259.46C187.418 259.46 187.751 259.6 188.031 259.88C188.311 260.16 188.451 260.493 188.451 260.88C188.451 261.267 188.311 261.6 188.031 261.88C187.751 262.147 187.418 262.28 187.031 262.28ZM191.679 262.28C191.293 262.28 190.959 262.147 190.679 261.88C190.413 261.6 190.279 261.267 190.279 260.88C190.279 260.493 190.413 260.16 190.679 259.88C190.959 259.6 191.293 259.46 191.679 259.46C192.066 259.46 192.399 259.6 192.679 259.88C192.959 260.16 193.099 260.493 193.099 260.88C193.099 261.267 192.959 261.6 192.679 261.88C192.399 262.147 192.066 262.28 191.679 262.28Z" fill="#D2C9BA"/>
<rect x="3.5" y="3.5" width="435" height="83" rx="18.5" fill="white" stroke="#EDE5D8" stroke-width="7"/>
<line x1="31" y1="61.0156" x2="31" y2="29" stroke="black" stroke-width="2"/>
<path d="M52.84 52.0078L56.96 38.0078H59.32L55.08 52.0078H52.84ZM44.36 52.0078L40.18 38.0078H42.52L46.62 52.0078H44.36ZM44.66 52.0078L48.6 38.0078H50.74L46.82 52.0078H44.66ZM52.62 52.0078L48.76 38.0078H50.9L54.88 52.0078H52.62ZM60.7522 52.0078V38.0078H62.9922V52.0078H60.7522ZM67.5322 52.0078V46.8878H69.7722V52.0078H67.5322ZM67.5322 46.8878C67.5322 46.0878 67.4389 45.4745 67.2522 45.0478C67.0655 44.6078 66.8055 44.3011 66.4722 44.1278C66.1522 43.9545 65.7789 43.8678 65.3522 43.8678C64.5922 43.8545 64.0055 44.1011 63.5922 44.6078C63.1922 45.1145 62.9922 45.8411 62.9922 46.7878H62.1322C62.1322 45.7345 62.2855 44.8345 62.5922 44.0878C62.9122 43.3278 63.3589 42.7545 63.9322 42.3678C64.5055 41.9678 65.1855 41.7678 65.9722 41.7678C66.7589 41.7678 67.4389 41.9278 68.0122 42.2478C68.5855 42.5678 69.0189 43.0678 69.3122 43.7478C69.6189 44.4145 69.7722 45.2878 69.7722 46.3678V46.8878H67.5322ZM78.1408 52.0078L78.0408 50.1278V46.8678C78.0408 46.1878 77.9674 45.6211 77.8208 45.1678C77.6874 44.7011 77.4608 44.3478 77.1408 44.1078C76.8341 43.8545 76.4208 43.7278 75.9008 43.7278C75.4208 43.7278 75.0008 43.8278 74.6408 44.0278C74.2808 44.2278 73.9741 44.5411 73.7208 44.9678L71.7608 44.2478C71.9741 43.8078 72.2541 43.4011 72.6008 43.0278C72.9608 42.6411 73.4074 42.3345 73.9408 42.1078C74.4874 41.8811 75.1408 41.7678 75.9008 41.7678C76.8741 41.7678 77.6874 41.9611 78.3408 42.3478C78.9941 42.7211 79.4741 43.2611 79.7808 43.9678C80.1008 44.6745 80.2608 45.5278 80.2608 46.5278L80.2008 52.0078H78.1408ZM75.2608 52.2478C74.0608 52.2478 73.1274 51.9811 72.4608 51.4478C71.8074 50.9145 71.4808 50.1611 71.4808 49.1878C71.4808 48.1478 71.8274 47.3545 72.5208 46.8078C73.2274 46.2611 74.2074 45.9878 75.4608 45.9878H78.1408V47.7078H76.1808C75.2874 47.7078 74.6608 47.8345 74.3008 48.0878C73.9408 48.3278 73.7608 48.6745 73.7608 49.1278C73.7608 49.5145 73.9141 49.8211 74.2208 50.0478C74.5408 50.2611 74.9808 50.3678 75.5408 50.3678C76.0474 50.3678 76.4874 50.2545 76.8608 50.0278C77.2341 49.8011 77.5208 49.5011 77.7208 49.1278C77.9341 48.7545 78.0408 48.3345 78.0408 47.8678H78.7008C78.7008 49.2278 78.4274 50.3011 77.8808 51.0878C77.3341 51.8611 76.4608 52.2478 75.2608 52.2478ZM86.5091 52.2478C85.4557 52.2478 84.6491 51.9878 84.0891 51.4678C83.5424 50.9345 83.2691 50.1745 83.2691 49.1878V38.8878H85.4891V48.7678C85.4891 49.2345 85.5957 49.5878 85.8091 49.8278C86.0357 50.0678 86.3624 50.1878 86.7891 50.1878C86.9224 50.1878 87.0691 50.1611 87.2291 50.1078C87.3891 50.0545 87.5691 49.9545 87.7691 49.8078L88.5891 51.5078C88.2424 51.7478 87.8957 51.9278 87.5491 52.0478C87.2024 52.1811 86.8557 52.2478 86.5091 52.2478ZM81.6091 43.9278V42.0078H88.1891V43.9278H81.6091ZM104.465 52.0078L107.805 42.0078H110.065L106.665 52.0078H104.465ZM97.7648 52.0078L101.025 42.0078H103.005L99.7848 52.0078H97.7648ZM97.5648 52.0078L94.1648 42.0078H96.4248L99.6848 52.0078H97.5648ZM104.445 52.0078L101.245 42.0078H103.225L106.485 52.0078H104.445ZM115.84 52.2478C114.84 52.2478 113.947 52.0278 113.16 51.5878C112.387 51.1345 111.78 50.5145 111.34 49.7278C110.9 48.9411 110.68 48.0345 110.68 47.0078C110.68 45.9811 110.893 45.0745 111.32 44.2878C111.76 43.5011 112.367 42.8878 113.14 42.4478C113.913 41.9945 114.8 41.7678 115.8 41.7678C116.8 41.7678 117.687 41.9945 118.46 42.4478C119.233 42.8878 119.833 43.5011 120.26 44.2878C120.7 45.0745 120.92 45.9811 120.92 47.0078C120.92 48.0345 120.707 48.9411 120.28 49.7278C119.853 50.5145 119.253 51.1345 118.48 51.5878C117.707 52.0278 116.827 52.2478 115.84 52.2478ZM115.84 50.1878C116.387 50.1878 116.873 50.0545 117.3 49.7878C117.727 49.5078 118.06 49.1345 118.3 48.6678C118.54 48.1878 118.66 47.6345 118.66 47.0078C118.66 46.3811 118.533 45.8345 118.28 45.3678C118.04 44.8878 117.707 44.5145 117.28 44.2478C116.853 43.9678 116.36 43.8278 115.8 43.8278C115.24 43.8278 114.747 43.9611 114.32 44.2278C113.893 44.4945 113.56 44.8678 113.32 45.3478C113.08 45.8278 112.96 46.3811 112.96 47.0078C112.96 47.6345 113.08 48.1878 113.32 48.6678C113.573 49.1345 113.913 49.5078 114.34 49.7878C114.78 50.0545 115.28 50.1878 115.84 50.1878ZM129.561 52.0078L129.441 50.1678V42.0078H131.661V52.0078H129.561ZM122.641 47.1278V42.0078H124.881V47.1278H122.641ZM124.881 47.1278C124.881 47.9145 124.974 48.5278 125.161 48.9678C125.348 49.4078 125.601 49.7145 125.921 49.8878C126.254 50.0611 126.634 50.1478 127.061 50.1478C127.821 50.1611 128.408 49.9145 128.821 49.4078C129.234 48.9011 129.441 48.1745 129.441 47.2278H130.281C130.281 48.2811 130.121 49.1878 129.801 49.9478C129.494 50.6945 129.054 51.2678 128.481 51.6678C127.921 52.0545 127.241 52.2478 126.441 52.2478C125.654 52.2478 124.974 52.0878 124.401 51.7678C123.841 51.4478 123.408 50.9478 123.101 50.2678C122.794 49.5878 122.641 48.7145 122.641 47.6478V47.1278H124.881ZM134.15 52.0078V38.0078H136.39V52.0078H134.15ZM146.097 52.0078L145.997 50.1478V38.0078H148.217V52.0078H146.097ZM142.837 52.2478C141.93 52.2478 141.137 52.0345 140.457 51.6078C139.79 51.1678 139.263 50.5545 138.877 49.7678C138.503 48.9811 138.317 48.0611 138.317 47.0078C138.317 45.9411 138.503 45.0211 138.877 44.2478C139.263 43.4611 139.79 42.8545 140.457 42.4278C141.137 41.9878 141.93 41.7678 142.837 41.7678C143.677 41.7678 144.397 41.9878 144.997 42.4278C145.61 42.8545 146.077 43.4611 146.397 44.2478C146.717 45.0211 146.877 45.9411 146.877 47.0078C146.877 48.0611 146.717 48.9811 146.397 49.7678C146.077 50.5545 145.61 51.1678 144.997 51.6078C144.397 52.0345 143.677 52.2478 142.837 52.2478ZM143.397 50.2078C143.903 50.2078 144.35 50.0745 144.737 49.8078C145.137 49.5278 145.443 49.1478 145.657 48.6678C145.883 48.1878 145.997 47.6345 145.997 47.0078C145.997 46.3811 145.883 45.8278 145.657 45.3478C145.443 44.8678 145.137 44.4945 144.737 44.2278C144.35 43.9611 143.897 43.8278 143.377 43.8278C142.843 43.8278 142.37 43.9611 141.957 44.2278C141.543 44.4945 141.217 44.8678 140.977 45.3478C140.75 45.8278 140.63 46.3811 140.617 47.0078C140.63 47.6345 140.75 48.1878 140.977 48.6678C141.217 49.1478 141.543 49.5278 141.957 49.8078C142.383 50.0745 142.863 50.2078 143.397 50.2078ZM157.097 56.2478C156.777 56.2478 156.417 56.1878 156.017 56.0678C155.631 55.9478 155.257 55.7945 154.897 55.6078L155.737 53.7878C155.991 53.9078 156.224 54.0011 156.437 54.0678C156.651 54.1478 156.824 54.1878 156.957 54.1878C157.277 54.1878 157.544 54.1011 157.757 53.9278C157.984 53.7678 158.164 53.5278 158.297 53.2078L159.477 50.4478L162.857 42.0078H165.297L160.657 53.0678C160.377 53.7078 160.091 54.2678 159.797 54.7478C159.517 55.2278 159.164 55.5945 158.737 55.8478C158.311 56.1145 157.764 56.2478 157.097 56.2478ZM158.877 52.0078L154.397 42.0078H156.837L160.317 50.4278L161.037 52.0078H158.877ZM170.957 52.2478C169.957 52.2478 169.064 52.0278 168.277 51.5878C167.504 51.1345 166.897 50.5145 166.457 49.7278C166.017 48.9411 165.797 48.0345 165.797 47.0078C165.797 45.9811 166.011 45.0745 166.437 44.2878C166.877 43.5011 167.484 42.8878 168.257 42.4478C169.031 41.9945 169.917 41.7678 170.917 41.7678C171.917 41.7678 172.804 41.9945 173.577 42.4478C174.351 42.8878 174.951 43.5011 175.377 44.2878C175.817 45.0745 176.037 45.9811 176.037 47.0078C176.037 48.0345 175.824 48.9411 175.397 49.7278C174.971 50.5145 174.371 51.1345 173.597 51.5878C172.824 52.0278 171.944 52.2478 170.957 52.2478ZM170.957 50.1878C171.504 50.1878 171.991 50.0545 172.417 49.7878C172.844 49.5078 173.177 49.1345 173.417 48.6678C173.657 48.1878 173.777 47.6345 173.777 47.0078C173.777 46.3811 173.651 45.8345 173.397 45.3678C173.157 44.8878 172.824 44.5145 172.397 44.2478C171.971 43.9678 171.477 43.8278 170.917 43.8278C170.357 43.8278 169.864 43.9611 169.437 44.2278C169.011 44.4945 168.677 44.8678 168.437 45.3478C168.197 45.8278 168.077 46.3811 168.077 47.0078C168.077 47.6345 168.197 48.1878 168.437 48.6678C168.691 49.1345 169.031 49.5078 169.457 49.7878C169.897 50.0545 170.397 50.1878 170.957 50.1878ZM184.678 52.0078L184.558 50.1678V42.0078H186.778V52.0078H184.678ZM177.758 47.1278V42.0078H179.998V47.1278H177.758ZM179.998 47.1278C179.998 47.9145 180.092 48.5278 180.278 48.9678C180.465 49.4078 180.718 49.7145 181.038 49.8878C181.372 50.0611 181.752 50.1478 182.178 50.1478C182.938 50.1611 183.525 49.9145 183.938 49.4078C184.352 48.9011 184.558 48.1745 184.558 47.2278H185.398C185.398 48.2811 185.238 49.1878 184.918 49.9478C184.612 50.6945 184.172 51.2678 183.598 51.6678C183.038 52.0545 182.358 52.2478 181.558 52.2478C180.772 52.2478 180.092 52.0878 179.518 51.7678C178.958 51.4478 178.525 50.9478 178.218 50.2678C177.912 49.5878 177.758 48.7145 177.758 47.6478V47.1278H179.998ZM194.092 52.0078V38.0078H196.332V52.0078H194.092ZM198.958 52.0078V42.0078H201.178V52.0078H198.958ZM200.078 40.1078C199.718 40.1078 199.405 39.9811 199.138 39.7278C198.885 39.4611 198.758 39.1478 198.758 38.7878C198.758 38.4278 198.885 38.1211 199.138 37.8678C199.405 37.6145 199.718 37.4878 200.078 37.4878C200.438 37.4878 200.745 37.6145 200.998 37.8678C201.265 38.1211 201.398 38.4278 201.398 38.7878C201.398 39.1478 201.265 39.4611 200.998 39.7278C200.745 39.9811 200.438 40.1078 200.078 40.1078ZM205.958 49.2078L204.598 47.6678L209.798 42.0078H212.498L205.958 49.2078ZM203.818 52.0078V38.0078H206.058V52.0078H203.818ZM210.178 52.0078L206.658 46.8278L208.118 45.2678L212.838 52.0078H210.178ZM218.22 52.2478C217.246 52.2478 216.38 52.0278 215.62 51.5878C214.873 51.1345 214.28 50.5145 213.84 49.7278C213.413 48.9411 213.2 48.0345 213.2 47.0078C213.2 45.9811 213.42 45.0745 213.86 44.2878C214.3 43.5011 214.9 42.8878 215.66 42.4478C216.433 41.9945 217.313 41.7678 218.3 41.7678C219.193 41.7678 220 42.0011 220.72 42.4678C221.44 42.9211 222.006 43.5811 222.42 44.4478C222.846 45.3145 223.06 46.3478 223.06 47.5478H215.2L215.5 47.2678C215.5 47.8811 215.633 48.4145 215.9 48.8678C216.166 49.3078 216.52 49.6478 216.96 49.8878C217.4 50.1278 217.886 50.2478 218.42 50.2478C219.033 50.2478 219.54 50.1145 219.94 49.8478C220.34 49.5678 220.653 49.2078 220.88 48.7678L222.86 49.6078C222.58 50.1411 222.22 50.6078 221.78 51.0078C221.353 51.4078 220.84 51.7145 220.24 51.9278C219.653 52.1411 218.98 52.2478 218.22 52.2478ZM215.64 46.1078L215.32 45.8278H220.96L220.66 46.1078C220.66 45.5611 220.54 45.1145 220.3 44.7678C220.06 44.4078 219.753 44.1411 219.38 43.9678C219.02 43.7811 218.64 43.6878 218.24 43.6878C217.84 43.6878 217.44 43.7811 217.04 43.9678C216.64 44.1411 216.306 44.4078 216.04 44.7678C215.773 45.1145 215.64 45.5611 215.64 46.1078ZM233.579 52.2478C232.526 52.2478 231.719 51.9878 231.159 51.4678C230.613 50.9345 230.339 50.1745 230.339 49.1878V38.8878H232.559V48.7678C232.559 49.2345 232.666 49.5878 232.879 49.8278C233.106 50.0678 233.433 50.1878 233.859 50.1878C233.993 50.1878 234.139 50.1611 234.299 50.1078C234.459 50.0545 234.639 49.9545 234.839 49.8078L235.659 51.5078C235.313 51.7478 234.966 51.9278 234.619 52.0478C234.273 52.1811 233.926 52.2478 233.579 52.2478ZM228.679 43.9278V42.0078H235.259V43.9278H228.679ZM241.914 52.2478C240.914 52.2478 240.021 52.0278 239.234 51.5878C238.461 51.1345 237.854 50.5145 237.414 49.7278C236.974 48.9411 236.754 48.0345 236.754 47.0078C236.754 45.9811 236.968 45.0745 237.394 44.2878C237.834 43.5011 238.441 42.8878 239.214 42.4478C239.988 41.9945 240.874 41.7678 241.874 41.7678C242.874 41.7678 243.761 41.9945 244.534 42.4478C245.308 42.8878 245.908 43.5011 246.334 44.2878C246.774 45.0745 246.994 45.9811 246.994 47.0078C246.994 48.0345 246.781 48.9411 246.354 49.7278C245.928 50.5145 245.328 51.1345 244.554 51.5878C243.781 52.0278 242.901 52.2478 241.914 52.2478ZM241.914 50.1878C242.461 50.1878 242.948 50.0545 243.374 49.7878C243.801 49.5078 244.134 49.1345 244.374 48.6678C244.614 48.1878 244.734 47.6345 244.734 47.0078C244.734 46.3811 244.608 45.8345 244.354 45.3678C244.114 44.8878 243.781 44.5145 243.354 44.2478C242.928 43.9678 242.434 43.8278 241.874 43.8278C241.314 43.8278 240.821 43.9611 240.394 44.2278C239.968 44.4945 239.634 44.8678 239.394 45.3478C239.154 45.8278 239.034 46.3811 239.034 47.0078C239.034 47.6345 239.154 48.1878 239.394 48.6678C239.648 49.1345 239.988 49.5078 240.414 49.7878C240.854 50.0545 241.354 50.1878 241.914 50.1878ZM255.9 49.2078L254.54 47.6678L259.74 42.0078H262.44L255.9 49.2078ZM253.76 52.0078V38.0078H256V52.0078H253.76ZM260.12 52.0078L256.6 46.8278L258.06 45.2678L262.78 52.0078H260.12ZM264.092 52.0078V42.0078H266.192L266.332 43.8478V52.0078H264.092ZM270.872 52.0078V46.8878H273.112V52.0078H270.872ZM270.872 46.8878C270.872 46.0878 270.778 45.4745 270.592 45.0478C270.418 44.6078 270.165 44.3011 269.832 44.1278C269.512 43.9545 269.132 43.8678 268.692 43.8678C267.945 43.8545 267.365 44.1011 266.952 44.6078C266.538 45.1145 266.332 45.8411 266.332 46.7878H265.492C265.492 45.7345 265.645 44.8345 265.952 44.0878C266.258 43.3278 266.698 42.7545 267.272 42.3678C267.845 41.9678 268.525 41.7678 269.312 41.7678C270.112 41.7678 270.792 41.9278 271.352 42.2478C271.925 42.5678 272.358 43.0678 272.652 43.7478C272.958 44.4145 273.112 45.2878 273.112 46.3678V46.8878H270.872ZM279.981 52.2478C278.981 52.2478 278.087 52.0278 277.301 51.5878C276.527 51.1345 275.921 50.5145 275.481 49.7278C275.041 48.9411 274.821 48.0345 274.821 47.0078C274.821 45.9811 275.034 45.0745 275.461 44.2878C275.901 43.5011 276.507 42.8878 277.281 42.4478C278.054 41.9945 278.941 41.7678 279.941 41.7678C280.941 41.7678 281.827 41.9945 282.601 42.4478C283.374 42.8878 283.974 43.5011 284.401 44.2878C284.841 45.0745 285.061 45.9811 285.061 47.0078C285.061 48.0345 284.847 48.9411 284.421 49.7278C283.994 50.5145 283.394 51.1345 282.621 51.5878C281.847 52.0278 280.967 52.2478 279.981 52.2478ZM279.981 50.1878C280.527 50.1878 281.014 50.0545 281.441 49.7878C281.867 49.5078 282.201 49.1345 282.441 48.6678C282.681 48.1878 282.801 47.6345 282.801 47.0078C282.801 46.3811 282.674 45.8345 282.421 45.3678C282.181 44.8878 281.847 44.5145 281.421 44.2478C280.994 43.9678 280.501 43.8278 279.941 43.8278C279.381 43.8278 278.887 43.9611 278.461 44.2278C278.034 44.4945 277.701 44.8678 277.461 45.3478C277.221 45.8278 277.101 46.3811 277.101 47.0078C277.101 47.6345 277.221 48.1878 277.461 48.6678C277.714 49.1345 278.054 49.5078 278.481 49.7878C278.921 50.0545 279.421 50.1878 279.981 50.1878ZM295.891 52.0078L299.231 42.0078H301.491L298.091 52.0078H295.891ZM289.191 52.0078L292.451 42.0078H294.431L291.211 52.0078H289.191ZM288.991 52.0078L285.591 42.0078H287.851L291.111 52.0078H288.991ZM295.871 52.0078L292.671 42.0078H294.651L297.911 52.0078H295.871ZM305.059 48.0878L304.999 44.5478L306.299 44.4678C307.059 44.4411 307.686 44.2278 308.179 43.8278C308.673 43.4145 308.919 42.8345 308.919 42.0878C308.919 41.4211 308.686 40.8745 308.219 40.4478C307.766 40.0211 307.173 39.8078 306.439 39.8078C305.919 39.8078 305.466 39.9345 305.079 40.1878C304.693 40.4411 304.426 40.7545 304.279 41.1278L302.219 40.5278C302.486 39.7011 302.986 39.0345 303.719 38.5278C304.466 38.0211 305.373 37.7678 306.439 37.7678C307.346 37.7678 308.146 37.9545 308.839 38.3278C309.546 38.6878 310.099 39.1945 310.499 39.8478C310.899 40.4878 311.099 41.2345 311.099 42.0878C311.099 42.8078 310.939 43.4545 310.619 44.0278C310.299 44.6011 309.846 45.0611 309.259 45.4078C308.686 45.7545 308.019 45.9678 307.259 46.0478L307.219 48.0878H305.059ZM306.139 52.2878C305.739 52.2878 305.399 52.1545 305.119 51.8878C304.853 51.6078 304.719 51.2745 304.719 50.8878C304.719 50.4878 304.853 50.1545 305.119 49.8878C305.399 49.6078 305.739 49.4678 306.139 49.4678C306.526 49.4678 306.853 49.6078 307.119 49.8878C307.399 50.1545 307.539 50.4878 307.539 50.8878C307.539 51.2745 307.399 51.6078 307.119 51.8878C306.853 52.1545 306.526 52.2878 306.139 52.2878Z" fill="#9C9C9C"/>
</svg>
